<svg width="237" height="257" viewBox="0 0 237 257" fill="none" xmlns="http://www.w3.org/2000/svg">
<ellipse cx="118.492" cy="128.254" rx="79.7324" ry="102.982" transform="rotate(-27.7288 118.492 128.254)" fill="#FFE25F"/>
<path fill-rule="evenodd" clip-rule="evenodd" d="M158.48 179.091C156.718 179.971 154.898 180.748 153.016 181.427C129.93 189.74 95.075 181.978 66.4829 135.262C65.6093 133.834 66.0652 131.966 67.5065 131.087C68.8727 130.194 70.821 130.651 71.6932 132.083C93.6891 168.012 124.803 185.14 150.968 175.716C175.776 166.808 188.551 137.33 183.434 100.709C183.204 99.0515 184.366 97.4982 186.033 97.2687C187.701 97.0285 189.238 98.1788 189.473 99.8374C194.63 136.737 182.55 167.067 158.48 179.091" fill="black"/>
<path fill-rule="evenodd" clip-rule="evenodd" d="M115.862 124.23C115.706 124.308 115.543 124.372 115.371 124.425C113.753 124.914 112.052 124.008 111.575 122.402C102.153 90.8119 95.0976 78.203 92.0258 74.5678C91.5364 78.8837 92.417 91.2377 100.379 117.177C100.868 118.781 99.9575 120.507 98.3444 120.984C96.7325 121.484 95.0212 120.593 94.5332 118.992C90.5572 106.032 81.949 75.2148 87.9048 68.8666C89.0701 67.637 90.6559 67.1534 92.2901 67.5269C100.982 69.5139 111.774 101.654 117.433 120.635C117.859 122.07 117.171 123.576 115.862 124.23" fill="black"/>
<path fill-rule="evenodd" clip-rule="evenodd" d="M157.664 103.511C157.49 103.598 157.299 103.672 157.105 103.725C155.461 104.185 153.767 103.243 153.325 101.618C146.947 78.2722 137.12 63.0281 133.148 59.8764C132.724 62.8947 133.004 73.4663 144.592 106.791C145.147 108.38 144.299 110.092 142.675 110.695C141.064 111.261 139.312 110.43 138.759 108.84C122.417 61.8409 127.227 56.5536 128.805 54.815C130.032 53.4732 131.79 52.9321 133.62 53.3499C141.863 55.2335 153.539 78.9676 159.274 99.9542C159.668 101.386 158.961 102.863 157.664 103.511" fill="black"/>
</svg>
