<svg width="281" height="99" viewBox="0 0 281 99" fill="none" xmlns="http://www.w3.org/2000/svg">
<path fill-rule="evenodd" clip-rule="evenodd" d="M84.6 92.9179C107.344 96.9671 129.871 99 151.392 99C167.544 99 183.13 97.8544 197.815 95.5558C227.9 90.8475 252.603 81.5689 267.375 69.4272C280.157 58.922 284.118 47.2802 278.527 36.6459C275.105 30.1388 266.05 20.5077 242.217 12.7102C245.948 13.5157 249.71 14.3834 253.501 15.317C254.585 15.5857 255.755 15.1608 256.123 14.3772C256.489 13.5905 255.91 12.7393 254.829 12.4721C220.958 4.13299 189.314 0.985813 162.281 0.468576C99.2672 -2.42265 55.2515 8.42489 29.0814 23.1081C24.9757 25.1324 21.3004 27.2542 18.113 29.4571C11.9952 33.6848 7.87392 38.0543 5.82006 42.4292C-1.14389 52.1087 -1.9404 61.9757 3.8738 69.5263C10.7994 78.5271 25.7242 83.1934 45.9197 82.6229C47.0594 82.5913 47.951 81.8932 47.9076 81.0659C47.8641 80.2372 46.8464 79.5345 45.7624 79.6231C27.2011 80.1246 13.6168 76.0288 7.48347 68.0624C4.14796 63.7291 3.32906 58.4739 4.90938 52.9121C5.02162 53.2793 5.14939 53.6457 5.29271 54.0112C10.6784 67.7445 37.144 78.5804 81.8238 85.3494C105.124 88.8803 126.239 90.4251 145.177 90.4251C201.951 90.4236 239.132 76.5387 256.741 60.6421C268.193 50.3017 271.637 38.6386 265.954 29.4405C265.187 28.1998 264.277 27.0244 263.229 25.9166C269.586 30.2241 272.921 34.4029 274.663 37.7164C279.679 47.2562 275.989 57.8109 264.274 67.4393C226.91 98.1472 145.457 100.662 85.5867 90.0007C84.4903 89.807 83.3547 90.2965 83.0837 91.1012C82.8127 91.9059 83.4912 92.7197 84.6 92.9179ZM238.449 14.7474C234.361 14.0472 229.916 13.6041 225.148 13.4314C224.028 13.3638 223.037 14.0289 222.979 14.8561C222.922 15.6848 223.8 16.3903 224.941 16.4309C243.702 17.1109 256.927 22.1671 262.18 30.6685C267.215 38.8172 263.977 49.3184 253.518 58.7596C230.807 79.2649 173.995 96.2454 82.6694 82.4115C40.2059 75.9772 14.1373 65.6007 9.2705 53.1885C7.94004 49.7976 8.30737 46.5515 9.6768 43.5563C10.6147 42.2759 11.6699 40.997 12.8411 39.7267C17.3192 34.8703 23.4568 30.0784 31.2907 25.6402C50.5891 16.0799 79.9664 8.7245 112.958 5.41482C126.443 4.06146 143.069 3.10925 161.994 3.46339C168.298 3.75302 174.799 4.18162 181.496 4.75941C206.454 6.9127 224.867 10.5366 238.449 14.7474Z" fill="#F7E32D"/>
<path d="M68.6797 45.2266C68.4922 45.2266 68.3281 45.375 68.1875 45.6719C67.5938 46.8281 66.9609 47.875 66.2891 48.8125C65.6328 49.75 64.9688 50.5469 64.2969 51.2031C63.625 51.8594 62.9609 52.3672 62.3047 52.7266C61.6484 53.0703 61.0312 53.2422 60.4531 53.2422C59.8906 53.2422 59.3672 53.125 58.8828 52.8906C58.4141 52.6406 57.8984 52.1797 57.3359 51.5078C56.7891 50.8359 56.1562 49.9062 55.4375 48.7188C54.7344 47.5312 53.8672 45.9844 52.8359 44.0781C52.6641 43.7656 52.4844 43.5391 52.2969 43.3984C52.125 43.2422 51.9688 43.1641 51.8281 43.1641C51.625 43.1641 51.4375 43.3828 51.2656 43.8203C51.0938 44.2422 50.9453 44.8438 50.8203 45.625C50.6953 46.3906 50.5938 47.3203 50.5156 48.4141C50.4531 49.4922 50.4219 50.6875 50.4219 52C50.4219 52.7812 50.4609 53.5625 50.5391 54.3438C50.6328 55.125 50.6797 55.9297 50.6797 56.7578C50.6797 57.0391 50.6016 57.3047 50.4453 57.5547C50.2891 57.7891 50.0781 57.9922 49.8125 58.1641C49.5625 58.3516 49.2578 58.5 48.8984 58.6094C48.5547 58.7188 48.1875 58.7734 47.7969 58.7734C47.0156 58.7734 46.4531 58.3047 46.1094 57.3672C45.7656 56.4297 45.5938 54.9297 45.5938 52.8672C45.5938 50.2578 45.7344 47.8906 46.0156 45.7656C46.3125 43.625 46.7266 41.7969 47.2578 40.2812C47.8047 38.75 48.4453 37.5703 49.1797 36.7422C49.9297 35.8984 50.7656 35.4766 51.6875 35.4766C52.5 35.4766 53.2734 35.9453 54.0078 36.8828C54.7578 37.8047 55.5625 39.3047 56.4219 41.3828C56.7656 42.2266 57.1328 43.0156 57.5234 43.75C57.9297 44.4844 58.3281 45.125 58.7188 45.6719C59.125 46.2031 59.5156 46.625 59.8906 46.9375C60.2656 47.2344 60.6016 47.3828 60.8984 47.3828C61.1953 47.3828 61.4766 47.3203 61.7422 47.1953C62.0234 47.0547 62.3359 46.7656 62.6797 46.3281C63.0391 45.875 63.4531 45.2188 63.9219 44.3594C64.4062 43.5 65 42.3516 65.7031 40.9141C66.0781 40.1641 66.4141 39.5391 66.7109 39.0391C67.0078 38.5391 67.3047 38.1406 67.6016 37.8438C67.8984 37.5312 68.2109 37.3125 68.5391 37.1875C68.8672 37.0469 69.2344 36.9766 69.6406 36.9766C70.125 36.9766 70.6016 37.2344 71.0703 37.75C71.5391 38.2656 71.9922 38.9531 72.4297 39.8125C72.8828 40.6719 73.3203 41.6719 73.7422 42.8125C74.1641 43.9531 74.5703 45.1484 74.9609 46.3984C75.3672 47.6484 75.7578 48.9219 76.1328 50.2188C76.5234 51.5 76.8984 52.7188 77.2578 53.875C77.3516 54.2188 77.4141 54.4609 77.4453 54.6016C77.4922 54.7266 77.5156 54.8828 77.5156 55.0703C77.5156 55.3359 77.4297 55.6016 77.2578 55.8672C77.1016 56.1172 76.8906 56.3438 76.625 56.5469C76.3594 56.75 76.0547 56.9141 75.7109 57.0391C75.3828 57.1641 75.0547 57.2266 74.7266 57.2266C74.2891 57.2266 73.9453 57.1797 73.6953 57.0859C73.4609 56.9766 73.2734 56.7891 73.1328 56.5234C73.0547 56.3828 72.9219 56.0078 72.7344 55.3984C72.5469 54.7891 72.3203 54.0703 72.0547 53.2422C71.8047 52.3984 71.5234 51.5078 71.2109 50.5703C70.9141 49.6328 70.6094 48.7734 70.2969 47.9922C70 47.1953 69.7109 46.5391 69.4297 46.0234C69.1484 45.4922 68.8984 45.2266 68.6797 45.2266ZM99.2188 52.8672C99.6719 52.4766 100.117 52.2812 100.555 52.2812C100.805 52.2812 101.031 52.3438 101.234 52.4688C101.438 52.5938 101.664 52.7891 101.914 53.0547C102.148 53.4141 102.312 53.7109 102.406 53.9453C102.516 54.1641 102.57 54.3828 102.57 54.6016C102.57 55.0703 102.336 55.5156 101.867 55.9375C101.117 56.5625 100.305 57.125 99.4297 57.625C98.5547 58.1094 97.6406 58.5234 96.6875 58.8672C95.7344 59.2109 94.75 59.4688 93.7344 59.6406C92.7188 59.8281 91.7109 59.9219 90.7109 59.9219C89.4453 59.9219 88.2578 59.7578 87.1484 59.4297C86.0391 59.1172 85.0469 58.6641 84.1719 58.0703C83.3125 57.4766 82.5859 56.7656 81.9922 55.9375C81.3984 55.0938 80.9766 54.1484 80.7266 53.1016C80.5859 52.6641 80.4531 52.3828 80.3281 52.2578C80.2188 52.1172 80.0312 52.0469 79.7656 52.0469C79.1875 52.0469 78.7422 51.9062 78.4297 51.625C78.1172 51.3438 77.9609 50.9375 77.9609 50.4062C77.9609 50.1875 77.9766 50.0469 78.0078 49.9844L78.0547 49.5156C78.1328 48.9531 78.2812 48.5469 78.5 48.2969C78.7344 48.0469 79.0938 47.9219 79.5781 47.9219H79.9297C80.5859 47.9219 81.0469 47.6172 81.3125 47.0078C81.7969 45.9297 82.4141 44.9453 83.1641 44.0547C83.9141 43.1641 84.7578 42.4062 85.6953 41.7812C86.6328 41.1406 87.6328 40.6484 88.6953 40.3047C89.7734 39.9453 90.8672 39.7656 91.9766 39.7656C93.1328 39.7656 94.2109 39.9375 95.2109 40.2812C96.2266 40.6094 97.1094 41.0703 97.8594 41.6641C98.6094 42.2578 99.1953 42.9531 99.6172 43.75C100.055 44.5469 100.273 45.4062 100.273 46.3281C100.273 46.9688 100.148 47.5547 99.8984 48.0859C99.6484 48.6172 99.2891 49.0859 98.8203 49.4922C98.3516 49.8828 97.7812 50.2031 97.1094 50.4531C96.4531 50.7031 95.7031 50.8672 94.8594 50.9453L86.7266 51.7656C86.4141 51.7656 86.1562 51.8438 85.9531 52C85.7656 52.1562 85.6719 52.3672 85.6719 52.6328C85.6719 53.0391 85.8203 53.4297 86.1172 53.8047C86.4297 54.1797 86.8359 54.5156 87.3359 54.8125C87.8516 55.0938 88.4375 55.3203 89.0938 55.4922C89.7656 55.6641 90.4531 55.75 91.1562 55.75C91.8281 55.75 92.5156 55.6875 93.2188 55.5625C93.9375 55.4219 94.6406 55.2266 95.3281 54.9766C96.0312 54.7266 96.7109 54.4297 97.3672 54.0859C98.0234 53.7266 98.6406 53.3203 99.2188 52.8672ZM93.9922 46.8203C94.2266 46.7734 94.4297 46.6641 94.6016 46.4922C94.7734 46.3047 94.8594 46.0781 94.8594 45.8125C94.8594 45.5781 94.7734 45.3594 94.6016 45.1562C94.4297 44.9531 94.1953 44.7734 93.8984 44.6172C93.6016 44.4453 93.2578 44.3125 92.8672 44.2188C92.4766 44.125 92.0625 44.0781 91.625 44.0781C90.9844 44.0781 90.3281 44.1719 89.6562 44.3594C88.9844 44.5469 88.375 44.7969 87.8281 45.1094C87.2812 45.4062 86.8359 45.7422 86.4922 46.1172C86.1484 46.4766 85.9766 46.8359 85.9766 47.1953C85.9766 47.5547 86.1953 47.7344 86.6328 47.7344C86.8984 47.7344 87.3281 47.7031 87.9219 47.6406C88.5156 47.5781 89.1719 47.5078 89.8906 47.4297C90.6094 47.3359 91.3359 47.2344 92.0703 47.125C92.8047 47.0156 93.4453 46.9141 93.9922 46.8203ZM106.156 59.0078C106.047 56.9297 105.867 55.0156 105.617 53.2656C105.383 51.5 105.133 49.9609 104.867 48.6484C104.617 47.3359 104.391 46.2734 104.188 45.4609C104 44.6484 103.906 44.1406 103.906 43.9375C103.906 43.6406 104.016 43.3516 104.234 43.0703C104.469 42.7891 104.758 42.5469 105.102 42.3438C105.445 42.125 105.812 41.9531 106.203 41.8281C106.609 41.7031 106.977 41.6406 107.305 41.6406C107.57 41.6406 107.797 41.6875 107.984 41.7812C108.188 41.875 108.328 42.0312 108.406 42.25C108.484 42.5156 108.555 42.7969 108.617 43.0938C108.695 43.375 108.773 43.7188 108.852 44.125C108.945 44.7031 109.07 44.9922 109.227 44.9922C109.398 44.9922 109.594 44.7344 109.812 44.2188C110.125 43.5 110.461 42.9062 110.82 42.4375C111.18 41.9688 111.562 41.6016 111.969 41.3359C112.391 41.0547 112.82 40.8594 113.258 40.75C113.711 40.6406 114.18 40.5859 114.664 40.5859C116.133 40.5859 117.375 41.1641 118.391 42.3203C119.422 43.4766 120.227 45.1484 120.805 47.3359C120.883 47.5859 120.953 47.75 121.016 47.8281C121.078 47.8906 121.148 47.9219 121.227 47.9219C121.305 47.9219 121.383 47.8906 121.461 47.8281C121.555 47.75 121.641 47.6016 121.719 47.3828C122.094 46.3672 122.531 45.5078 123.031 44.8047C123.531 44.0859 124.047 43.5078 124.578 43.0703C125.125 42.6172 125.68 42.2891 126.242 42.0859C126.805 41.8828 127.344 41.7812 127.859 41.7812C128.812 41.7812 129.672 42.1328 130.438 42.8359C131.219 43.5234 131.906 44.5938 132.5 46.0469C133.109 47.4844 133.633 49.3125 134.07 51.5312C134.523 53.7344 134.898 56.3516 135.195 59.3828C135.195 60.2266 134.938 60.8125 134.422 61.1406C133.906 61.4844 133.203 61.6562 132.312 61.6562C131.734 61.6562 131.281 61.5312 130.953 61.2812C130.625 61.0312 130.438 60.7031 130.391 60.2969C130.188 58.125 129.961 56.1953 129.711 54.5078C129.477 52.8047 129.219 51.375 128.938 50.2188C128.656 49.0469 128.344 48.1562 128 47.5469C127.672 46.9375 127.305 46.6328 126.898 46.6328C126.695 46.6328 126.438 46.7812 126.125 47.0781C125.828 47.375 125.508 47.9219 125.164 48.7188C124.82 49.5 124.461 50.5781 124.086 51.9531C123.711 53.3125 123.352 55.0547 123.008 57.1797C122.914 57.7734 122.625 58.2266 122.141 58.5391C121.672 58.8516 121.094 59.0078 120.406 59.0078C119.609 59.0078 119.055 58.8828 118.742 58.6328C118.445 58.3828 118.281 57.9609 118.25 57.3672C118.188 56.3359 118.078 55.3125 117.922 54.2969C117.781 53.2656 117.602 52.2891 117.383 51.3672C117.164 50.4297 116.922 49.5703 116.656 48.7891C116.391 47.9922 116.109 47.3047 115.812 46.7266C115.516 46.1328 115.211 45.6719 114.898 45.3438C114.586 45.0156 114.281 44.8516 113.984 44.8516C113.594 44.8516 113.211 45.125 112.836 45.6719C112.477 46.2188 112.148 46.9922 111.852 47.9922C111.57 48.9922 111.344 50.1953 111.172 51.6016C111 53.0078 110.914 54.5781 110.914 56.3125C110.914 56.6094 110.922 56.9062 110.938 57.2031C110.953 57.4844 110.961 57.7812 110.961 58.0938C110.961 58.5625 110.883 58.9453 110.727 59.2422C110.586 59.5391 110.375 59.7734 110.094 59.9453C109.828 60.1172 109.516 60.2344 109.156 60.2969C108.797 60.3594 108.406 60.3906 107.984 60.3906C107.594 60.3906 107.281 60.3594 107.047 60.2969C106.812 60.25 106.633 60.1719 106.508 60.0625C106.383 59.9531 106.297 59.8047 106.25 59.6172C106.203 59.4453 106.172 59.2422 106.156 59.0078ZM158.094 52.8672C158.547 52.4766 158.992 52.2812 159.43 52.2812C159.68 52.2812 159.906 52.3438 160.109 52.4688C160.312 52.5938 160.539 52.7891 160.789 53.0547C161.023 53.4141 161.188 53.7109 161.281 53.9453C161.391 54.1641 161.445 54.3828 161.445 54.6016C161.445 55.0703 161.211 55.5156 160.742 55.9375C159.992 56.5625 159.18 57.125 158.305 57.625C157.43 58.1094 156.516 58.5234 155.562 58.8672C154.609 59.2109 153.625 59.4688 152.609 59.6406C151.594 59.8281 150.586 59.9219 149.586 59.9219C148.32 59.9219 147.133 59.7578 146.023 59.4297C144.914 59.1172 143.922 58.6641 143.047 58.0703C142.188 57.4766 141.461 56.7656 140.867 55.9375C140.273 55.0938 139.852 54.1484 139.602 53.1016C139.461 52.6641 139.328 52.3828 139.203 52.2578C139.094 52.1172 138.906 52.0469 138.641 52.0469C138.062 52.0469 137.617 51.9062 137.305 51.625C136.992 51.3438 136.836 50.9375 136.836 50.4062C136.836 50.1875 136.852 50.0469 136.883 49.9844L136.93 49.5156C137.008 48.9531 137.156 48.5469 137.375 48.2969C137.609 48.0469 137.969 47.9219 138.453 47.9219H138.805C139.461 47.9219 139.922 47.6172 140.188 47.0078C140.672 45.9297 141.289 44.9453 142.039 44.0547C142.789 43.1641 143.633 42.4062 144.57 41.7812C145.508 41.1406 146.508 40.6484 147.57 40.3047C148.648 39.9453 149.742 39.7656 150.852 39.7656C152.008 39.7656 153.086 39.9375 154.086 40.2812C155.102 40.6094 155.984 41.0703 156.734 41.6641C157.484 42.2578 158.07 42.9531 158.492 43.75C158.93 44.5469 159.148 45.4062 159.148 46.3281C159.148 46.9688 159.023 47.5547 158.773 48.0859C158.523 48.6172 158.164 49.0859 157.695 49.4922C157.227 49.8828 156.656 50.2031 155.984 50.4531C155.328 50.7031 154.578 50.8672 153.734 50.9453L145.602 51.7656C145.289 51.7656 145.031 51.8438 144.828 52C144.641 52.1562 144.547 52.3672 144.547 52.6328C144.547 53.0391 144.695 53.4297 144.992 53.8047C145.305 54.1797 145.711 54.5156 146.211 54.8125C146.727 55.0938 147.312 55.3203 147.969 55.4922C148.641 55.6641 149.328 55.75 150.031 55.75C150.703 55.75 151.391 55.6875 152.094 55.5625C152.812 55.4219 153.516 55.2266 154.203 54.9766C154.906 54.7266 155.586 54.4297 156.242 54.0859C156.898 53.7266 157.516 53.3203 158.094 52.8672ZM152.867 46.8203C153.102 46.7734 153.305 46.6641 153.477 46.4922C153.648 46.3047 153.734 46.0781 153.734 45.8125C153.734 45.5781 153.648 45.3594 153.477 45.1562C153.305 44.9531 153.07 44.7734 152.773 44.6172C152.477 44.4453 152.133 44.3125 151.742 44.2188C151.352 44.125 150.938 44.0781 150.5 44.0781C149.859 44.0781 149.203 44.1719 148.531 44.3594C147.859 44.5469 147.25 44.7969 146.703 45.1094C146.156 45.4062 145.711 45.7422 145.367 46.1172C145.023 46.4766 144.852 46.8359 144.852 47.1953C144.852 47.5547 145.07 47.7344 145.508 47.7344C145.773 47.7344 146.203 47.7031 146.797 47.6406C147.391 47.5781 148.047 47.5078 148.766 47.4297C149.484 47.3359 150.211 47.2344 150.945 47.125C151.68 47.0156 152.32 46.9141 152.867 46.8203ZM175.648 40.4688C175.07 40.4688 174.562 40.625 174.125 40.9375C173.688 41.2344 173.312 41.6562 173 42.2031C172.688 42.7344 172.43 43.3672 172.227 44.1016C172.023 44.8203 171.859 45.6094 171.734 46.4688C171.609 47.3281 171.523 48.2266 171.477 49.1641C171.43 50.1016 171.406 51.0469 171.406 52C171.406 53.25 171.453 54.4844 171.547 55.7031C171.656 56.9062 171.711 58.0234 171.711 59.0547C171.711 59.7266 171.461 60.25 170.961 60.625C170.461 61.0156 169.75 61.2109 168.828 61.2109C168.656 61.2109 168.461 61.1953 168.242 61.1641C168.023 61.1328 167.812 61.0703 167.609 60.9766C167.422 60.8828 167.25 60.75 167.094 60.5781C166.953 60.4219 166.875 60.2031 166.859 59.9219C166.719 58.5469 166.516 57.1406 166.25 55.7031C165.984 54.2656 165.648 52.8359 165.242 51.4141C164.852 49.9766 164.375 48.5547 163.812 47.1484C163.266 45.7422 162.633 44.3672 161.914 43.0234C161.789 42.7891 161.68 42.5703 161.586 42.3672C161.508 42.1641 161.469 41.9688 161.469 41.7812C161.469 41.5469 161.57 41.2969 161.773 41.0312C161.992 40.75 162.258 40.4922 162.57 40.2578C162.898 40.0234 163.25 39.8359 163.625 39.6953C164.016 39.5391 164.391 39.4609 164.75 39.4609C165.344 39.4609 165.867 39.875 166.32 40.7031C166.773 41.5156 167.195 42.8203 167.586 44.6172C167.664 44.9297 167.727 45.1484 167.773 45.2734C167.82 45.3984 167.883 45.4609 167.961 45.4609C168.133 45.4609 168.242 45.1953 168.289 44.6641C168.477 43.1797 168.797 41.9062 169.25 40.8438C169.703 39.7656 170.266 38.8828 170.938 38.1953C171.625 37.4922 172.406 36.9766 173.281 36.6484C174.172 36.3203 175.148 36.1562 176.211 36.1562C176.82 36.1562 177.438 36.2109 178.062 36.3203C178.688 36.4297 179.25 36.5938 179.75 36.8125C180.25 37.0312 180.656 37.2969 180.969 37.6094C181.281 37.9219 181.438 38.2734 181.438 38.6641C181.438 38.9453 181.375 39.2812 181.25 39.6719C181.141 40.0469 180.992 40.4141 180.805 40.7734C180.617 41.1172 180.398 41.4141 180.148 41.6641C179.914 41.8984 179.672 42.0156 179.422 42.0156C179.141 42.0156 178.867 41.9375 178.602 41.7812C178.336 41.6094 178.047 41.4297 177.734 41.2422C177.438 41.0547 177.117 40.8828 176.773 40.7266C176.445 40.5547 176.07 40.4688 175.648 40.4688ZM180.266 50.2188C180.266 49.9531 180.297 49.6562 180.359 49.3281C180.422 49 180.453 48.6406 180.453 48.25C180.453 47.9844 180.336 47.7812 180.102 47.6406C179.883 47.5 179.633 47.3438 179.352 47.1719C179.07 47 178.812 46.7812 178.578 46.5156C178.359 46.25 178.25 45.8672 178.25 45.3672C178.25 45.0078 178.344 44.6484 178.531 44.2891C178.734 43.9297 179.023 43.6016 179.398 43.3047C180.32 42.6172 181.273 42 182.258 41.4531C183.258 40.9062 184.25 40.4453 185.234 40.0703C186.234 39.6953 187.219 39.4062 188.188 39.2031C189.156 39 190.086 38.8984 190.977 38.8984C192.477 38.8984 193.883 39.1797 195.195 39.7422C196.523 40.2891 197.672 41.0469 198.641 42.0156C199.625 42.9688 200.398 44.0938 200.961 45.3906C201.539 46.6719 201.828 48.0469 201.828 49.5156C201.828 50.9531 201.523 52.3203 200.914 53.6172C200.32 54.8984 199.516 56.0234 198.5 56.9922C197.484 57.9609 196.289 58.7266 194.914 59.2891C193.555 59.8672 192.117 60.1562 190.602 60.1562C189.117 60.1562 187.742 59.9062 186.477 59.4062C185.211 58.9062 184.117 58.2188 183.195 57.3438C182.273 56.4531 181.555 55.4062 181.039 54.2031C180.523 52.9844 180.266 51.6562 180.266 50.2188ZM191.117 55.9375C191.773 55.9375 192.453 55.8047 193.156 55.5391C193.859 55.2734 194.5 54.8906 195.078 54.3906C195.672 53.875 196.156 53.25 196.531 52.5156C196.922 51.7812 197.117 50.9531 197.117 50.0312C197.117 49.0938 196.945 48.2188 196.602 47.4062C196.258 46.5938 195.781 45.8906 195.172 45.2969C194.578 44.6875 193.867 44.2109 193.039 43.8672C192.227 43.5234 191.344 43.3516 190.391 43.3516C188.656 43.3516 187.328 43.8047 186.406 44.7109C185.484 45.6016 185.023 46.9766 185.023 48.8359C185.023 49.8516 185.172 50.7969 185.469 51.6719C185.781 52.5312 186.211 53.2812 186.758 53.9219C187.305 54.5469 187.945 55.0391 188.68 55.3984C189.43 55.7578 190.242 55.9375 191.117 55.9375ZM210.734 37.6562C211.781 37.6562 212.859 37.7969 213.969 38.0781C215.078 38.3438 216.094 38.6953 217.016 39.1328C217.938 39.5547 218.695 40.0312 219.289 40.5625C219.883 41.0938 220.18 41.6094 220.18 42.1094C220.18 42.3594 220.07 42.6406 219.852 42.9531C219.633 43.25 219.367 43.5391 219.055 43.8203C218.742 44.0859 218.398 44.3125 218.023 44.5C217.664 44.6719 217.344 44.7578 217.062 44.7578C216.688 44.7578 216.266 44.6016 215.797 44.2891C215.344 43.9766 214.836 43.6328 214.273 43.2578C213.727 42.8672 213.125 42.5156 212.469 42.2031C211.812 41.8906 211.102 41.7344 210.336 41.7344C209.836 41.7344 209.422 41.8594 209.094 42.1094C208.781 42.3438 208.625 42.6797 208.625 43.1172C208.625 43.5078 208.812 43.9062 209.188 44.3125C209.562 44.7031 210.055 45.1094 210.664 45.5312C211.289 45.9531 211.992 46.3984 212.773 46.8672C213.555 47.3359 214.352 47.8359 215.164 48.3672C215.992 48.8984 216.797 49.4766 217.578 50.1016C218.359 50.7266 219.055 51.4062 219.664 52.1406C220.289 52.875 220.789 53.6797 221.164 54.5547C221.539 55.4141 221.727 56.3516 221.727 57.3672C221.727 58.2422 221.57 59.0391 221.258 59.7578C220.945 60.4766 220.5 61.0938 219.922 61.6094C219.344 62.125 218.656 62.5234 217.859 62.8047C217.062 63.0859 216.188 63.2266 215.234 63.2266C214.031 63.2266 212.922 63.0391 211.906 62.6641C210.891 62.3047 210.016 61.8047 209.281 61.1641C208.547 60.5234 207.969 59.7578 207.547 58.8672C207.141 57.9766 206.938 57 206.938 55.9375C206.938 54.5625 207.18 53.5625 207.664 52.9375C208.164 52.3125 208.945 52 210.008 52C210.664 52 211.188 52.125 211.578 52.375C211.969 52.625 212.164 52.9297 212.164 53.2891C212.164 53.4766 212.133 53.6719 212.07 53.875C212.008 54.0625 211.938 54.2656 211.859 54.4844C211.797 54.6875 211.734 54.9062 211.672 55.1406C211.625 55.375 211.602 55.6094 211.602 55.8438C211.602 56.25 211.695 56.6406 211.883 57.0156C212.07 57.3906 212.32 57.7188 212.633 58C212.961 58.2969 213.336 58.5312 213.758 58.7031C214.18 58.875 214.625 58.9609 215.094 58.9609C216.344 58.9609 216.969 58.4453 216.969 57.4141C216.969 56.6016 216.648 55.8359 216.008 55.1172C215.367 54.3828 214.562 53.6719 213.594 52.9844C212.625 52.2812 211.578 51.5781 210.453 50.875C209.344 50.1719 208.305 49.4375 207.336 48.6719C206.367 47.9062 205.562 47.0938 204.922 46.2344C204.281 45.3594 203.961 44.4141 203.961 43.3984C203.961 42.5547 204.133 41.7812 204.477 41.0781C204.836 40.375 205.32 39.7734 205.93 39.2734C206.539 38.7578 207.25 38.3594 208.062 38.0781C208.891 37.7969 209.781 37.6562 210.734 37.6562ZM221.914 35.4297C221.914 33.7422 223.008 32.8984 225.195 32.8984C225.57 32.8984 225.898 33 226.18 33.2031C226.461 33.4062 226.625 33.6875 226.672 34.0469C226.812 35 226.938 35.9453 227.047 36.8828C227.156 37.8203 227.258 38.875 227.352 40.0469C227.461 41.2031 227.562 42.5469 227.656 44.0781C227.766 45.5938 227.883 47.4062 228.008 49.5156C228.008 49.7344 228.039 49.8906 228.102 49.9844C228.18 50.0781 228.266 50.125 228.359 50.125C228.5 50.125 228.641 49.9844 228.781 49.7031C229.312 48.5312 229.906 47.4844 230.562 46.5625C231.219 45.625 231.922 44.8359 232.672 44.1953C233.422 43.5391 234.211 43.0469 235.039 42.7188C235.883 42.375 236.742 42.2031 237.617 42.2031C238.773 42.2031 239.82 42.5312 240.758 43.1875C241.695 43.8438 242.492 44.7734 243.148 45.9766C243.805 47.1797 244.312 48.6406 244.672 50.3594C245.031 52.0625 245.211 53.9688 245.211 56.0781C245.211 56.6562 245.164 57.1328 245.07 57.5078C244.992 57.8672 244.852 58.1562 244.648 58.375C244.445 58.5938 244.164 58.7422 243.805 58.8203C243.445 58.9141 243 58.9609 242.469 58.9609C241.734 58.9609 241.203 58.8203 240.875 58.5391C240.562 58.2578 240.406 57.8203 240.406 57.2266C240.406 55.7578 240.305 54.375 240.102 53.0781C239.914 51.7656 239.648 50.6172 239.305 49.6328C238.961 48.6484 238.555 47.8672 238.086 47.2891C237.633 46.7109 237.141 46.4219 236.609 46.4219C235.406 46.4219 234.203 47.3984 233 49.3516C231.812 51.3047 230.57 54.25 229.273 58.1875C229.148 58.5469 229.008 58.8438 228.852 59.0781C228.695 59.3125 228.508 59.5 228.289 59.6406C228.086 59.7812 227.836 59.875 227.539 59.9219C227.242 59.9844 226.891 60.0156 226.484 60.0156C225.656 60.0156 225.062 59.8594 224.703 59.5469C224.359 59.2344 224.172 58.7188 224.141 58C224.047 55.2812 223.875 52.6875 223.625 50.2188C223.391 47.7344 223.141 45.4922 222.875 43.4922C222.625 41.4766 222.398 39.7734 222.195 38.3828C222.008 36.9766 221.914 35.9922 221.914 35.4297ZM251.867 34.0938C251.414 34.0938 250.984 34.0312 250.578 33.9062C250.188 33.7656 249.844 33.5781 249.547 33.3438C249.266 33.0938 249.039 32.8047 248.867 32.4766C248.695 32.1484 248.609 31.7891 248.609 31.3984C248.609 30.7422 248.867 30.2109 249.383 29.8047C249.914 29.3984 250.617 29.1953 251.492 29.1953C251.898 29.1953 252.289 29.2734 252.664 29.4297C253.039 29.5703 253.367 29.7656 253.648 30.0156C253.945 30.2656 254.18 30.5625 254.352 30.9062C254.523 31.2344 254.609 31.5781 254.609 31.9375C254.609 32.6094 254.359 33.1406 253.859 33.5312C253.375 33.9062 252.711 34.0938 251.867 34.0938ZM248.656 41.2422C248.656 40.6953 248.891 40.25 249.359 39.9062C249.844 39.5469 250.477 39.3672 251.258 39.3672C252.664 39.3672 253.414 39.8516 253.508 40.8203C253.57 41.4922 253.633 42.25 253.695 43.0938C253.773 43.9375 253.844 44.8359 253.906 45.7891C253.984 46.7266 254.047 47.7031 254.094 48.7188C254.156 49.7188 254.211 50.7109 254.258 51.6953C254.305 52.6641 254.344 53.6016 254.375 54.5078C254.406 55.4141 254.422 56.2422 254.422 56.9922C254.422 57.7734 254.141 58.3594 253.578 58.75C253.031 59.1406 252.227 59.3359 251.164 59.3359C250.68 59.3359 250.297 59.2188 250.016 58.9844C249.75 58.7656 249.617 58.4375 249.617 58C249.617 55.8438 249.562 53.8281 249.453 51.9531C249.359 50.0625 249.25 48.3828 249.125 46.9141C249.016 45.4453 248.906 44.2266 248.797 43.2578C248.703 42.2734 248.656 41.6016 248.656 41.2422Z" fill="black"/>
</svg>
