<svg width="104" height="115" viewBox="0 0 104 115" fill="none" xmlns="http://www.w3.org/2000/svg">
<path fill-rule="evenodd" clip-rule="evenodd" d="M51.6054 114.632C50.2075 114.632 49.0251 113.559 48.9228 112.153C48.885 111.674 48.8527 111.201 48.8204 110.73L48.5187 106.559C45.4375 63.7072 45.4375 63.7072 2.69339 63.7072C1.20395 63.7072 0 62.5119 0 61.0332C0 59.5545 1.20395 58.3592 2.69339 58.3592C45.2409 58.3592 46.1459 51.7784 52.0363 8.95635L52.9575 2.31137C53.1595 0.862041 54.4631 -0.186181 55.9552 0.0277418C57.4177 0.206902 58.4627 1.51718 58.3038 2.96918C55.395 29.3218 55.1445 43.1118 61.5682 50.2274C66.9227 56.1558 77.4808 58.3592 100.523 58.3592C102.012 58.3592 103.216 59.5545 103.216 61.0332C103.216 62.5119 102.012 63.7072 100.523 63.7072C78.4746 63.7072 64.6495 64.1752 58.6001 70.633C52.979 76.6389 52.6558 88.7683 54.191 110.345L54.2934 111.762C54.2988 111.829 54.3015 111.896 54.3015 111.96C54.3015 113.351 53.2214 114.522 51.8047 114.624C51.7374 114.629 51.6727 114.632 51.6054 114.632Z" fill="#5DD3FF"/>
</svg>
