<svg width="26" height="27" viewBox="0 0 26 27" fill="none" xmlns="http://www.w3.org/2000/svg">
<path fill-rule="evenodd" clip-rule="evenodd" d="M25.0423 26.0819C24.691 26.4438 24.1153 26.4778 23.7226 26.1489C23.6133 26.058 23.5046 25.9677 23.3981 25.878L22.44 25.0747C12.7524 16.9467 12.7524 16.9467 4.06371 25.8973C3.69079 26.2814 3.07622 26.2913 2.69035 25.9177C2.30518 25.5449 2.29524 24.9305 2.66816 24.5463C11.3231 15.6305 10.1113 14.0903 2.23516 4.06414L1.00087 2.49129C0.673345 2.07299 0.731641 1.47335 1.1562 1.13917C1.56979 0.806527 2.17453 0.868162 2.51288 1.27671C7.52565 7.31594 10.4002 10.2094 13.181 10.3202C15.4958 10.4119 18.106 8.64322 22.8108 3.79664C23.1722 3.42431 23.7619 3.40387 24.1493 3.74378C24.1611 3.75389 24.173 3.76537 24.1842 3.77618C24.57 4.14972 24.5799 4.76275 24.2063 5.14761C19.6995 9.79027 16.9726 12.7946 17.1066 15.3461C17.2313 17.7092 19.8555 20.3697 24.6621 24.4072L24.9678 24.6626C24.9866 24.6781 25.0047 24.6943 25.0215 24.7105C25.3843 25.0617 25.4183 25.6374 25.0902 26.0284C25.0747 26.0471 25.0585 26.0652 25.0423 26.0819" fill="#FF4632"/>
</svg>
