<svg width="86" height="96" viewBox="0 0 86 96" fill="none" xmlns="http://www.w3.org/2000/svg">
<path fill-rule="evenodd" clip-rule="evenodd" d="M42.9814 96.0002C41.5907 96.0002 40.4194 94.9265 40.3177 93.5181C40.2883 93.1272 40.2589 92.7389 40.2322 92.356L39.9861 88.9179C37.5097 54.1437 37.5097 54.1437 3.11524 54.1437C1.63901 54.1437 0.440918 52.9468 0.440918 51.466C0.440918 49.988 1.63901 48.7884 3.11524 48.7884C37.376 48.7884 38.1034 43.4332 42.861 8.5973L43.6098 3.13495C43.8104 1.68368 45.1101 0.647441 46.5863 0.845585C48.0385 1.02499 49.0761 2.3397 48.9157 3.79365C46.565 25.3083 46.3457 36.5517 51.459 42.2657C55.7165 47.0212 64.2262 48.7884 82.8502 48.7884C84.2809 48.7884 85.4523 49.9157 85.5218 51.3348C85.5245 51.3777 85.5245 51.4232 85.5245 51.466C85.5245 52.9468 84.3291 54.1437 82.8502 54.1437C65.0098 54.1437 53.8284 54.5185 49.0307 59.6837C44.5886 64.4686 44.3506 74.7694 45.5701 92.032L45.6503 93.1272C45.6557 93.1941 45.6584 93.261 45.6584 93.3253C45.6584 94.7177 44.5833 95.8905 43.1793 95.9922C43.1124 95.9976 43.0455 96.0002 42.9814 96.0002Z" fill="#5DD3FF"/>
</svg>
