<svg width="205" height="228" viewBox="0 0 205 228" fill="none" xmlns="http://www.w3.org/2000/svg">
<path fill-rule="evenodd" clip-rule="evenodd" d="M102.827 227.884C101.431 227.884 100.251 226.81 100.148 225.406C100.081 224.486 100.014 223.575 99.9494 222.671L99.3255 214.014C93.118 127.56 92.876 124.183 3.34945 124.183C1.86213 124.183 0.659912 122.988 0.659912 121.509C0.659912 120.034 1.86213 118.836 3.34945 118.836C92.3085 118.836 94.4709 103.113 106.464 15.84C107.061 11.5062 107.679 7.00129 108.333 2.3199C108.532 0.873514 109.855 -0.169169 111.326 0.0366939C112.787 0.215822 113.83 1.52586 113.671 2.9776C107.668 57.4645 107.235 86.0848 121.006 101.356C132.498 114.098 154.534 118.836 202.31 118.836C203.795 118.836 205 120.034 205 121.509C205 122.988 203.795 124.183 202.31 124.183C156.709 124.183 128.079 125.191 115.005 139.173C102.876 152.143 102.12 177.408 105.307 222.184L105.511 225.013C105.517 225.083 105.519 225.147 105.519 225.211C105.519 226.601 104.441 227.775 103.026 227.876C102.959 227.882 102.894 227.884 102.827 227.884Z" fill="#5DD3FF"/>
</svg>
