<svg width="36" height="41" viewBox="0 0 36 41" fill="none" xmlns="http://www.w3.org/2000/svg">
<path fill-rule="evenodd" clip-rule="evenodd" d="M18.0062 40.1332C17.5235 40.1332 17.1151 39.7635 17.0798 39.2784C17.0668 39.1133 17.0556 38.9501 17.0444 38.7878L16.9403 37.3492C15.8762 22.5713 15.8762 22.5713 1.11486 22.5713C0.600496 22.5713 0.184723 22.1591 0.184723 21.6492C0.184723 21.1392 0.600496 20.727 1.11486 20.727C15.8083 20.727 16.1208 18.4575 18.155 3.68979L18.4731 1.39818C18.5429 0.89836 18.9931 0.536867 19.5084 0.610641C20.0135 0.672427 20.3744 1.12429 20.3195 1.62503C19.3149 10.7131 19.2284 15.4687 21.4468 17.9226C23.2959 19.9671 26.9421 20.727 34.8994 20.727C35.4138 20.727 35.8296 21.1392 35.8296 21.6492C35.8296 22.1591 35.4138 22.5713 34.8994 22.5713C27.2853 22.5713 22.5109 22.7327 20.4218 24.9598C18.4806 27.031 18.369 31.214 18.8991 38.655L18.9345 39.1438C18.9364 39.1668 18.9373 39.1899 18.9373 39.212C18.9373 39.6915 18.5643 40.0954 18.075 40.1305C18.0518 40.1323 18.0295 40.1332 18.0062 40.1332" fill="#FF4632"/>
</svg>
