<svg width="35" height="39" viewBox="0 0 35 39" fill="none" xmlns="http://www.w3.org/2000/svg">
<path fill-rule="evenodd" clip-rule="evenodd" d="M17.6468 38.3777C17.0911 38.3777 16.623 37.9492 16.5824 37.3872C16.5707 37.2312 16.5589 37.0763 16.5482 36.9235L16.4499 35.5515C15.4604 21.6752 15.4604 21.6752 1.71653 21.6752C1.12664 21.6752 0.647888 21.1976 0.647888 20.6067C0.647888 20.0169 1.12664 19.5383 1.71653 19.5383C15.4069 19.5383 15.6976 17.4013 17.5987 3.5004L17.8979 1.3207C17.9781 0.74159 18.4974 0.328089 19.0873 0.407156C19.6676 0.478744 20.0822 1.00337 20.0181 1.58355C19.0788 10.1688 18.9912 14.6553 21.0344 16.9354C22.7357 18.8331 26.1361 19.5383 33.5781 19.5383C34.1499 19.5383 34.6179 19.9881 34.6457 20.5544C34.6468 20.5715 34.6468 20.5896 34.6468 20.6067C34.6468 21.1976 34.1691 21.6752 33.5781 21.6752C26.4492 21.6752 21.9812 21.8248 20.0641 23.8859C18.2891 25.7953 18.1939 29.9057 18.6812 36.7942L18.7133 37.2312C18.7154 37.2579 18.7165 37.2846 18.7165 37.3103C18.7165 37.8659 18.2869 38.3339 17.7259 38.3745C17.6992 38.3766 17.6724 38.3777 17.6468 38.3777Z" fill="#FF4632"/>
</svg>
