<svg width="89" height="123" viewBox="0 0 89 123" fill="none" xmlns="http://www.w3.org/2000/svg">
<path d="M9.93548 0L77 5.42253V77L0 72.662L9.93548 0Z" fill="#F573A0"/>
<path fill-rule="evenodd" clip-rule="evenodd" d="M53.9033 55.8876C53.7618 56.1417 53.5507 56.3589 53.2749 56.5104C52.4893 56.9403 51.4912 56.6527 51.0478 55.8677C47.773 50.0739 45.1955 44.4909 45.4107 35.6659C45.3431 35.7873 45.2777 35.908 45.2101 36.0294C40.6875 44.1518 34.9675 47.9717 26.9299 48.8166C26.0335 48.9093 25.2211 48.2646 25.1148 47.3732C25.0092 46.4841 25.648 45.6841 26.5452 45.59C35.6385 44.6358 42.4367 39.8572 48.2361 19.0074C48.2377 19.0045 48.2378 19.0009 48.2386 18.9995C48.4818 18.1345 49.3766 17.6434 50.2467 17.8912C51.1169 18.139 51.6283 19.0377 51.3896 19.8978C51.3871 19.9057 51.3854 19.9121 51.3829 19.92C46.2049 38.5583 49.1578 45.9315 53.8944 54.3089C54.1829 54.8191 54.1666 55.4147 53.9033 55.8876" fill="black"/>
<path d="M53.9033 55.8876C53.7618 56.1417 53.5507 56.3589 53.2749 56.5104C52.4893 56.9403 51.4912 56.6527 51.0478 55.8677C47.773 50.0739 45.1955 44.4909 45.4107 35.6659C45.3431 35.7873 45.2777 35.908 45.2101 36.0294C40.6875 44.1518 34.9675 47.9717 26.9299 48.8166C26.0335 48.9093 25.2211 48.2646 25.1148 47.3732C25.0092 46.4841 25.648 45.6841 26.5452 45.59C35.6385 44.6358 42.4367 39.8572 48.2361 19.0074C48.2377 19.0045 48.2378 19.0009 48.2386 18.9995C48.4818 18.1345 49.3766 17.6434 50.2467 17.8912C51.1169 18.139 51.6283 19.0377 51.3896 19.8978C51.3871 19.9057 51.3854 19.9121 51.3829 19.92C46.2049 38.5583 49.1578 45.9315 53.8944 54.3089C54.1829 54.8191 54.1666 55.4147 53.9033 55.8876" stroke="black"/>
<path fill-rule="evenodd" clip-rule="evenodd" d="M51.5699 120.923C51.353 121.312 50.9862 121.614 50.5256 121.731C49.6495 121.955 48.7727 121.423 48.5665 120.54C47.9141 117.742 32.7225 51.8056 43.8394 31.8402C44.3472 31.0382 45.2884 30.7145 46.0796 31.1569C46.8609 31.5938 47.1316 32.5942 46.6874 33.3919C46.6854 33.4022 46.677 33.4107 46.6713 33.4209C36.1848 52.2542 51.5836 119.055 51.7397 119.728C51.8378 120.148 51.7657 120.571 51.5699 120.923" fill="black"/>
<path d="M51.5699 120.923C51.353 121.312 50.9862 121.614 50.5256 121.731C49.6495 121.955 48.7727 121.423 48.5665 120.54C47.9141 117.742 32.7225 51.8056 43.8394 31.8402C44.3472 31.0382 45.2884 30.7145 46.0796 31.1569C46.8609 31.5938 47.1316 32.5942 46.6874 33.3919C46.6854 33.4022 46.677 33.4107 46.6713 33.4209C36.1848 52.2542 51.5836 119.055 51.7397 119.728C51.8378 120.148 51.7657 120.571 51.5699 120.923" stroke="black"/>
</svg>
