<svg width="260" height="161" viewBox="0 0 260 161" fill="none" xmlns="http://www.w3.org/2000/svg">
<path fill-rule="evenodd" clip-rule="evenodd" d="M215.738 45.4878C215.644 45.5071 215.548 45.5192 215.449 45.5227C214.432 45.57 213.568 44.7859 213.522 43.7674C213.112 34.9159 202.911 20.7034 193.523 11.8243C192.781 11.1241 192.75 9.95766 193.45 9.21888C194.154 8.47718 195.321 8.44597 196.057 9.14551C206.221 18.7554 216.748 33.6726 217.206 43.5969C217.249 44.514 216.61 45.3082 215.738 45.4878ZM43.4438 70.3952C57.9835 51.7706 86.3402 35.1403 118.499 28.5228C136.872 24.7421 156.487 24.2305 175.468 28.4849C176.475 28.7121 177.457 28.0794 177.68 27.0853C177.731 26.8651 177.737 26.6466 177.711 26.4367C192.744 32.3554 202.976 46.7949 202.207 62.7786C201.002 87.8604 173.27 115.32 99.2913 117.884C99.9919 115.779 100.466 113.784 100.63 111.987C100.721 110.97 99.9677 110.072 98.9434 109.983C97.9097 109.903 97.0132 110.648 96.9198 111.663C96.7457 113.573 96.1733 115.725 95.3303 117.995C91.9848 118.064 88.7598 118.057 85.6598 117.973C85.0592 116.567 84.4142 115.197 83.7828 113.856L83.7751 113.84C82.6963 111.554 81.6816 109.395 80.9696 107.257C80.648 106.285 79.5756 105.759 78.6198 106.086C77.642 106.408 77.1102 107.455 77.4329 108.422C78.2133 110.773 79.3245 113.133 80.4007 115.415L80.4019 115.418C80.7796 116.22 81.1552 117.017 81.5183 117.814C57.3593 116.589 41.5127 110.46 36.2921 100.112C32.23 92.0605 34.7689 81.5078 43.4438 70.3952ZM83.1069 121.604C49.6834 120.308 37.3345 110.402 32.9859 101.78C28.2414 92.3787 30.9173 80.4246 40.5233 68.1212C62.6139 39.8223 115.578 15.9655 166.334 23.0693C166.107 22.7176 165.996 22.2871 166.049 21.8398C166.175 20.8259 167.104 20.1097 168.113 20.2251C190.327 22.9187 206.929 41.6898 205.908 62.9539C204.878 84.405 186.182 107.476 139.301 117.125C127.371 119.579 113.616 121.165 97.8617 121.633C92.6509 133.892 81.8864 147.944 79.8202 148.487L79.8157 148.488C79.7849 148.496 79.7556 148.504 79.7243 148.51C78.9909 148.661 78.1962 148.357 77.7716 147.744C76.9 146.494 77.5198 145.541 80.2767 141.704C85.9047 133.884 85.3403 127.636 83.1069 121.604ZM87.0835 121.715C88.0868 124.795 88.6774 128.061 88.3266 131.578C90.3009 128.424 92.2295 125.025 93.7627 121.725C91.4536 121.756 89.2282 121.752 87.0835 121.715ZM226.531 36.8741C226.618 36.8677 226.704 36.8557 226.786 36.8387C227.69 36.6527 228.342 35.8287 228.281 34.8891C227.848 28.3206 220.453 11.6793 211.475 6.17555C210.593 5.64051 209.44 5.91187 208.892 6.78484C208.346 7.65926 208.617 8.80844 209.498 9.3475C217.531 14.2703 224.199 29.9895 224.538 35.1425C224.607 36.1678 225.498 36.9442 226.531 36.8741Z" fill="#CDF564"/>
<path d="M58.3317 77.1049C58.4016 77.4016 58.5384 77.6617 58.7424 77.8851C58.9501 78.1024 59.1953 78.2796 59.478 78.4166C59.7596 78.5486 60.0665 78.633 60.3987 78.6697C60.7298 78.7014 61.056 78.6794 61.3775 78.6038C61.4764 78.5805 61.576 78.5492 61.6764 78.51C61.7756 78.4657 61.862 78.4115 61.9356 78.3472C62.0092 78.2829 62.065 78.2097 62.1031 78.1277C62.1401 78.0407 62.1458 77.9428 62.1202 77.834C62.0713 77.6263 61.9488 77.4386 61.7527 77.2707C61.5616 77.1017 61.3241 76.9462 61.0402 76.8043C60.7551 76.6574 60.436 76.5211 60.0828 76.3954C59.7285 76.2648 59.3698 76.1378 59.0068 76.0145C58.6437 75.8911 58.2856 75.7666 57.9325 75.6409C57.5782 75.5103 57.259 75.374 56.9751 75.2321C56.69 75.0852 56.4495 74.9278 56.2534 74.7599C56.0611 74.586 55.9405 74.3951 55.8917 74.1874C55.8451 73.9896 55.8515 73.795 55.9109 73.6036C55.974 73.4061 56.0733 73.2183 56.2089 73.0403C56.3445 72.8622 56.5107 72.6926 56.7076 72.5315C56.9046 72.3703 57.1155 72.2242 57.3404 72.093C57.5652 71.9618 57.7947 71.8503 58.0289 71.7587C58.2669 71.661 58.4971 71.5859 58.7197 71.5336C58.8829 71.4952 59.0621 71.4582 59.2573 71.4227C59.4562 71.3811 59.6444 71.3603 59.8219 71.3603C60.0031 71.3542 60.1593 71.3749 60.2905 71.4223C60.4217 71.4697 60.5036 71.5626 60.5362 71.7011C60.5467 71.7456 60.5526 71.8042 60.5541 71.877C60.5544 71.9447 60.5379 72.0634 60.5048 72.233C60.4693 72.3927 60.4133 72.5207 60.3368 72.617C60.2641 72.7072 60.156 72.7692 60.0126 72.8029C59.8098 72.8506 59.5895 72.879 59.3515 72.888C59.1173 72.8909 58.8865 72.9191 58.659 72.9726C58.5354 73.0017 58.411 73.0388 58.2859 73.0839C58.1646 73.1229 58.0561 73.1719 57.9604 73.231C57.8635 73.2851 57.7905 73.3518 57.7414 73.4312C57.691 73.5057 57.6769 73.5899 57.699 73.6839C57.7211 73.7779 57.8129 73.8685 57.9744 73.9557C58.1408 74.0419 58.3521 74.1304 58.6084 74.2215C58.8696 74.3114 59.164 74.4091 59.4916 74.5147C59.818 74.6154 60.1528 74.7297 60.4961 74.8577C60.8431 74.9796 61.1862 75.118 61.5254 75.2731C61.8634 75.4232 62.1728 75.5957 62.4535 75.7906C62.738 75.9794 62.979 76.1941 63.1766 76.4347C63.379 76.6741 63.5146 76.9397 63.5832 77.2314C63.667 77.5875 63.6593 77.9207 63.5601 78.2311C63.4609 78.5415 63.3043 78.8185 63.0902 79.0619C62.8761 79.3054 62.6237 79.5083 62.3331 79.6707C62.0436 79.8379 61.7506 79.9565 61.4538 80.0263C61.1522 80.0973 60.8368 80.1323 60.5078 80.1314C60.1849 80.1343 59.8644 80.1028 59.5461 80.0368C59.229 79.9757 58.9229 79.8833 58.6276 79.7597C58.3361 79.6299 58.0721 79.4728 57.8356 79.2884C57.5979 79.099 57.3933 78.8836 57.2217 78.6422C57.055 78.3996 56.9373 78.1324 56.8687 77.8406C56.8396 77.717 56.8179 77.5916 56.8036 77.4645C56.7932 77.3312 56.7991 77.2124 56.8215 77.108C56.8428 76.9986 56.886 76.9049 56.9511 76.8269C57.0151 76.744 57.1089 76.688 57.2326 76.6589C57.2721 76.6496 57.3178 76.6441 57.3696 76.6424C57.4202 76.6357 57.512 76.6376 57.6449 76.648C57.7988 76.6588 57.9418 76.7008 58.0739 76.7741C58.2097 76.8413 58.2957 76.9516 58.3317 77.1049ZM63.2848 70.1071C63.2231 69.845 63.2542 69.6446 63.3782 69.5058C63.5009 69.3621 63.7329 69.2501 64.0742 69.1698C64.1978 69.1408 64.3045 69.1287 64.3944 69.1336C64.4881 69.1325 64.5716 69.1546 64.6449 69.2C64.7232 69.2442 64.7912 69.3117 64.8491 69.4024C64.9108 69.4871 64.9714 69.6007 65.0311 69.7432C65.1986 70.1892 65.3746 70.6488 65.5591 71.1221C65.7484 71.5942 65.9409 72.0682 66.1363 72.5442C66.2184 72.7597 66.3608 72.8436 66.5635 72.7959C66.6179 72.7831 66.7058 72.7572 66.8271 72.7183C66.9522 72.6732 67.0995 72.6228 67.2691 72.5673C67.4376 72.5068 67.6183 72.4434 67.8115 72.377C68.0096 72.3095 68.2058 72.2451 68.4001 72.1837C68.5982 72.1162 68.7852 72.0566 68.9609 72.0048C69.1403 71.9469 69.2993 71.9017 69.4378 71.8691C69.5466 71.8435 69.6384 71.8454 69.7131 71.8748C69.7867 71.8992 69.849 71.942 69.8999 72.0031C69.9546 72.0581 69.9968 72.1264 70.0264 72.2082C70.0599 72.2838 70.0865 72.3637 70.1063 72.4477C70.1237 72.5219 70.1269 72.6021 70.1159 72.6882C70.1098 72.7731 70.0896 72.8535 70.0552 72.9295C70.0247 72.9993 69.9794 73.0621 69.9195 73.118C69.8596 73.1738 69.7851 73.2122 69.6961 73.2332C69.2659 73.3344 68.8342 73.4516 68.401 73.5849C67.9716 73.712 67.5446 73.849 67.1199 73.9959C66.9043 74.0779 66.8192 74.2154 66.8646 74.4083C66.8681 74.4231 66.8752 74.4423 66.886 74.4659C66.8956 74.4845 66.9021 74.5012 66.9056 74.516C67.0662 74.9323 67.2154 75.3226 67.3533 75.6868C67.4962 76.0498 67.6198 76.3756 67.7242 76.6642C67.8324 76.9467 67.9197 77.1845 67.986 77.3776C68.0561 77.5647 68.0988 77.6904 68.1139 77.7546C68.1558 77.9327 68.1734 78.0851 68.1667 78.2119C68.1612 78.3437 68.1276 78.456 68.0659 78.5488C68.0054 78.6465 67.9119 78.726 67.7853 78.7871C67.6649 78.8519 67.5058 78.9076 67.3079 78.9542C67.12 78.9984 66.9711 78.9865 66.8611 78.9184C66.7512 78.8503 66.6697 78.726 66.6168 78.5453C66.4498 77.9687 66.2649 77.3938 66.0622 76.8204C65.8582 76.2421 65.645 75.6686 65.4225 75.0999C65.3279 74.8977 65.1916 74.8176 65.0136 74.8594C64.9988 74.8629 64.982 74.8695 64.9634 74.8791C64.9448 74.8887 64.9281 74.8952 64.9132 74.8987C64.6229 75.0401 64.3499 75.1774 64.0942 75.3106C63.8385 75.4439 63.6013 75.578 63.3825 75.7129C63.2595 75.7889 63.1483 75.8489 63.0492 75.8932C62.9488 75.9324 62.8566 75.962 62.7725 75.9817C62.6588 76.0085 62.5631 75.9788 62.4854 75.8927C62.4065 75.8017 62.3491 75.6795 62.313 75.5262C62.3002 75.4718 62.2906 75.4088 62.2842 75.3372C62.2767 75.2607 62.2796 75.1844 62.293 75.1082C62.3002 75.0282 62.3241 74.9521 62.3645 74.8799C62.3988 74.804 62.4559 74.7358 62.5356 74.6753C62.7235 74.5424 62.9801 74.3907 63.3053 74.2202C63.6294 74.0448 63.9997 73.8663 64.4162 73.6848C64.5093 73.6368 64.5767 73.5792 64.6183 73.512C64.6637 73.4387 64.673 73.3452 64.6462 73.2314C64.6404 73.2067 64.6346 73.182 64.6288 73.1572C64.6218 73.1276 64.6098 73.0991 64.593 73.0717C64.4068 72.6354 64.233 72.2405 64.0715 71.887C63.9139 71.5275 63.7764 71.2206 63.6592 70.9663C63.5469 70.7109 63.4579 70.51 63.3921 70.3637C63.3264 70.2174 63.2906 70.1319 63.2848 70.1071ZM73.9453 69.7986C74.2173 69.7346 74.4893 69.715 74.7613 69.7397C75.0333 69.7645 75.2832 69.8283 75.5109 69.9313C75.7387 70.0343 75.9339 70.1762 76.0965 70.3572C76.2641 70.537 76.3775 70.7529 76.4369 71.0052C76.4613 71.109 76.4604 71.2162 76.4343 71.3268C76.4119 71.4312 76.3698 71.5298 76.3082 71.6226C76.2453 71.7105 76.1672 71.7888 76.0738 71.8578C75.9842 71.9206 75.885 71.9648 75.7762 71.9904C75.7664 71.9928 75.757 71.9976 75.7483 72.0048C75.7434 72.006 75.736 72.0078 75.7261 72.0101C75.7173 72.0174 75.708 72.0222 75.6981 72.0245L75.8674 72.6109C76.0536 73.3135 76.2741 73.807 76.5289 74.0915C76.7887 74.3748 77.0645 74.4822 77.3563 74.4135C77.4601 74.3891 77.5493 74.3577 77.6238 74.3193C77.7032 74.2797 77.7746 74.2394 77.838 74.1984C77.9052 74.1513 77.9686 74.1102 78.0283 74.0753C78.0879 74.0404 78.1498 74.0154 78.2141 74.0003C78.3279 73.9735 78.4384 73.9997 78.5458 74.0788C78.6581 74.1568 78.7305 74.265 78.7631 74.4035C78.7957 74.5419 78.7738 74.6932 78.6976 74.8573C78.6263 75.0202 78.5175 75.1789 78.3712 75.3333C78.2237 75.4829 78.0493 75.6178 77.848 75.7383C77.6467 75.8587 77.4348 75.9451 77.2123 75.9975C76.8265 76.0882 76.4505 76.0097 76.0843 75.7618C75.7169 75.509 75.3986 75.0881 75.1296 74.499C75.0766 74.4071 75.0254 74.367 74.976 74.3786C74.9166 74.3926 74.8717 74.4345 74.8411 74.5043C74.497 75.2376 74.0846 75.8252 73.6041 76.2671C73.1223 76.7041 72.612 76.9859 72.0729 77.1128C71.8207 77.1721 71.5845 77.1886 71.3643 77.1621C71.1441 77.1356 70.9465 77.0725 70.7717 76.9727C70.6007 76.8668 70.4529 76.7267 70.3284 76.5525C70.2077 76.3721 70.1188 76.1608 70.0618 75.9185C69.9815 75.5772 69.9713 75.2013 70.0312 74.7905C70.0961 74.3786 70.2141 73.9594 70.3851 73.5329C70.5562 73.1065 70.7708 72.688 71.0292 72.2776C71.2924 71.8659 71.5798 71.4904 71.8914 71.1509C72.2079 70.8103 72.5416 70.5204 72.8924 70.2812C73.2432 70.0421 73.5942 69.8813 73.9453 69.7986ZM74.3044 72.4229C74.3539 72.2338 74.407 72.0934 74.4637 72.0018C74.5193 71.9052 74.6134 71.8283 74.746 71.771C74.8513 71.7305 74.8976 71.6831 74.8848 71.6287C74.8755 71.5891 74.8507 71.5506 74.8106 71.5131C74.6864 71.4066 74.5613 71.3186 74.4353 71.2491C74.3082 71.1746 74.1581 71.1577 73.985 71.1985C73.7971 71.2427 73.5997 71.3465 73.3929 71.51C73.1861 71.6735 72.983 71.8752 72.7837 72.1152C72.5883 72.3491 72.4016 72.6096 72.2239 72.8967C72.0499 73.1778 71.9025 73.4604 71.7814 73.7446C71.6604 74.0288 71.5734 74.3024 71.5205 74.5654C71.4676 74.8283 71.4632 75.0538 71.5074 75.2417C71.547 75.4098 71.6223 75.5304 71.7334 75.6034C71.8495 75.6753 71.9867 75.6926 72.1449 75.6554C72.5504 75.5599 72.9424 75.2407 73.3209 74.6976C73.6993 74.1545 74.0272 73.3962 74.3044 72.4229ZM82.3944 74.8643C82.0977 74.9341 81.7841 74.9322 81.4536 74.8586C81.122 74.7801 80.7905 74.6467 80.4592 74.4585C80.1278 74.2702 79.8058 74.0329 79.4931 73.7463C79.1792 73.4548 78.8892 73.1317 78.623 72.7768C78.3557 72.4169 78.1213 72.031 77.92 71.6191C77.7187 71.2072 77.5669 70.7836 77.4645 70.3485C77.3854 70.0122 77.3982 69.756 77.5029 69.58C77.6065 69.3991 77.814 69.272 78.1256 69.1987C78.5162 69.1067 78.7717 69.2163 78.8918 69.5272C79.1414 70.1888 79.4099 70.7754 79.6973 71.287C79.9847 71.7987 80.2801 72.2224 80.5835 72.5581C80.8919 72.8927 81.2016 73.133 81.5125 73.279C81.8284 73.4239 82.1348 73.4614 82.4315 73.3916C82.6441 73.3415 82.8322 73.2425 82.9957 73.0944C83.158 72.9414 83.2857 72.7522 83.3788 72.5267C83.4108 72.4409 83.4261 72.3616 83.4246 72.2889C83.4281 72.215 83.4243 72.1324 83.4133 72.0411C83.3554 71.6841 83.3017 71.334 83.2523 70.9908C83.2066 70.6414 83.1585 70.2926 83.1078 69.9444C83.0828 69.7937 83.0741 69.6679 83.0817 69.567C83.0892 69.466 83.1163 69.3814 83.1628 69.313C83.2094 69.2446 83.2773 69.1895 83.3666 69.1476C83.4608 69.1046 83.5822 69.0656 83.7305 69.0307C83.8987 68.9911 84.0479 68.9821 84.1782 69.0036C84.3074 69.0202 84.4218 69.0742 84.5216 69.1655C84.6202 69.2519 84.7047 69.3782 84.7751 69.5443C84.8493 69.7043 84.9161 69.9104 84.9754 70.1626C85.0266 70.3802 85.0541 70.5746 85.0579 70.746C85.0655 70.9112 85.0639 71.0708 85.0531 71.2247C85.0461 71.3724 85.0391 71.5202 85.0321 71.668C85.0289 71.8097 85.0416 71.9633 85.0701 72.1288C85.142 72.5451 85.2035 72.9064 85.2547 73.2127C85.3047 73.5141 85.3473 73.7728 85.3825 73.989C85.4227 74.2039 85.4558 74.3892 85.482 74.5449C85.5131 74.6993 85.5402 74.8365 85.5632 74.9563C85.5873 75.0811 85.6122 75.1979 85.6378 75.3067C85.6634 75.4155 85.6913 75.5342 85.7216 75.6628C85.7763 75.8952 85.8455 76.1451 85.9293 76.4125C86.0142 76.6847 86.0963 76.9447 86.1754 77.1922C86.2595 77.4386 86.3341 77.6559 86.3992 77.8441C86.4644 78.0323 86.5057 78.1635 86.5232 78.2377C86.5453 78.3317 86.5365 78.4277 86.497 78.5257C86.4574 78.6237 86.3957 78.7165 86.312 78.8041C86.2282 78.8917 86.1236 78.9685 85.9982 79.0345C85.874 79.1055 85.7377 79.1584 85.5894 79.1933C85.4608 79.2236 85.3465 79.2035 85.2464 79.1331C85.1524 79.0665 85.0836 78.9626 85.04 78.8216C84.9809 78.6371 84.9145 78.4101 84.8406 78.1404C84.7679 77.8757 84.6905 77.5912 84.6084 77.2869C84.5276 76.9876 84.4474 76.6802 84.368 76.3649C84.2947 76.0533 84.2236 75.7621 84.1546 75.4913C84.0869 75.2254 84.0291 74.9911 83.9814 74.7883C83.9337 74.5856 83.8994 74.4397 83.8784 74.3507C83.8575 74.2617 83.833 74.2022 83.8051 74.1722C83.776 74.1373 83.7343 74.1263 83.6799 74.1391C83.6502 74.146 83.613 74.1652 83.5682 74.1967C83.5222 74.2231 83.4717 74.2637 83.4168 74.3184C83.2681 74.463 83.11 74.5785 82.9425 74.6649C82.7749 74.7513 82.5922 74.8177 82.3944 74.8643ZM93.4695 65.2048C93.7415 65.1408 94.0134 65.1211 94.2854 65.1459C94.5574 65.1706 94.8073 65.2344 95.0351 65.3374C95.2629 65.4404 95.4581 65.5824 95.6207 65.7633C95.7882 65.9431 95.9017 66.1591 95.961 66.4113C95.9855 66.5151 95.9846 66.6223 95.9584 66.7329C95.936 66.8373 95.894 66.9359 95.8323 67.0287C95.7695 67.1166 95.6914 67.195 95.598 67.2639C95.5084 67.3267 95.4092 67.371 95.3004 67.3966C95.2905 67.3989 95.2812 67.4037 95.2725 67.411C95.2675 67.4121 95.2601 67.4139 95.2502 67.4162C95.2415 67.4235 95.2322 67.4283 95.2223 67.4306L95.3916 68.0171C95.5778 68.7196 95.7983 69.2131 96.0531 69.4976C96.3129 69.7809 96.5886 69.8883 96.8804 69.8196C96.9843 69.7952 97.0734 69.7638 97.1479 69.7254C97.2273 69.6858 97.2987 69.6455 97.3621 69.6045C97.4293 69.5574 97.4928 69.5164 97.5524 69.4815C97.612 69.4465 97.674 69.4215 97.7383 69.4064C97.852 69.3796 97.9626 69.4058 98.0699 69.4849C98.1822 69.5629 98.2546 69.6711 98.2872 69.8096C98.3198 69.9481 98.298 70.0993 98.2218 70.2634C98.1505 70.4263 98.0417 70.585 97.8954 70.7395C97.7479 70.889 97.5735 71.024 97.3722 71.1444C97.1709 71.2648 96.959 71.3512 96.7364 71.4036C96.3507 71.4943 95.9747 71.4158 95.6084 71.168C95.241 70.9152 94.9228 70.4942 94.6537 69.9051C94.6008 69.8132 94.5496 69.7731 94.5001 69.7847C94.4408 69.7987 94.3958 69.8406 94.3653 69.9104C94.0211 70.6437 93.6088 71.2314 93.1282 71.6732C92.6465 72.1102 92.1361 72.3921 91.5971 72.5189C91.3448 72.5782 91.1086 72.5947 90.8884 72.5682C90.6682 72.5417 90.4707 72.4786 90.2959 72.3788C90.1248 72.2729 89.977 72.1329 89.8525 71.9586C89.7318 71.7783 89.6429 71.5669 89.5859 71.3246C89.5056 70.9834 89.4954 70.6074 89.5554 70.1966C89.6202 69.7847 89.7382 69.3655 89.9093 68.9391C90.0803 68.5126 90.295 68.0941 90.5533 67.6837C90.8166 67.272 91.104 66.8965 91.4155 66.557C91.732 66.2164 92.0657 65.9265 92.4165 65.6874C92.7674 65.4482 93.1183 65.2874 93.4695 65.2048ZM93.8286 67.829C93.878 67.6399 93.9311 67.4995 93.9878 67.4079C94.0434 67.3113 94.1375 67.2344 94.2702 67.1771C94.3755 67.1366 94.4217 67.0892 94.4089 67.0348C94.3996 66.9953 94.3749 66.9567 94.3347 66.9192C94.2105 66.8127 94.0854 66.7247 93.9595 66.6552C93.8324 66.5807 93.6823 66.5639 93.5092 66.6046C93.3212 66.6488 93.1239 66.7526 92.917 66.9161C92.7102 67.0796 92.5072 67.2814 92.3079 67.5214C92.1124 67.7552 91.9258 68.0157 91.748 68.3029C91.5741 68.5839 91.4266 68.8665 91.3056 69.1507C91.1846 69.4349 91.0976 69.7085 91.0446 69.9715C90.9917 70.2344 90.9873 70.4599 91.0316 70.6478C91.0711 70.816 91.1465 70.9365 91.2576 71.0096C91.3736 71.0814 91.5108 71.0987 91.6691 71.0615C92.0746 70.9661 92.4666 70.6468 92.845 70.1037C93.2235 69.5606 93.5513 68.8023 93.8286 67.829ZM102.749 66.513C102.565 65.7316 102.518 65.1086 102.607 64.6441C102.696 64.1795 102.916 63.9059 103.267 63.8233C103.826 63.6918 104.219 64.1082 104.445 65.0726C104.526 65.4138 104.582 65.7399 104.613 66.0509C104.649 66.3607 104.666 66.6647 104.663 66.9628C104.663 67.0047 104.664 67.0436 104.667 67.0793C104.67 67.1151 104.675 67.1479 104.682 67.1775C104.707 67.2814 104.748 67.3682 104.806 67.438C105.201 68.0079 105.733 68.2143 106.4 68.0572C106.638 68.0014 106.848 67.8971 107.031 67.7444C107.215 67.5916 107.362 67.4082 107.473 67.1941C107.584 66.9751 107.652 66.7345 107.679 66.4724C107.711 66.2091 107.694 65.9365 107.628 65.6547C107.553 65.3382 107.455 65.0848 107.331 64.8945C107.207 64.6993 107.083 64.538 106.959 64.4106C106.834 64.2783 106.72 64.159 106.617 64.0528C106.512 63.9417 106.441 63.807 106.404 63.6487C106.387 63.5746 106.401 63.4904 106.447 63.3961C106.496 63.2957 106.562 63.1993 106.645 63.1068C106.732 63.0131 106.83 62.9301 106.938 62.8576C107.052 62.784 107.162 62.7344 107.271 62.7088C107.415 62.6751 107.574 62.7211 107.75 62.8467C107.931 62.9712 108.106 63.1493 108.275 63.3808C108.448 63.6063 108.605 63.8746 108.746 64.1859C108.892 64.496 109.004 64.8167 109.082 65.1481C109.195 65.6278 109.212 66.1012 109.135 66.5684C109.057 67.0356 108.902 67.466 108.671 67.8596C108.44 68.2531 108.142 68.5922 107.775 68.8767C107.414 69.16 107.006 69.3552 106.551 69.4623C106.165 69.553 105.805 69.5647 105.471 69.4972C105.143 69.4335 104.812 69.2607 104.48 68.9788C104.425 68.9238 104.375 68.8886 104.33 68.8732C104.284 68.8578 104.242 68.8547 104.202 68.864C104.153 68.8757 104.111 68.8985 104.078 68.9325C104.044 68.9666 104.012 69.021 103.983 69.0957C103.75 69.615 103.463 70.014 103.122 70.2926C102.785 70.5702 102.387 70.763 101.927 70.8712C101.417 70.9911 100.924 70.9584 100.448 70.7731C99.9769 70.5915 99.5377 70.2774 99.1298 69.8305C98.722 69.3837 98.3553 68.8124 98.0298 68.1165C97.7031 67.4158 97.4327 66.6104 97.2186 65.7005C97.1313 65.3296 97.074 65.0195 97.0467 64.7702C97.0182 64.5159 97.0272 64.3102 97.0737 64.1532C97.1191 63.9911 97.1997 63.8678 97.3155 63.7831C97.4301 63.6935 97.5888 63.6249 97.7915 63.5772C98.0042 63.5271 98.1674 63.5331 98.2811 63.5951C98.3986 63.6509 98.4807 63.7778 98.5272 63.9756C98.5633 64.1289 98.5892 64.3054 98.6049 64.5053C98.6194 64.7002 98.643 64.8669 98.6756 65.0054C98.8443 65.7224 99.0491 66.371 99.29 66.9511C99.5358 67.5299 99.7989 68.016 100.079 68.4093C100.365 68.8015 100.66 69.0896 100.964 69.2738C101.273 69.4567 101.578 69.5127 101.88 69.4418C102.553 69.2835 102.969 68.8229 103.129 68.0598C103.145 67.9984 103.154 67.9443 103.153 67.8975C103.151 67.8457 103.144 67.7926 103.131 67.7382C103.124 67.7086 103.117 67.6789 103.11 67.6492C103.102 67.6146 103.088 67.5787 103.069 67.5414C103 67.3593 102.939 67.186 102.884 67.0213C102.834 66.8506 102.788 66.6811 102.749 66.513ZM113.691 60.4468C113.963 60.3828 114.235 60.3632 114.507 60.3879C114.779 60.4126 115.029 60.4765 115.257 60.5795C115.484 60.6824 115.68 60.8244 115.842 61.0053C116.01 61.1851 116.123 61.4011 116.182 61.6533C116.207 61.7572 116.206 61.8644 116.18 61.9749C116.157 62.0794 116.115 62.178 116.054 62.2708C115.991 62.3586 115.913 62.437 115.819 62.506C115.73 62.5688 115.631 62.613 115.522 62.6386C115.512 62.6409 115.503 62.6457 115.494 62.653C115.489 62.6542 115.482 62.6559 115.472 62.6582C115.463 62.6655 115.454 62.6703 115.444 62.6726L115.613 63.2591C115.799 63.9616 116.02 64.4551 116.275 64.7396C116.534 65.023 116.81 65.1303 117.102 65.0617C117.206 65.0372 117.295 65.0058 117.369 64.9674C117.449 64.9279 117.52 64.8876 117.584 64.8466C117.651 64.7994 117.714 64.7584 117.774 64.7235C117.833 64.6886 117.895 64.6636 117.96 64.6485C118.073 64.6217 118.184 64.6479 118.291 64.727C118.404 64.805 118.476 64.9132 118.509 65.0516C118.541 65.1901 118.519 65.3414 118.443 65.5054C118.372 65.6684 118.263 65.827 118.117 65.9815C117.969 66.131 117.795 66.266 117.594 66.3864C117.392 66.5069 117.18 66.5933 116.958 66.6456C116.572 66.7364 116.196 66.6579 115.83 66.41C115.462 66.1572 115.144 65.7363 114.875 65.1472C114.822 65.0553 114.771 65.0151 114.722 65.0268C114.662 65.0407 114.617 65.0826 114.587 65.1524C114.243 65.8858 113.83 66.4734 113.35 66.9153C112.868 67.3522 112.358 67.6341 111.819 67.7609C111.566 67.8203 111.33 67.8367 111.11 67.8102C110.89 67.7838 110.692 67.7206 110.517 67.6209C110.346 67.515 110.198 67.3749 110.074 67.2007C109.953 67.0203 109.864 66.809 109.807 66.5666C109.727 66.2254 109.717 65.8494 109.777 65.4387C109.842 65.0268 109.96 64.6076 110.131 64.1811C110.302 63.7546 110.516 63.3362 110.775 62.9257C111.038 62.5141 111.325 62.1385 111.637 61.7991C111.953 61.4584 112.287 61.1685 112.638 60.9294C112.989 60.6903 113.34 60.5294 113.691 60.4468ZM114.05 63.071C114.099 62.8819 114.153 62.7416 114.209 62.65C114.265 62.5534 114.359 62.4764 114.492 62.4191C114.597 62.3787 114.643 62.3313 114.63 62.2769C114.621 62.2373 114.596 62.1988 114.556 62.1612C114.432 62.0548 114.307 61.9668 114.181 61.8972C114.054 61.8228 113.904 61.8059 113.731 61.8466C113.543 61.8908 113.345 61.9947 113.138 62.1582C112.932 62.3217 112.729 62.5234 112.529 62.7634C112.334 62.9973 112.147 63.2578 111.969 63.5449C111.796 63.8259 111.648 64.1085 111.527 64.3927C111.406 64.6769 111.319 64.9505 111.266 65.2135C111.213 65.4765 111.209 65.7019 111.253 65.8899C111.293 66.058 111.368 66.1786 111.479 66.2516C111.595 66.3235 111.732 66.3408 111.891 66.3035C112.296 66.2081 112.688 65.8888 113.066 65.3457C113.445 64.8026 113.773 64.0444 114.05 63.071ZM122.14 65.5124C121.843 65.5823 121.53 65.5804 121.199 65.5068C120.868 65.4282 120.536 65.2948 120.205 65.1066C119.873 64.9184 119.551 64.681 119.239 64.3945C118.925 64.103 118.635 63.7798 118.369 63.4249C118.101 63.0651 117.867 62.6792 117.666 62.2673C117.464 61.8554 117.312 61.4318 117.21 60.9966C117.131 60.6603 117.144 60.4042 117.248 60.2282C117.352 60.0473 117.56 59.9201 117.871 59.8468C118.262 59.7549 118.517 59.8644 118.637 60.1754C118.887 60.8369 119.155 61.4235 119.443 61.9352C119.73 62.4469 120.026 62.8706 120.329 63.2063C120.637 63.5408 120.947 63.7811 121.258 63.9272C121.574 64.072 121.88 64.1096 122.177 64.0397C122.39 63.9897 122.578 63.8907 122.741 63.7426C122.904 63.5896 123.031 63.4003 123.124 63.1749C123.156 63.0891 123.172 63.0098 123.17 62.9371C123.174 62.8632 123.17 62.7806 123.159 62.6892C123.101 62.3323 123.047 61.9822 122.998 61.6389C122.952 61.2896 122.904 60.9408 122.853 60.5926C122.828 60.4419 122.82 60.3161 122.827 60.2151C122.835 60.1142 122.862 60.0295 122.908 59.9612C122.955 59.8928 123.023 59.8377 123.112 59.7958C123.206 59.7527 123.328 59.7138 123.476 59.6788C123.644 59.6393 123.793 59.6303 123.924 59.6518C124.053 59.6684 124.167 59.7223 124.267 59.8137C124.366 59.9001 124.45 60.0263 124.521 60.1924C124.595 60.3524 124.662 60.5585 124.721 60.8107C124.772 61.0283 124.8 61.2228 124.803 61.3941C124.811 61.5594 124.809 61.7189 124.799 61.8728C124.792 62.0206 124.785 62.1684 124.778 62.3162C124.775 62.4578 124.787 62.6114 124.816 62.7769C124.888 63.1932 124.949 63.5545 125 63.8608C125.05 64.1622 125.093 64.421 125.128 64.6371C125.168 64.8521 125.201 65.0374 125.228 65.193C125.259 65.3475 125.286 65.4847 125.309 65.6045C125.333 65.7293 125.358 65.8461 125.383 65.9549C125.409 66.0637 125.437 66.1824 125.467 66.311C125.522 66.5434 125.591 66.7933 125.675 67.0606C125.76 67.3329 125.842 67.5928 125.921 67.8404C126.005 68.0868 126.08 68.3041 126.145 68.4923C126.21 68.6805 126.251 68.8117 126.269 68.8859C126.291 68.9798 126.282 69.0758 126.243 69.1739C126.203 69.2719 126.141 69.3647 126.058 69.4523C125.974 69.5398 125.869 69.6166 125.744 69.6827C125.62 69.7536 125.483 69.8066 125.335 69.8415C125.206 69.8717 125.092 69.8517 124.992 69.7813C124.898 69.7147 124.829 69.6108 124.786 69.4697C124.727 69.2853 124.66 69.0582 124.586 68.7886C124.513 68.5239 124.436 68.2393 124.354 67.9351C124.273 67.6357 124.193 67.3284 124.114 67.0131C124.04 66.7015 123.969 66.4103 123.9 66.1395C123.832 65.8736 123.775 65.6393 123.727 65.4365C123.679 65.2338 123.645 65.0879 123.624 64.9989C123.603 64.9098 123.579 64.8503 123.551 64.8204C123.522 64.7855 123.48 64.7744 123.425 64.7872C123.396 64.7942 123.359 64.8134 123.314 64.8448C123.268 64.8713 123.217 64.9119 123.162 64.9666C123.014 65.1111 122.856 65.2266 122.688 65.313C122.52 65.3994 122.338 65.4659 122.14 65.5124ZM128.49 59.4934C128.374 59.5103 128.265 59.4576 128.163 59.3354C128.061 59.2133 127.99 59.0681 127.951 58.9C127.932 58.8208 127.922 58.7424 127.919 58.6648C127.91 58.5833 127.914 58.5094 127.93 58.4431C127.945 58.3768 127.971 58.3211 128.008 58.276C128.043 58.2259 128.09 58.1939 128.149 58.18C128.332 58.1369 128.541 58.0825 128.776 58.0168C129.01 57.9461 129.262 57.8713 129.53 57.7925C129.665 57.7451 129.722 57.6455 129.702 57.4936C129.578 56.7661 129.495 56.1333 129.452 55.5955C129.408 55.0576 129.402 54.5972 129.432 54.2144C129.461 53.8266 129.521 53.5046 129.612 53.2483C129.708 52.9909 129.831 52.7819 129.981 52.6213C130.026 52.5689 130.081 52.5142 130.146 52.4572C130.209 52.3953 130.273 52.3567 130.338 52.3416C130.461 52.3125 130.598 52.3144 130.746 52.3473C130.899 52.374 131.043 52.4235 131.18 52.4956C131.321 52.5617 131.443 52.6478 131.546 52.754C131.649 52.8552 131.714 52.9651 131.741 53.0838C131.752 53.1283 131.751 53.1678 131.738 53.2021C131.724 53.2315 131.705 53.262 131.681 53.2937C131.522 53.4825 131.389 53.6834 131.283 53.8963C131.176 54.1093 131.102 54.3565 131.058 54.6381C131.015 54.9197 131.001 55.2492 131.017 55.6265C131.032 56.0038 131.083 56.4512 131.168 56.9687C131.187 57.0478 131.213 57.1042 131.247 57.138C131.285 57.1656 131.341 57.1707 131.415 57.1533C131.608 57.1079 131.797 57.0477 131.983 56.9726C132.174 56.8964 132.355 56.8225 132.526 56.7509C132.696 56.6744 132.857 56.6027 133.008 56.5358C133.159 56.4689 133.297 56.4209 133.42 56.3918C133.509 56.3709 133.586 56.4101 133.651 56.5096C133.72 56.603 133.773 56.7264 133.809 56.8797C133.83 56.9687 133.844 57.0619 133.851 57.1594C133.859 57.2568 133.854 57.3467 133.836 57.429C133.824 57.5102 133.8 57.5838 133.763 57.6498C133.725 57.7109 133.67 57.7551 133.599 57.7825L131.674 58.4545C131.574 58.4937 131.52 58.5509 131.511 58.6259C131.508 58.6998 131.52 58.7986 131.549 58.9222C131.807 60.0151 132.055 60.9484 132.294 61.7219C132.534 62.4954 132.748 63.1416 132.938 63.6606C133.134 64.1833 133.296 64.5916 133.422 64.8854C133.55 65.1842 133.63 65.4028 133.663 65.5413C133.687 65.6451 133.667 65.749 133.603 65.8528C133.544 65.9555 133.457 66.0516 133.342 66.1412C133.232 66.2297 133.107 66.3062 132.965 66.3708C132.825 66.4403 132.691 66.4902 132.562 66.5204C132.439 66.5495 132.322 66.5534 132.213 66.5322C132.109 66.5148 132.039 66.4583 132.001 66.3629C131.87 66.0284 131.738 65.6575 131.606 65.2502C131.475 64.8479 131.337 64.3974 131.194 63.8988C131.057 63.404 130.913 62.861 130.764 62.2699C130.613 61.6739 130.454 61.0198 130.286 60.3076C130.243 60.1247 130.201 59.9466 130.161 59.7735C130.12 59.6005 130.084 59.4262 130.053 59.2508C130.018 59.1024 129.919 59.0475 129.756 59.0859L128.49 59.4934ZM137.456 55.8416C137.273 55.8846 137.123 55.9719 137.008 56.1034C136.892 56.2299 136.805 56.3914 136.746 56.5877C136.687 56.7792 136.653 56.9986 136.643 57.2462C136.632 57.4888 136.639 57.7508 136.664 58.0321C136.688 58.3134 136.728 58.6041 136.783 58.9043C136.838 59.2046 136.901 59.5055 136.972 59.8072C137.065 60.2028 137.171 60.59 137.292 60.9687C137.416 61.3414 137.517 61.6909 137.593 62.0173C137.643 62.2299 137.603 62.4142 137.473 62.5701C137.344 62.731 137.133 62.8458 136.842 62.9144C136.787 62.9272 136.724 62.9368 136.653 62.9432C136.581 62.9496 136.51 62.9455 136.438 62.931C136.372 62.9153 136.308 62.8861 136.246 62.8433C136.189 62.8043 136.148 62.7409 136.122 62.653C135.976 62.2283 135.807 61.7984 135.615 61.3632C135.424 60.928 135.212 60.5005 134.977 60.0807C134.746 59.6549 134.49 59.2403 134.207 58.8371C133.929 58.4328 133.626 58.0447 133.299 57.6729C133.242 57.6081 133.191 57.547 133.146 57.4897C133.106 57.4312 133.079 57.3723 133.065 57.313C133.048 57.2388 133.061 57.1521 133.106 57.0529C133.154 56.9476 133.219 56.8462 133.301 56.7488C133.387 56.6501 133.484 56.5646 133.592 56.4922C133.704 56.4136 133.817 56.361 133.931 56.3342C134.119 56.29 134.316 56.3821 134.521 56.6104C134.725 56.8338 134.955 57.2154 135.213 57.755C135.261 57.8481 135.297 57.9127 135.321 57.9487C135.345 57.9848 135.369 57.9999 135.394 57.9941C135.449 57.9813 135.463 57.8891 135.439 57.7175C135.388 57.2337 135.394 56.8068 135.458 56.4368C135.521 56.0618 135.634 55.7405 135.795 55.4729C135.96 55.1991 136.169 54.9778 136.422 54.8087C136.679 54.6386 136.976 54.5139 137.312 54.4348C137.505 54.3894 137.705 54.3608 137.911 54.3488C138.117 54.3369 138.307 54.3469 138.481 54.3789C138.656 54.4109 138.804 54.4648 138.926 54.5404C139.049 54.616 139.124 54.7157 139.153 54.8393C139.174 54.9283 139.18 55.0393 139.169 55.1722C139.162 55.2991 139.143 55.4263 139.11 55.554C139.076 55.6768 139.029 55.787 138.969 55.8848C138.912 55.9764 138.844 56.0315 138.765 56.0502C138.676 56.0711 138.584 56.0667 138.488 56.0371C138.391 56.0025 138.286 55.9671 138.173 55.931C138.065 55.8938 137.951 55.8633 137.831 55.8394C137.714 55.8094 137.589 55.8102 137.456 55.8416ZM139.643 58.5836C139.623 58.4996 139.611 58.4033 139.606 58.2948C139.602 58.1863 139.585 58.0702 139.556 57.9466C139.536 57.8625 139.484 57.8069 139.399 57.7799C139.319 57.7516 139.229 57.7208 139.127 57.6874C139.025 57.6539 138.927 57.6039 138.833 57.5373C138.744 57.4695 138.681 57.3565 138.644 57.1982C138.617 57.0845 138.62 56.9637 138.652 56.836C138.69 56.7072 138.757 56.5818 138.854 56.4599C139.094 56.1737 139.35 55.9073 139.621 55.6609C139.896 55.4134 140.176 55.1936 140.46 55.0016C140.748 54.8085 141.038 54.6437 141.33 54.5072C141.621 54.3708 141.908 54.2694 142.19 54.2031C142.665 54.0914 143.131 54.0757 143.588 54.156C144.049 54.2301 144.469 54.3845 144.848 54.6189C145.23 54.8473 145.559 55.1458 145.833 55.5143C146.112 55.8768 146.306 56.2905 146.415 56.7553C146.522 57.2103 146.528 57.6657 146.431 58.1215C146.339 58.5713 146.168 58.9873 145.919 59.3695C145.669 59.7518 145.348 60.0831 144.955 60.3635C144.567 60.6477 144.134 60.8463 143.654 60.9591C143.185 61.0697 142.731 61.0929 142.293 61.0289C141.855 60.9649 141.458 60.8288 141.101 60.6205C140.743 60.4073 140.437 60.1295 140.184 59.7871C139.931 59.4398 139.75 59.0386 139.643 58.5836ZM143.503 59.5855C143.711 59.5366 143.916 59.444 144.119 59.3075C144.322 59.1711 144.496 59.0022 144.642 58.8009C144.791 58.5935 144.898 58.3596 144.962 58.0993C145.031 57.8378 145.031 57.5611 144.963 57.2693C144.893 56.9726 144.773 56.7085 144.604 56.4769C144.435 56.2454 144.231 56.0583 143.994 55.9158C143.761 55.7671 143.5 55.6692 143.213 55.6221C142.93 55.5738 142.638 55.5852 142.336 55.6561C141.787 55.7853 141.401 56.0276 141.176 56.3831C140.951 56.7336 140.907 57.2032 141.046 57.7917C141.121 58.1131 141.239 58.4012 141.398 58.6561C141.561 58.9048 141.753 59.1102 141.974 59.2722C142.193 59.4293 142.433 59.5374 142.692 59.5964C142.956 59.6543 143.226 59.6507 143.503 59.5855ZM148.754 59.3756C148.565 58.726 148.365 58.1336 148.156 57.5984C147.95 57.057 147.756 56.5885 147.575 56.1929C147.398 55.7961 147.247 55.4767 147.122 55.2346C147.002 54.9914 146.935 54.8377 146.92 54.7734C146.897 54.6795 146.911 54.5798 146.959 54.4745C147.012 54.368 147.086 54.2699 147.179 54.18C147.272 54.0851 147.375 54.0034 147.489 53.9347C147.609 53.8649 147.72 53.8178 147.824 53.7934C147.908 53.7736 147.983 53.7715 148.05 53.7873C148.121 53.8018 148.177 53.8408 148.218 53.9042C148.263 53.9825 148.306 54.0662 148.348 54.1555C148.393 54.2387 148.444 54.3417 148.499 54.4645C148.571 54.6405 148.633 54.7227 148.682 54.711C148.736 54.6982 148.779 54.6021 148.81 54.4226C148.855 54.1718 148.917 53.9589 148.996 53.7838C149.075 53.6086 149.169 53.4639 149.278 53.3496C149.39 53.2292 149.512 53.1354 149.642 53.0682C149.777 52.9998 149.922 52.9476 150.075 52.9115C150.54 52.8021 150.976 52.8926 151.383 53.1829C151.796 53.4721 152.175 53.9413 152.521 54.5906C152.564 54.6639 152.599 54.7106 152.624 54.7307C152.649 54.7458 152.673 54.7504 152.698 54.7446C152.723 54.7388 152.745 54.7231 152.765 54.6975C152.789 54.6658 152.805 54.6124 152.814 54.5374C152.857 54.188 152.931 53.8834 153.037 53.6236C153.142 53.3589 153.262 53.1375 153.398 52.9595C153.537 52.7754 153.688 52.6302 153.851 52.524C154.014 52.4178 154.177 52.3456 154.34 52.3072C154.642 52.2362 154.94 52.2835 155.235 52.449C155.533 52.6084 155.83 52.8959 156.127 53.3116C156.427 53.7212 156.728 54.2609 157.032 54.9305C157.34 55.5941 157.653 56.3945 157.973 57.3318C158.036 57.5988 157.998 57.8035 157.859 57.9457C157.721 58.0929 157.512 58.1997 157.23 58.266C157.047 58.309 156.894 58.3032 156.772 58.2485C156.649 58.1938 156.565 58.104 156.52 57.9789C156.294 57.3066 156.079 56.7127 155.874 56.1972C155.673 55.6757 155.485 55.2424 155.31 54.8974C155.133 54.5474 154.968 54.2888 154.814 54.1215C154.665 53.9531 154.526 53.884 154.397 53.9142C154.333 53.9294 154.263 53.9956 154.186 54.1128C154.114 54.2289 154.053 54.4258 154.004 54.7036C153.953 54.9765 153.92 55.3445 153.903 55.8076C153.886 56.2657 153.902 56.8439 153.951 57.5421C153.966 57.737 153.908 57.9019 153.778 58.0369C153.653 58.1707 153.482 58.2632 153.264 58.3144C153.012 58.3738 152.827 58.3755 152.71 58.3197C152.597 58.2626 152.514 58.1413 152.459 57.9557C152.363 57.634 152.252 57.3182 152.127 57.0084C152.006 56.6925 151.876 56.3968 151.738 56.1213C151.599 55.8409 151.459 55.5869 151.316 55.3594C151.173 55.127 151.033 54.9304 150.896 54.7695C150.757 54.6037 150.627 54.4805 150.503 54.3999C150.38 54.3193 150.271 54.2901 150.177 54.3122C150.054 54.3413 149.953 54.4563 149.875 54.6573C149.802 54.8572 149.756 55.1264 149.736 55.465C149.722 55.8025 149.74 56.2001 149.79 56.658C149.84 57.1159 149.93 57.6193 150.059 58.1682C150.081 58.2622 150.106 58.3556 150.133 58.4484C150.159 58.5362 150.183 58.6296 150.207 58.7285C150.242 58.8769 150.245 59.0039 150.218 59.1094C150.196 59.2139 150.146 59.3038 150.07 59.3791C149.999 59.4533 149.909 59.5137 149.799 59.5602C149.69 59.6067 149.569 59.6457 149.436 59.6771C149.312 59.7062 149.211 59.7196 149.132 59.7173C149.054 59.7199 148.992 59.7086 148.944 59.6833C148.896 59.6579 148.858 59.6174 148.829 59.5615C148.801 59.5106 148.776 59.4486 148.754 59.3756ZM163.228 51.719C163.277 51.9267 163.338 52.1395 163.41 52.3574C163.482 52.5752 163.557 52.7925 163.634 53.0093C163.716 53.2248 163.793 53.444 163.867 53.6669C163.939 53.8847 164 54.1025 164.052 54.3201C164.109 54.5624 164.071 54.78 163.939 54.9729C163.806 55.1608 163.598 55.2879 163.316 55.3542C163.178 55.3868 163.037 55.3756 162.894 55.3206C162.755 55.2645 162.657 55.1467 162.599 54.9672C162.52 54.7406 162.434 54.4868 162.342 54.2057C162.253 53.9186 162.163 53.6241 162.071 53.3221C161.983 53.0141 161.895 52.706 161.807 52.3979C161.717 52.0849 161.634 51.7862 161.557 51.5017C161.478 51.2122 161.408 50.9469 161.346 50.7058C161.283 50.4597 161.231 50.2525 161.192 50.0844C161.157 49.936 161.134 49.7928 161.122 49.6546C161.11 49.5164 161.125 49.3903 161.166 49.2763C161.207 49.1622 161.275 49.0628 161.37 48.9778C161.47 48.8917 161.613 48.8265 161.801 48.7823C161.945 48.7486 162.118 48.7627 162.32 48.8246C162.521 48.8817 162.744 48.9729 162.987 49.0982C163.236 49.2225 163.503 49.371 163.789 49.5438C164.074 49.7116 164.369 49.8901 164.674 50.0792C164.98 50.2683 165.291 50.4611 165.609 50.6578C165.93 50.8483 166.251 51.0259 166.572 51.1906C166.715 51.2665 166.877 51.3562 167.058 51.4598C167.244 51.5622 167.431 51.6566 167.618 51.743C167.81 51.8282 167.996 51.8967 168.175 51.9485C168.358 51.9942 168.524 51.9996 168.672 51.9647C168.811 51.9321 168.886 51.8518 168.897 51.7238C168.913 51.5897 168.889 51.3891 168.826 51.1221C168.78 50.9242 168.705 50.6835 168.601 50.3999C168.503 50.1151 168.385 49.814 168.248 49.4966C168.111 49.1793 167.959 48.8654 167.792 48.555C167.623 48.2397 167.45 47.9569 167.271 47.7067C167.232 47.6532 167.194 47.6021 167.157 47.5536C167.123 47.4989 167.098 47.4369 167.082 47.3677C167.055 47.2539 167.068 47.1438 167.121 47.0374C167.175 46.9309 167.246 46.8358 167.336 46.752C167.426 46.6682 167.524 46.5981 167.631 46.5417C167.737 46.4803 167.827 46.4409 167.901 46.4234C168.064 46.385 168.231 46.4397 168.401 46.5875C168.571 46.7303 168.735 46.9316 168.896 47.1914C169.06 47.4451 169.215 47.7399 169.362 48.0759C169.508 48.4069 169.642 48.7434 169.764 49.0852C169.891 49.4258 170 49.7551 170.09 50.0731C170.185 50.3849 170.257 50.6472 170.307 50.8598C170.401 51.2604 170.467 51.618 170.504 51.9328C170.546 52.2414 170.539 52.5118 170.484 52.744C170.434 52.975 170.325 53.1675 170.158 53.3217C169.99 53.4709 169.745 53.5834 169.423 53.659C169.166 53.7195 168.884 53.731 168.578 53.6935C168.27 53.651 167.95 53.5751 167.616 53.4657C167.286 53.3502 166.946 53.2112 166.594 53.0485C166.248 52.8848 165.904 52.7099 165.563 52.524C165.221 52.3382 164.888 52.1505 164.561 51.9612C164.24 51.7706 163.94 51.5933 163.661 51.4292C163.545 51.3574 163.447 51.3308 163.368 51.3494C163.299 51.3657 163.252 51.4081 163.226 51.4768C163.204 51.5393 163.205 51.6201 163.228 51.719ZM172.224 47.794C172.13 47.8161 172.025 47.859 171.909 47.9227C171.793 47.9815 171.673 48.0488 171.55 48.1248C171.426 48.1957 171.301 48.2642 171.176 48.3303C171.054 48.3902 170.941 48.4324 170.837 48.4568C170.729 48.4824 170.638 48.4855 170.565 48.466C170.497 48.4404 170.441 48.4014 170.397 48.349C170.353 48.2967 170.321 48.2365 170.3 48.1684C170.279 48.1003 170.26 48.0341 170.245 47.9699C170.201 47.7819 170.219 47.6158 170.3 47.4715C170.386 47.3261 170.523 47.1894 170.713 47.0614C170.9 46.9284 171.134 46.8004 171.413 46.6774C171.696 46.5482 172.014 46.4054 172.369 46.2489C172.927 46.0028 173.439 45.7936 173.904 45.6214C174.375 45.448 174.825 45.2978 175.255 45.1707C175.688 45.0374 176.114 44.9189 176.533 44.815C176.952 44.7112 177.394 44.6046 177.859 44.4952C177.998 44.4626 178.11 44.4543 178.198 44.4703C178.285 44.4863 178.352 44.5174 178.4 44.5637C178.452 44.6088 178.489 44.6654 178.51 44.7334C178.536 44.8003 178.558 44.8684 178.574 44.9377C178.592 45.0168 178.6 45.1062 178.598 45.206C178.599 45.2997 178.582 45.3925 178.546 45.4844C178.514 45.5702 178.459 45.6483 178.382 45.7187C178.309 45.788 178.211 45.8371 178.088 45.8662L177.494 46.0058C177.257 46.0617 177.005 46.1235 176.739 46.1913C176.472 46.2541 176.209 46.3213 175.949 46.3929C175.688 46.4595 175.438 46.5287 175.2 46.6006C174.966 46.6713 174.758 46.7436 174.577 46.8175C174.4 46.8852 174.262 46.9517 174.162 47.0169C174.063 47.082 174.02 47.1443 174.034 47.2036C174.048 47.263 174.094 47.3566 174.171 47.4846C174.248 47.6126 174.338 47.7507 174.44 47.8987C174.542 48.0419 174.643 48.185 174.745 48.3281C174.85 48.4651 174.937 48.5803 175.006 48.6737C175.066 48.7485 175.123 48.7949 175.18 48.8129C175.236 48.8309 175.307 48.8301 175.391 48.8103C175.593 48.7626 175.798 48.7013 176.005 48.6266C176.212 48.5518 176.418 48.4746 176.624 48.3949C176.833 48.3091 177.041 48.2288 177.248 48.154C177.46 48.0781 177.672 48.0151 177.885 47.9651C178.004 47.9371 178.105 47.9367 178.19 47.9638C178.278 47.9847 178.352 48.0221 178.412 48.0759C178.47 48.1248 178.515 48.1821 178.546 48.2478C178.582 48.3124 178.606 48.3694 178.618 48.4189C178.67 48.6414 178.641 48.8258 178.529 48.9722C178.416 49.1135 178.247 49.2394 178.023 49.3496C177.798 49.4599 177.53 49.5621 177.218 49.6564C176.911 49.7495 176.586 49.8546 176.243 49.9718L176.069 50.0286C176.007 50.0536 175.963 50.0875 175.936 50.1302C175.91 50.173 175.903 50.2216 175.916 50.276C175.919 50.2908 175.924 50.3026 175.932 50.3113C175.939 50.3201 175.944 50.3318 175.948 50.3467C176.031 50.4994 176.126 50.6702 176.233 50.8589C176.339 51.0428 176.44 51.2278 176.536 51.414C176.637 51.599 176.725 51.7765 176.802 51.9463C176.878 52.1162 176.93 52.258 176.957 52.3718C177.01 52.5993 176.964 52.7927 176.819 52.9521C176.679 53.1104 176.453 53.2262 176.142 53.2995C176.028 53.3262 175.91 53.3252 175.789 53.2964C175.673 53.2714 175.587 53.1926 175.529 53.0599C175.355 52.673 175.173 52.2983 174.983 51.9359C174.792 51.5685 174.597 51.2047 174.398 50.8445C174.322 50.7215 174.219 50.6751 174.091 50.7053C173.942 50.7403 173.773 50.7749 173.583 50.8092C173.398 50.8424 173.205 50.8668 173.005 50.8825C172.805 50.8982 172.609 50.9053 172.415 50.9039C172.226 50.8963 172.05 50.8699 171.888 50.8245C171.731 50.7779 171.595 50.7107 171.48 50.6229C171.37 50.5339 171.298 50.4152 171.263 50.2668C171.241 50.1728 171.242 50.0761 171.265 49.9766C171.288 49.8722 171.325 49.7772 171.378 49.6917C171.43 49.6012 171.49 49.5244 171.559 49.4613C171.633 49.397 171.707 49.3561 171.781 49.3387C171.87 49.3177 171.971 49.3173 172.086 49.3374C172.2 49.3575 172.323 49.3807 172.454 49.4072C172.586 49.4337 172.724 49.4535 172.868 49.4665C173.017 49.4785 173.17 49.4658 173.328 49.4286C173.408 49.41 173.437 49.3586 173.417 49.2745C173.399 49.1954 173.36 49.0951 173.3 48.9735C173.245 48.8507 173.179 48.7253 173.102 48.5973C173.023 48.4644 172.939 48.3381 172.848 48.2186C172.761 48.0929 172.674 47.9907 172.588 47.9118C172.534 47.8618 172.481 47.8247 172.429 47.8005C172.381 47.7752 172.313 47.7731 172.224 47.794ZM179.972 45.1881C179.932 45.1974 179.858 45.2254 179.749 45.2719C179.643 45.3123 179.519 45.3624 179.377 45.422C179.234 45.4816 179.085 45.548 178.93 45.621C178.774 45.689 178.627 45.7523 178.49 45.8108C178.352 45.8693 178.234 45.9206 178.134 45.9648C178.029 46.0053 177.959 46.0295 177.925 46.0377C177.593 46.1157 177.387 45.9815 177.305 45.6354C177.283 45.5414 177.272 45.4476 177.27 45.3539C177.263 45.2565 177.273 45.1654 177.3 45.0808C177.326 44.9912 177.37 44.9104 177.431 44.8386C177.492 44.7667 177.578 44.7075 177.687 44.661C178.244 44.4358 178.798 44.2063 179.349 43.9724C179.899 43.7386 180.453 43.4986 181.011 43.2525C181.134 43.1975 181.245 43.1479 181.344 43.1037C181.442 43.0545 181.551 42.995 181.67 42.9252C181.799 42.8531 181.942 42.7805 182.097 42.7075C182.25 42.6295 182.405 42.5565 182.562 42.4884C182.723 42.4192 182.878 42.3566 183.026 42.3008C183.18 42.2438 183.321 42.2001 183.45 42.1699C183.608 42.1326 183.739 42.1566 183.842 42.2419C183.95 42.321 184.025 42.4521 184.068 42.635C184.09 42.729 184.104 42.8222 184.11 42.9147C184.115 43.0023 184.106 43.0853 184.083 43.1639C184.06 43.2424 184.019 43.3121 183.96 43.3729C183.901 43.4337 183.818 43.4818 183.712 43.5173C183.439 43.6232 183.149 43.7437 182.842 43.8786C182.533 44.0087 182.268 44.1362 182.047 44.2613C181.955 44.3143 181.893 44.3812 181.86 44.462C181.825 44.538 181.812 44.6271 181.821 44.7295C181.828 44.827 181.841 44.9257 181.859 45.0258C181.881 45.1198 181.903 45.2112 181.924 45.3003C181.973 45.508 182.029 45.7139 182.093 45.9181C182.161 46.1212 182.227 46.3248 182.291 46.529C182.503 47.2307 182.736 47.9197 182.989 48.596C183.247 49.2712 183.514 49.9521 183.79 50.6386C183.806 50.661 183.817 50.6846 183.823 50.7093C183.829 50.734 183.834 50.7587 183.84 50.7835C183.904 51.0555 183.796 51.2844 183.516 51.4703L183.207 51.6527C183.125 51.7033 183.042 51.7385 182.958 51.7583C182.829 51.7885 182.716 51.7709 182.617 51.7055C182.519 51.645 182.439 51.5385 182.377 51.3861C182.039 50.5681 181.718 49.7509 181.417 48.9346C181.114 48.1134 180.847 47.2785 180.616 46.43C180.574 46.2938 180.531 46.1447 180.487 45.9827C180.444 45.8207 180.402 45.6531 180.361 45.48C180.304 45.2377 180.174 45.1404 179.972 45.1881ZM186.301 43.4091C186.633 43.3312 186.984 43.2954 187.356 43.3018C187.727 43.3032 188.075 43.3389 188.399 43.4087C188.722 43.4736 188.998 43.568 189.225 43.6919C189.453 43.8158 189.585 43.9569 189.622 44.1151C189.641 44.1943 189.627 44.2914 189.581 44.4066C189.534 44.5169 189.472 44.6281 189.394 44.7404C189.315 44.8478 189.223 44.9451 189.118 45.0324C189.017 45.1135 188.922 45.1646 188.833 45.1855C188.714 45.2134 188.569 45.1954 188.397 45.1314C188.231 45.0662 188.044 44.9953 187.839 44.9185C187.636 44.8356 187.42 44.7691 187.189 44.7191C186.958 44.669 186.721 44.6725 186.479 44.7295C186.321 44.7668 186.199 44.8372 186.114 44.9407C186.032 45.0382 186.008 45.1561 186.04 45.2946C186.069 45.4182 186.158 45.5304 186.307 45.631C186.455 45.7267 186.641 45.8187 186.865 45.9068C187.095 45.9938 187.35 46.0824 187.633 46.1725C187.915 46.2627 188.204 46.3616 188.501 46.4693C188.803 46.5757 189.1 46.6988 189.394 46.8384C189.688 46.9781 189.959 47.1414 190.206 47.3284C190.459 47.5143 190.677 47.7318 190.861 47.9808C191.043 48.2249 191.173 48.5076 191.248 48.8291C191.313 49.106 191.323 49.3698 191.278 49.6206C191.232 49.8714 191.137 50.0999 190.993 50.3061C190.848 50.5124 190.66 50.6897 190.429 50.838C190.198 50.9864 189.931 51.0961 189.63 51.167C189.249 51.2566 188.884 51.2799 188.534 51.2368C188.186 51.1987 187.872 51.1056 187.592 50.9576C187.312 50.8095 187.072 50.6102 186.872 50.3598C186.677 50.1081 186.54 49.8142 186.461 49.4779C186.359 49.0427 186.361 48.7082 186.467 48.4743C186.579 48.2392 186.803 48.0822 187.139 48.003C187.347 47.9542 187.522 47.9547 187.664 48.0048C187.807 48.0548 187.891 48.1367 187.918 48.2505C187.932 48.3098 187.937 48.3739 187.932 48.4429C187.926 48.5069 187.919 48.5764 187.911 48.6515C187.906 48.7204 187.902 48.7943 187.9 48.8731C187.903 48.9508 187.913 49.0267 187.93 49.1009C187.96 49.2295 188.019 49.3461 188.106 49.4509C188.194 49.5556 188.297 49.6408 188.417 49.7066C188.543 49.7761 188.679 49.8223 188.826 49.8453C188.972 49.8683 189.119 49.8623 189.268 49.8274C189.663 49.7343 189.823 49.5246 189.746 49.1982C189.685 48.9411 189.527 48.7226 189.271 48.5428C189.013 48.3581 188.706 48.193 188.348 48.0475C187.989 47.8972 187.605 47.7526 187.197 47.6138C186.793 47.4739 186.41 47.3188 186.046 47.1487C185.682 46.9785 185.367 46.7812 185.1 46.557C184.832 46.3277 184.661 46.0524 184.585 45.7309C184.522 45.4639 184.519 45.2063 184.575 44.9582C184.637 44.7089 184.745 44.4824 184.901 44.2788C185.055 44.0702 185.251 43.8911 185.487 43.7416C185.728 43.5909 186 43.4801 186.301 43.4091ZM193.408 48.3914C193.264 48.4251 193.123 48.4349 192.984 48.4206C192.85 48.4052 192.727 48.3715 192.616 48.3194C192.503 48.2624 192.407 48.1884 192.329 48.0973C192.255 48.0051 192.204 47.8996 192.176 47.7809C192.127 47.5732 192.169 47.3859 192.302 47.2189C192.44 47.0508 192.645 46.9347 192.917 46.8707C193.045 46.8405 193.175 46.8361 193.305 46.8576C193.439 46.873 193.56 46.9098 193.668 46.968C193.78 47.025 193.876 47.0991 193.955 47.1901C194.034 47.2812 194.086 47.3836 194.113 47.4973C194.164 47.7149 194.125 47.9041 193.996 48.065C193.871 48.2198 193.675 48.3286 193.408 48.3914ZM69.9833 89.5591C69.9437 89.5684 69.8694 89.5963 69.7603 89.6428C69.655 89.6833 69.531 89.7333 69.3885 89.793C69.246 89.8526 69.0972 89.9189 68.9421 89.9919C68.7859 90.06 68.639 90.1233 68.5014 90.1817C68.3638 90.2402 68.2454 90.2916 68.1462 90.3358C68.0409 90.3762 67.9709 90.4005 67.9363 90.4086C67.605 90.4866 67.3986 90.3525 67.3171 90.0063C67.295 89.9124 67.2834 89.8185 67.2822 89.7249C67.275 89.6274 67.2848 89.5364 67.3119 89.4517C67.3378 89.3621 67.3814 89.2814 67.4428 89.2095C67.5042 89.1377 67.5894 89.0785 67.6985 89.032C68.2562 88.8068 68.8102 88.5773 69.3606 88.3434C69.911 88.1095 70.4651 87.8695 71.0231 87.6234C71.1458 87.5684 71.2568 87.5188 71.356 87.4746C71.4541 87.4255 71.5627 87.366 71.682 87.2961C71.8111 87.224 71.9532 87.1514 72.1083 87.0784C72.2622 87.0004 72.4172 86.9274 72.5734 86.8594C72.7346 86.7901 72.8895 86.7276 73.0382 86.6717C73.1918 86.6147 73.3328 86.5711 73.4614 86.5408C73.6197 86.5036 73.7506 86.5276 73.8541 86.6128C73.9615 86.692 74.0367 86.823 74.0797 87.006C74.1018 87.0999 74.1159 87.1932 74.1221 87.2857C74.127 87.3732 74.1178 87.4563 74.0946 87.5348C74.0713 87.6134 74.0303 87.6831 73.9715 87.7439C73.9128 87.8046 73.8301 87.8528 73.7237 87.8883C73.4511 87.9942 73.1611 88.1146 72.8536 88.2496C72.5449 88.3796 72.2801 88.5072 72.059 88.6323C71.9671 88.6852 71.9045 88.7521 71.8713 88.833C71.837 88.9089 71.8241 88.9981 71.8325 89.1005C71.8398 89.1979 71.8526 89.2967 71.8709 89.3967C71.893 89.4907 71.9145 89.5822 71.9355 89.6712C71.9844 89.8789 72.0407 90.0849 72.1044 90.2891C72.173 90.4921 72.2392 90.6958 72.3029 90.9C72.515 91.6016 72.7475 92.2906 73.0006 92.967C73.2586 93.6422 73.5258 94.323 73.8022 95.0096C73.8179 95.0319 73.8287 95.0555 73.8345 95.0802C73.8403 95.105 73.8461 95.1297 73.8519 95.1544C73.9159 95.4264 73.808 95.6554 73.5282 95.8412L73.2188 96.0236C73.1368 96.0742 73.0537 96.1094 72.9696 96.1292C72.8411 96.1595 72.7273 96.1419 72.6284 96.0764C72.5307 96.0159 72.4508 95.9095 72.3889 95.757C72.0502 94.939 71.7301 94.1219 71.4284 93.3056C71.1256 92.4844 70.8587 91.6495 70.6277 90.8009C70.5853 90.6648 70.5424 90.5157 70.499 90.3537C70.4557 90.1916 70.4136 90.0241 70.3729 89.851C70.3159 89.6087 70.186 89.5114 69.9833 89.5591ZM74.0924 87.5588C73.9667 87.0247 74.2501 86.6762 74.9424 86.5133C75.0611 86.4854 75.1725 86.4931 75.2766 86.5365C75.3808 86.5798 75.4537 86.6566 75.4953 86.7669C75.6107 87.0581 75.7207 87.3479 75.8251 87.6365C75.9296 87.9251 76.0403 88.2513 76.1572 88.6152C76.2779 88.9731 76.4101 89.3908 76.5538 89.8685C76.7013 90.34 76.8734 90.9049 77.07 91.5632C77.0863 91.6325 77.1079 91.6796 77.1346 91.7046C77.1663 91.7285 77.197 91.7369 77.2267 91.7299C77.2712 91.7195 77.3052 91.6645 77.3288 91.565C77.4097 91.1545 77.5196 90.779 77.6587 90.4383C77.7966 90.0927 77.9604 89.7906 78.15 89.532C78.3385 89.2685 78.5516 89.0539 78.7893 88.8884C79.0307 88.7168 79.2899 88.5984 79.5669 88.5332C79.9328 88.4471 80.2886 88.473 80.6342 88.6109C80.9798 88.7488 81.3012 88.9837 81.5985 89.3156C81.8958 89.6475 82.1653 90.0721 82.4071 90.5893C82.6476 91.1016 82.8465 91.6915 83.0036 92.3592C83.0466 92.5421 83.0673 92.6965 83.0655 92.8221C83.0676 92.9417 83.0446 93.0437 82.9966 93.128C82.9486 93.2124 82.8706 93.2803 82.7627 93.3318C82.6559 93.3882 82.5185 93.4362 82.3503 93.4758C82.1179 93.5305 81.9393 93.5255 81.8145 93.4609C81.6946 93.3952 81.6126 93.2684 81.5684 93.0805C81.459 92.6156 81.3239 92.1855 81.163 91.7902C81.0059 91.3887 80.8363 91.045 80.6542 90.7591C80.4721 90.4731 80.2854 90.2561 80.094 90.108C79.9075 89.9588 79.7302 89.9039 79.5621 89.9435C79.1813 90.0331 78.8732 90.4318 78.6379 91.1396C78.4075 91.8462 78.2336 92.8709 78.1164 94.2137C78.1036 94.3367 78.0812 94.4411 78.0492 94.527C78.0172 94.6128 77.9718 94.6861 77.9131 94.7469C77.8593 94.8065 77.7871 94.8548 77.6966 94.8917C77.6073 94.9336 77.4984 94.9697 77.3698 95C77.1077 95.0616 76.9082 95.0564 76.7711 94.9842C76.6391 94.9109 76.5413 94.7617 76.4779 94.5365C76.2458 93.683 75.9982 92.8749 75.7352 92.1122C75.4761 91.3433 75.2299 90.6523 74.9969 90.0391C74.7677 89.4197 74.5692 88.8976 74.4013 88.4726C74.2373 88.0414 74.1343 87.7369 74.0924 87.5588ZM90.0712 89.6237C90.1855 89.4663 90.3119 89.3713 90.4504 89.3387C90.5295 89.3201 90.6058 89.323 90.6794 89.3475C90.753 89.3719 90.8393 89.4169 90.9382 89.4823C91.0391 89.5786 91.1132 89.6603 91.1603 89.7275C91.2112 89.7886 91.2448 89.8538 91.2611 89.923C91.296 90.0714 91.255 90.2298 91.138 90.3982C90.9472 90.6519 90.7319 90.8904 90.4922 91.1138C90.2514 91.3323 89.9929 91.5314 89.7168 91.7112C89.4408 91.891 89.1484 92.0459 88.8398 92.1759C88.5323 92.3109 88.2203 92.4156 87.9038 92.4901C87.5032 92.5843 87.1152 92.6208 86.7396 92.5996C86.3652 92.5833 86.0174 92.5138 85.6963 92.391C85.3801 92.2671 85.0972 92.0962 84.8476 91.8783C84.5968 91.6555 84.3929 91.3877 84.2358 91.075C84.1587 90.947 84.0958 90.8679 84.0469 90.8376C84.0018 90.8012 83.9372 90.793 83.8531 90.8127C83.6702 90.8558 83.5187 90.8444 83.3989 90.7787C83.279 90.713 83.1993 90.596 83.1598 90.4279C83.1435 90.3586 83.138 90.313 83.1432 90.2909L83.1231 90.139C83.106 89.9552 83.1227 89.8155 83.1733 89.7201C83.2289 89.6235 83.3333 89.5572 83.4866 89.5211L83.5979 89.4949C83.8056 89.4461 83.9288 89.3153 83.9675 89.1027C84.0405 88.7254 84.1625 88.3679 84.3336 88.0301C84.5046 87.6924 84.7152 87.3897 84.9654 87.1221C85.2144 86.8495 85.4943 86.6192 85.8049 86.4313C86.1194 86.2373 86.4522 86.099 86.8033 86.0164C87.1693 85.9302 87.5233 85.9044 87.8654 85.9387C88.2113 85.9669 88.525 86.047 88.8066 86.1791C89.0882 86.3112 89.3254 86.4876 89.5183 86.7084C89.7161 86.928 89.8494 87.1837 89.918 87.4755C89.9657 87.6783 89.9698 87.873 89.9302 88.0598C89.8907 88.2466 89.8118 88.4217 89.6937 88.5852C89.5744 88.7437 89.4178 88.8876 89.2238 89.0167C89.0347 89.1447 88.8095 89.2525 88.5483 89.3401L86.0353 90.2053C85.9364 90.2286 85.8607 90.2725 85.808 90.3371C85.7603 90.4005 85.7463 90.4743 85.7661 90.5583C85.7964 90.6869 85.8724 90.7995 85.9943 90.8961C86.1212 90.9915 86.2747 91.0676 86.4551 91.1243C86.6392 91.1749 86.8416 91.203 87.0621 91.2085C87.2875 91.2129 87.5115 91.1889 87.7341 91.1365C87.9467 91.0865 88.1596 91.0155 88.3729 90.9236C88.5899 90.8255 88.7979 90.7114 88.9969 90.581C89.2008 90.4496 89.3938 90.305 89.5759 90.1473C89.7568 89.9847 89.9219 89.8102 90.0712 89.6237ZM87.9666 88.0991C88.0373 88.0668 88.0935 88.017 88.1351 87.9498C88.1755 87.8777 88.1858 87.7996 88.166 87.7155C88.1486 87.6413 88.1051 87.5785 88.0356 87.527C87.9661 87.4755 87.8785 87.4361 87.7729 87.4088C87.6661 87.3765 87.5474 87.36 87.4168 87.3594C87.2862 87.3589 87.1517 87.3749 87.0132 87.4074C86.8104 87.4552 86.6097 87.5337 86.411 87.6431C86.2124 87.7525 86.0381 87.877 85.8883 88.0166C85.7373 88.1513 85.6214 88.2908 85.5405 88.4351C85.4585 88.5744 85.4308 88.7009 85.4576 88.8147C85.4844 88.9284 85.567 88.969 85.7055 88.9364C85.7895 88.9166 85.9232 88.8747 86.1065 88.8108C86.2897 88.7468 86.4922 88.6756 86.7139 88.5974C86.9344 88.5142 87.1568 88.4279 87.3811 88.3386C87.6053 88.2493 87.8005 88.1695 87.9666 88.0991ZM95.1294 90.3594C94.8326 90.4292 94.519 90.4273 94.1886 90.3537C93.857 90.2752 93.5255 90.1418 93.1941 89.9536C92.8628 89.7654 92.5408 89.528 92.2281 89.2414C91.9142 88.95 91.6241 88.6268 91.358 88.2719C91.0906 87.912 90.8563 87.5261 90.655 87.1142C90.4537 86.7023 90.3019 86.2788 90.1995 85.8436C90.1203 85.5073 90.1331 85.2511 90.2379 85.0751C90.3414 84.8942 90.549 84.7671 90.8605 84.6938C91.2512 84.6019 91.5066 84.7114 91.6268 85.0224C91.8764 85.6839 92.1449 86.2705 92.4323 86.7822C92.7197 87.2939 93.0151 87.7176 93.3185 88.0533C93.6269 88.3878 93.9365 88.6281 94.2475 88.7741C94.5634 88.919 94.8697 88.9565 95.1664 88.8867C95.3791 88.8367 95.5672 88.7376 95.7307 88.5895C95.893 88.4365 96.0207 88.2473 96.1138 88.0218C96.1458 87.936 96.161 87.8568 96.1596 87.784C96.1631 87.7101 96.1593 87.6275 96.1482 87.5362C96.0904 87.1792 96.0367 86.8291 95.9872 86.4859C95.9416 86.1365 95.8934 85.7877 95.8428 85.4395C95.8178 85.2888 95.8091 85.163 95.8166 85.0621C95.8242 84.9611 95.8512 84.8765 95.8978 84.8081C95.9443 84.7397 96.0123 84.6846 96.1016 84.6427C96.1958 84.5997 96.3171 84.5607 96.4655 84.5258C96.6336 84.4862 96.7829 84.4772 96.9132 84.4987C97.0423 84.5153 97.1568 84.5693 97.2566 84.6606C97.3552 84.747 97.4397 84.8733 97.5101 85.0394C97.5843 85.1994 97.651 85.4055 97.7104 85.6577C97.7616 85.8753 97.7891 86.0698 97.7929 86.2411C97.8004 86.4063 97.7988 86.5659 97.7881 86.7198C97.7811 86.8675 97.7741 87.0153 97.7671 87.1631C97.7639 87.3048 97.7766 87.4584 97.8051 87.6239C97.8769 88.0402 97.9385 88.4015 97.9896 88.7078C98.0397 89.0092 98.0823 89.2679 98.1175 89.4841C98.1576 89.699 98.1908 89.8843 98.217 90.04C98.2481 90.1944 98.2752 90.3316 98.2981 90.4515C98.3223 90.5763 98.3472 90.693 98.3728 90.8018C98.3984 90.9106 98.4263 91.0293 98.4565 91.1579C98.5112 91.3903 98.5805 91.6402 98.6642 91.9076C98.7492 92.1798 98.8312 92.4398 98.9103 92.6873C98.9944 92.9337 99.069 93.151 99.1342 93.3392C99.1994 93.5274 99.2407 93.6586 99.2581 93.7328C99.2802 93.8268 99.2715 93.9228 99.2319 94.0208C99.1924 94.1189 99.1307 94.2116 99.0469 94.2992C98.9631 94.3868 98.8586 94.4636 98.7332 94.5296C98.609 94.6006 98.4727 94.6535 98.3243 94.6884C98.1957 94.7187 98.0814 94.6986 97.9813 94.6282C97.8874 94.5616 97.8186 94.4577 97.775 94.3167C97.7159 94.1322 97.6494 93.9052 97.5755 93.6355C97.5028 93.3708 97.4254 93.0863 97.3434 92.782C97.2625 92.4827 97.1824 92.1753 97.103 91.86C97.0297 91.5484 96.9585 91.2573 96.8896 90.9864C96.8218 90.7205 96.7641 90.4862 96.7164 90.2835C96.6687 90.0807 96.6343 89.9348 96.6134 89.8458C96.5924 89.7568 96.568 89.6973 96.5401 89.6673C96.511 89.6324 96.4693 89.6214 96.4149 89.6342C96.3852 89.6411 96.3479 89.6603 96.3031 89.6918C96.2572 89.7182 96.2067 89.7588 96.1517 89.8135C96.0031 89.9581 95.845 90.0736 95.6774 90.16C95.5099 90.2464 95.3272 90.3128 95.1294 90.3594ZM100.835 81.2038C100.848 81.2582 100.841 81.3956 100.815 81.6158C100.788 81.836 100.745 82.0966 100.685 82.3977C100.631 82.6976 100.56 83.017 100.472 83.3559C100.385 83.6948 100.29 84.0096 100.186 84.3002C100.082 84.5908 99.9707 84.8388 99.852 85.0442C99.7371 85.2434 99.6178 85.3576 99.4942 85.3867C99.4349 85.4007 99.3566 85.4008 99.2594 85.3872C99.1623 85.3735 99.0658 85.3518 98.9701 85.3221C98.8782 85.2864 98.7956 85.2458 98.7223 85.2004C98.6478 85.1501 98.6036 85.0952 98.5896 85.0359C98.578 84.9864 98.5989 84.8536 98.6525 84.6375C98.7098 84.4153 98.7765 84.1334 98.8528 83.7918C98.9278 83.4454 99.0023 83.0521 99.0762 82.612C99.1501 82.1718 99.1972 81.7067 99.2176 81.2165C99.224 81.1106 99.248 81.0241 99.2896 80.9569C99.33 80.8847 99.3972 80.8376 99.4911 80.8155C99.5802 80.7945 99.6961 80.7881 99.8389 80.7963C99.9806 80.7995 100.121 80.8187 100.26 80.8539C100.402 80.883 100.527 80.9266 100.635 80.9848C100.747 81.0418 100.814 81.1148 100.835 81.2038ZM106.958 81.5089C106.775 81.5519 106.626 81.6392 106.511 81.7707C106.395 81.8972 106.308 82.0587 106.249 82.255C106.19 82.4464 106.156 82.6659 106.146 82.9135C106.135 83.1561 106.142 83.4181 106.166 83.6994C106.191 83.9807 106.231 84.2714 106.286 84.5716C106.341 84.8718 106.404 85.1728 106.475 85.4744C106.568 85.8701 106.674 86.2573 106.795 86.636C106.919 87.0087 107.02 87.3582 107.096 87.6846C107.146 87.8972 107.106 88.0815 106.976 88.2374C106.847 88.3983 106.636 88.513 106.344 88.5817C106.29 88.5945 106.227 88.6041 106.156 88.6105C106.084 88.6169 106.013 88.6128 105.941 88.5983C105.875 88.5826 105.811 88.5533 105.748 88.5106C105.692 88.4716 105.651 88.4082 105.625 88.3203C105.478 87.8956 105.309 87.4657 105.118 87.0305C104.927 86.5953 104.714 86.1678 104.48 85.748C104.249 85.3221 103.993 84.9076 103.71 84.5044C103.432 84.1001 103.129 83.712 102.802 83.3402C102.745 83.2754 102.694 83.2143 102.649 83.157C102.609 83.0985 102.582 83.0396 102.568 82.9802C102.551 82.9061 102.564 82.8194 102.609 82.7202C102.657 82.6149 102.722 82.5135 102.803 82.416C102.89 82.3174 102.987 82.2319 103.095 82.1595C103.207 82.0809 103.32 82.0283 103.434 82.0015C103.622 81.9573 103.818 82.0494 104.024 82.2777C104.227 82.5011 104.458 82.8826 104.716 83.4223C104.764 83.5154 104.8 83.5799 104.824 83.616C104.848 83.6521 104.872 83.6672 104.897 83.6614C104.952 83.6486 104.966 83.5564 104.942 83.3847C104.89 82.901 104.897 82.4741 104.961 82.104C105.024 81.7291 105.137 81.4078 105.298 81.1401C105.463 80.8664 105.672 80.645 105.925 80.476C106.182 80.3058 106.479 80.1812 106.815 80.1021C107.008 80.0567 107.208 80.028 107.414 80.0161C107.62 80.0042 107.81 80.0142 107.984 80.0462C108.159 80.0782 108.307 80.132 108.429 80.2077C108.552 80.2833 108.627 80.3829 108.656 80.5066C108.677 80.5956 108.682 80.7066 108.672 80.8395C108.665 80.9663 108.646 81.0936 108.613 81.2213C108.579 81.3441 108.532 81.4543 108.472 81.5521C108.415 81.6437 108.347 81.6988 108.268 81.7174C108.179 81.7384 108.087 81.734 107.991 81.7044C107.894 81.6697 107.789 81.6344 107.676 81.5983C107.568 81.5611 107.454 81.5305 107.334 81.5067C107.217 81.4767 107.092 81.4775 106.958 81.5089ZM115.559 83.6265C115.674 83.4691 115.8 83.3741 115.939 83.3416C116.018 83.3229 116.094 83.3259 116.168 83.3503C116.241 83.3747 116.328 83.4197 116.426 83.4851C116.527 83.5814 116.601 83.6632 116.649 83.7304C116.699 83.7914 116.733 83.8566 116.749 83.9258C116.784 84.0742 116.743 84.2326 116.626 84.401C116.435 84.6547 116.22 84.8932 115.98 85.1166C115.74 85.3351 115.481 85.5342 115.205 85.714C114.929 85.8938 114.637 86.0487 114.328 86.1787C114.021 86.3137 113.709 86.4184 113.392 86.4929C112.991 86.5871 112.603 86.6237 112.228 86.6024C111.853 86.5861 111.506 86.5166 111.185 86.3938C110.868 86.2699 110.585 86.099 110.336 85.8811C110.085 85.6583 109.881 85.3905 109.724 85.0778C109.647 84.9498 109.584 84.8707 109.535 84.8404C109.49 84.8041 109.425 84.7958 109.341 84.8155C109.158 84.8586 109.007 84.8473 108.887 84.7815C108.767 84.7158 108.688 84.5988 108.648 84.4307C108.632 84.3615 108.626 84.3158 108.631 84.2937L108.611 84.1418C108.594 83.958 108.611 83.8183 108.662 83.7229C108.717 83.6263 108.822 83.56 108.975 83.5239L109.086 83.4978C109.294 83.4489 109.417 83.3181 109.456 83.1055C109.529 82.7282 109.651 82.3707 109.822 82.0329C109.993 81.6952 110.203 81.3925 110.454 81.1249C110.703 80.8523 110.982 80.6221 111.293 80.4341C111.608 80.2401 111.94 80.1018 112.292 80.0192C112.657 79.9331 113.012 79.9072 113.354 79.9415C113.7 79.9697 114.013 80.0499 114.295 80.1819C114.576 80.314 114.814 80.4904 115.007 80.7112C115.204 80.9309 115.338 81.1866 115.406 81.4783C115.454 81.6811 115.458 81.8759 115.418 82.0626C115.379 82.2494 115.3 82.4245 115.182 82.588C115.063 82.7465 114.906 82.8904 114.712 83.0195C114.523 83.1475 114.298 83.2553 114.037 83.3429L111.524 84.2082C111.425 84.2314 111.349 84.2753 111.296 84.3399C111.249 84.4033 111.235 84.4771 111.254 84.5612C111.285 84.6897 111.361 84.8023 111.483 84.8989C111.609 84.9943 111.763 85.0704 111.943 85.1271C112.127 85.1777 112.33 85.2058 112.55 85.2113C112.776 85.2157 113 85.1917 113.222 85.1393C113.435 85.0893 113.648 85.0183 113.861 84.9264C114.078 84.8284 114.286 84.7142 114.485 84.5839C114.689 84.4524 114.882 84.3078 115.064 84.1501C115.245 83.9875 115.41 83.813 115.559 83.6265ZM113.455 82.1019C113.526 82.0696 113.582 82.0198 113.623 81.9526C113.664 81.8805 113.674 81.8024 113.654 81.7183C113.637 81.6441 113.593 81.5813 113.524 81.5298C113.454 81.4783 113.367 81.4389 113.261 81.4116C113.154 81.3793 113.036 81.3628 112.905 81.3623C112.774 81.3617 112.64 81.3777 112.501 81.4103C112.299 81.458 112.098 81.5365 111.899 81.6459C111.701 81.7553 111.526 81.8798 111.377 82.0194C111.226 82.1541 111.11 82.2936 111.029 82.4379C110.947 82.5772 110.919 82.7038 110.946 82.8175C110.973 82.9312 111.055 82.9718 111.194 82.9392C111.278 82.9195 111.411 82.8776 111.595 82.8136C111.778 82.7496 111.98 82.6784 112.202 82.6002C112.423 82.517 112.645 82.4307 112.869 82.3414C113.094 82.2521 113.289 82.1723 113.455 82.1019ZM124.769 77.4513C124.791 77.4565 124.822 77.4545 124.862 77.4451C124.97 77.4196 125.008 77.335 124.974 77.1916L124.431 74.8846C124.363 74.5929 124.378 74.37 124.478 74.2161C124.582 74.0611 124.788 73.9475 125.094 73.8754C125.406 73.802 125.641 73.8146 125.8 73.9129C125.959 74.0112 126.075 74.2161 126.148 74.5277C126.176 74.6464 126.21 74.8237 126.25 75.0596C126.288 75.2906 126.332 75.5543 126.381 75.8507C126.435 76.146 126.494 76.4635 126.558 76.8033C126.621 77.1381 126.691 77.4687 126.768 77.7951C126.887 78.2995 127.024 78.7266 127.179 79.0762C127.334 79.4259 127.505 79.7068 127.69 79.9188C127.875 80.126 128.07 80.2679 128.276 80.3447C128.481 80.4166 128.694 80.4263 128.917 80.374C129.041 80.3449 129.148 80.3038 129.24 80.2509C129.336 80.1918 129.453 80.146 129.592 80.1135C129.691 80.0902 129.784 80.1229 129.873 80.2116C129.966 80.2942 130.029 80.4073 130.062 80.5507C130.093 80.6793 130.082 80.8097 130.029 80.9421C129.982 81.0733 129.901 81.1966 129.788 81.3121C129.679 81.4264 129.544 81.5287 129.382 81.6189C129.22 81.7041 129.044 81.7688 128.856 81.813C128.451 81.9085 128.051 81.8721 127.656 81.704C127.261 81.5309 126.918 81.2069 126.629 80.7322C126.596 80.6566 126.562 80.6228 126.527 80.631C126.488 80.6403 126.465 80.6874 126.459 80.7723C126.41 81.1648 126.311 81.5325 126.162 81.8754C126.017 82.2123 125.826 82.5183 125.588 82.7935C125.353 83.0626 125.079 83.2917 124.763 83.4808C124.452 83.6687 124.109 83.8069 123.733 83.8953C123.337 83.9884 122.958 84.0072 122.596 83.9516C122.239 83.8998 121.915 83.7856 121.622 83.6091C121.329 83.4275 121.079 83.1942 120.871 82.9091C120.661 82.6191 120.513 82.2887 120.426 81.9178C120.314 81.443 120.308 80.9722 120.407 80.5053C120.506 80.0384 120.687 79.6096 120.95 79.2189C121.216 78.8221 121.553 78.4793 121.96 78.1904C122.367 77.9016 122.825 77.6972 123.335 77.5774C123.542 77.5285 123.767 77.494 124.007 77.4739C124.247 77.4489 124.501 77.4414 124.769 77.4513ZM123.708 82.492C123.99 82.4257 124.225 82.3051 124.414 82.1303C124.607 81.9543 124.766 81.7525 124.89 81.525C125.018 81.2914 125.114 81.0469 125.179 80.7915C125.243 80.5312 125.287 80.2835 125.31 80.0484C125.333 79.8134 125.341 79.6052 125.335 79.424C125.329 79.2428 125.317 79.1151 125.3 79.0409C125.287 78.9865 125.261 78.943 125.222 78.9104C125.182 78.8729 125.129 78.8487 125.064 78.838C124.922 78.8348 124.777 78.8377 124.628 78.8467C124.477 78.8508 124.33 78.8592 124.187 78.872C124.044 78.8848 123.907 78.9014 123.776 78.9218C123.65 78.941 123.535 78.9628 123.432 78.9872C123.135 79.057 122.876 79.165 122.654 79.311C122.433 79.457 122.255 79.632 122.12 79.8359C121.991 80.0387 121.906 80.2649 121.865 80.5144C121.824 80.7591 121.834 81.0149 121.897 81.282C121.953 81.5194 122.038 81.7263 122.153 81.9029C122.271 82.0734 122.408 82.2108 122.563 82.3153C122.723 82.4185 122.901 82.4863 123.096 82.5186C123.292 82.5509 123.496 82.542 123.708 82.492ZM133.117 74.3676C133.389 74.3036 133.661 74.2839 133.933 74.3087C134.205 74.3334 134.455 74.3972 134.683 74.5002C134.91 74.6032 135.105 74.7452 135.268 74.9261C135.436 75.1059 135.549 75.3219 135.608 75.5741C135.633 75.6779 135.632 75.7851 135.606 75.8957C135.583 76.0001 135.541 76.0987 135.48 76.1915C135.417 76.2794 135.339 76.3578 135.245 76.4267C135.156 76.4896 135.057 76.5338 134.948 76.5594C134.938 76.5617 134.929 76.5665 134.92 76.5738C134.915 76.5749 134.908 76.5767 134.898 76.579C134.889 76.5863 134.88 76.5911 134.87 76.5934L135.039 77.1799C135.225 77.8824 135.446 78.3759 135.701 78.6604C135.96 78.9437 136.236 79.0511 136.528 78.9824C136.632 78.958 136.721 78.9266 136.795 78.8882C136.875 78.8486 136.946 78.8083 137.01 78.7673C137.077 78.7202 137.14 78.6792 137.2 78.6443C137.259 78.6094 137.321 78.5843 137.386 78.5692C137.499 78.5425 137.61 78.5686 137.717 78.6478C137.83 78.7257 137.902 78.8339 137.935 78.9724C137.967 79.1109 137.945 79.2621 137.869 79.4262C137.798 79.5891 137.689 79.7478 137.543 79.9023C137.395 80.0518 137.221 80.1868 137.02 80.3072C136.818 80.4276 136.606 80.514 136.384 80.5664C135.998 80.6572 135.622 80.5786 135.256 80.3308C134.888 80.078 134.57 79.657 134.301 79.068C134.248 78.976 134.197 78.9359 134.148 78.9475C134.088 78.9615 134.043 79.0034 134.013 79.0732C133.669 79.8066 133.256 80.3942 132.776 80.8361C132.294 81.273 131.784 81.5549 131.244 81.6817C130.992 81.741 130.756 81.7575 130.536 81.731C130.316 81.7045 130.118 81.6414 129.943 81.5416C129.772 81.4357 129.624 81.2957 129.5 81.1214C129.379 80.9411 129.29 80.7297 129.233 80.4874C129.153 80.1462 129.143 79.7702 129.203 79.3594C129.268 78.9475 129.386 78.5283 129.557 78.1019C129.728 77.6754 129.942 77.2569 130.201 76.8465C130.464 76.4349 130.751 76.0593 131.063 75.7198C131.379 75.3792 131.713 75.0893 132.064 74.8502C132.415 74.6111 132.766 74.4502 133.117 74.3676ZM133.476 76.9918C133.525 76.8027 133.579 76.6623 133.635 76.5707C133.691 76.4741 133.785 76.3972 133.918 76.3399C134.023 76.2994 134.069 76.252 134.056 76.1976C134.047 76.1581 134.022 76.1195 133.982 76.082C133.858 75.9755 133.733 75.8875 133.607 75.818C133.48 75.7435 133.33 75.7267 133.157 75.7674C132.969 75.8116 132.771 75.9155 132.564 76.0789C132.358 76.2424 132.155 76.4442 131.955 76.6842C131.76 76.918 131.573 77.1785 131.395 77.4657C131.222 77.7467 131.074 78.0293 130.953 78.3135C130.832 78.5977 130.745 78.8713 130.692 79.1343C130.639 79.3973 130.635 79.6227 130.679 79.8106C130.719 79.9788 130.794 80.0993 130.905 80.1724C131.021 80.2442 131.158 80.2615 131.316 80.2243C131.722 80.1289 132.114 79.8096 132.492 79.2665C132.871 78.7234 133.199 77.9652 133.476 76.9918ZM137.143 73.9448C137.126 73.8706 137.141 73.7913 137.189 73.7069C137.236 73.6176 137.305 73.5336 137.396 73.4547C137.486 73.371 137.591 73.2966 137.711 73.2318C137.835 73.1608 137.964 73.1096 138.098 73.0782C138.172 73.0607 138.239 73.0659 138.297 73.0939C138.361 73.1206 138.426 73.1862 138.492 73.2907C138.557 73.3902 138.629 73.5378 138.706 73.7336C138.787 73.9232 138.881 74.1753 138.986 74.4898C139.029 74.584 139.064 74.6566 139.092 74.7075C139.123 74.7523 139.154 74.7712 139.183 74.7642C139.228 74.7538 139.254 74.6666 139.263 74.5029C139.378 73.3744 139.777 72.73 140.46 72.5694C140.776 72.4949 141.086 72.5263 141.39 72.6636C141.699 72.7998 142.017 73.0667 142.346 73.4643C142.678 73.8559 143.032 74.3938 143.407 75.078C143.78 75.7572 144.194 76.6071 144.648 77.6276C144.671 77.6796 144.69 77.7274 144.706 77.7707C144.721 77.814 144.733 77.8555 144.743 77.8951C144.769 78.0088 144.765 78.1141 144.731 78.211C144.7 78.3017 144.649 78.3842 144.578 78.4584C144.505 78.5276 144.42 78.5868 144.322 78.636C144.225 78.6901 144.125 78.7294 144.021 78.7538C143.813 78.8027 143.657 78.8159 143.553 78.7935C143.453 78.7699 143.377 78.6993 143.323 78.5814C143.002 77.8635 142.704 77.229 142.429 76.6781C142.158 76.1259 141.909 75.6678 141.682 75.3036C141.46 74.9332 141.26 74.6594 141.082 74.4819C140.905 74.3045 140.752 74.2309 140.623 74.2611C140.494 74.2914 140.392 74.4015 140.317 74.5914C140.246 74.7753 140.198 75.05 140.174 75.4157C140.151 75.7814 140.151 76.2379 140.176 76.7854C140.205 77.3317 140.261 77.9788 140.343 78.7267C140.365 78.9304 140.303 79.1119 140.158 79.2713C140.013 79.4307 139.807 79.5418 139.54 79.6047C139.362 79.6466 139.217 79.6415 139.105 79.5894C138.994 79.5373 138.918 79.4482 138.878 79.3219C138.592 78.3038 138.343 77.4698 138.133 76.8199C137.926 76.1639 137.754 75.6409 137.615 75.2508C137.475 74.8557 137.367 74.5628 137.291 74.3719C137.214 74.1811 137.165 74.0387 137.143 73.9448ZM148.213 71.5514C148.451 71.4955 148.68 71.4624 148.902 71.4519C149.123 71.4365 149.325 71.4307 149.509 71.4344C149.691 71.4333 149.849 71.4379 149.982 71.4484C150.114 71.4539 150.207 71.4503 150.261 71.4375C150.306 71.427 150.342 71.3949 150.372 71.3411C150.399 71.2823 150.437 71.2187 150.483 71.1504C150.53 71.082 150.597 71.0139 150.686 70.9462C150.773 70.8734 150.898 70.8179 151.061 70.7795C151.249 70.7353 151.409 70.7498 151.541 70.8231C151.672 70.8915 151.755 70.9974 151.788 71.1408C152.214 72.9508 152.514 74.5033 152.689 75.7984C152.862 77.0886 152.903 78.1618 152.812 79.0182C152.721 79.8747 152.498 80.5327 152.141 80.9923C151.785 81.4519 151.293 81.7556 150.665 81.9034C150.378 81.9709 150.064 81.977 149.722 81.9217C149.385 81.8653 149.064 81.766 148.759 81.6237C148.456 81.4864 148.191 81.3164 147.966 81.1136C147.746 80.9097 147.609 80.6964 147.557 80.4739C147.54 80.3997 147.559 80.3039 147.615 80.1864C147.671 80.0688 147.744 79.9497 147.836 79.829C147.928 79.7083 148.028 79.6012 148.136 79.5078C148.245 79.4144 148.343 79.3573 148.432 79.3363C148.526 79.3142 148.614 79.3327 148.696 79.3918C148.779 79.4558 148.861 79.5382 148.942 79.6392C149.028 79.7389 149.117 79.8486 149.207 79.9682C149.299 80.0927 149.403 80.2013 149.519 80.2941C149.635 80.3869 149.766 80.4553 149.912 80.4992C150.059 80.5481 150.229 80.5498 150.422 80.5045C151.5 80.2508 151.745 78.4551 151.158 75.1173C151.123 74.9689 151.064 74.9046 150.98 74.9244C150.911 74.9407 150.864 74.9881 150.841 75.0666C150.524 75.8041 150.091 76.4043 149.542 76.8675C148.998 77.3245 148.347 77.642 147.59 77.82C147.239 77.9026 146.903 77.9269 146.582 77.8929C146.26 77.8539 145.967 77.7661 145.706 77.6293C145.448 77.4865 145.228 77.298 145.048 77.0638C144.867 76.8247 144.739 76.5469 144.664 76.2304C144.591 75.9188 144.573 75.5994 144.611 75.2721C144.652 74.9388 144.741 74.6153 144.876 74.3017C145.014 73.982 145.196 73.6758 145.419 73.3832C145.642 73.0905 145.898 72.8242 146.186 72.5842C146.473 72.3393 146.786 72.1298 147.126 71.9559C147.47 71.7758 147.833 71.641 148.213 71.5514ZM147.499 76.401C148.177 76.2416 148.747 75.8829 149.211 75.325C149.673 74.7621 150.009 74.0255 150.218 73.1153C150.22 73.0833 150.223 73.0593 150.224 73.0433C150.224 73.0223 150.222 73.002 150.218 72.9822C150.206 72.9327 150.142 72.893 150.025 72.8631C149.908 72.8331 149.761 72.8181 149.584 72.8181C149.407 72.8181 149.206 72.8313 148.983 72.8578C148.763 72.8782 148.544 72.914 148.327 72.9652C147.976 73.0478 147.651 73.1868 147.352 73.3823C147.054 73.5778 146.802 73.8041 146.596 74.0613C146.391 74.3184 146.241 74.5912 146.147 74.8794C146.053 75.1677 146.038 75.4479 146.102 75.7198C146.171 76.0116 146.332 76.219 146.585 76.3421C146.843 76.464 147.148 76.4836 147.499 76.401ZM160.231 73.1157C160.345 72.9583 160.471 72.8634 160.61 72.8308C160.689 72.8122 160.765 72.8151 160.839 72.8395C160.912 72.8639 160.999 72.9089 161.098 72.9743C161.198 73.0706 161.273 73.1524 161.32 73.2196C161.371 73.2807 161.404 73.3458 161.42 73.4151C161.455 73.5634 161.414 73.7218 161.297 73.8903C161.107 74.1439 160.891 74.3825 160.652 74.6059C160.411 74.8243 160.152 75.0235 159.876 75.2032C159.6 75.383 159.308 75.5379 158.999 75.6679C158.692 75.8029 158.38 75.9076 158.063 75.9821C157.663 76.0764 157.275 76.1129 156.899 76.0916C156.525 76.0753 156.177 76.0058 155.856 75.8831C155.539 75.7591 155.257 75.5882 155.007 75.3703C154.756 75.1475 154.552 74.8797 154.395 74.567C154.318 74.439 154.255 74.3599 154.206 74.3296C154.161 74.2933 154.097 74.285 154.012 74.3048C153.83 74.3478 153.678 74.3365 153.558 74.2707C153.438 74.205 153.359 74.0881 153.319 73.9199C153.303 73.8507 153.297 73.805 153.303 73.7829L153.282 73.631C153.265 73.4472 153.282 73.3076 153.333 73.2121C153.388 73.1156 153.493 73.0492 153.646 73.0132L153.757 72.987C153.965 72.9381 154.088 72.8074 154.127 72.5947C154.2 72.2174 154.322 71.8599 154.493 71.5222C154.664 71.1844 154.875 70.8817 155.125 70.6141C155.374 70.3415 155.654 70.1113 155.964 69.9234C156.279 69.7293 156.612 69.591 156.963 69.5084C157.329 69.4223 157.683 69.3964 158.025 69.4307C158.371 69.4589 158.684 69.5391 158.966 69.6712C159.248 69.8032 159.485 69.9797 159.678 70.2005C159.875 70.4201 160.009 70.6758 160.077 70.9676C160.125 71.1703 160.129 71.3651 160.09 71.5518C160.05 71.7386 159.971 71.9137 159.853 72.0772C159.734 72.2357 159.577 72.3796 159.383 72.5088C159.194 72.6368 158.969 72.7445 158.708 72.8321L156.195 73.6974C156.096 73.7206 156.02 73.7646 155.967 73.8292C155.92 73.8926 155.906 73.9663 155.925 74.0504C155.956 74.179 156.032 74.2915 156.154 74.3881C156.28 74.4835 156.434 74.5596 156.614 74.6163C156.799 74.6669 157.001 74.695 157.221 74.7005C157.447 74.7049 157.671 74.6809 157.893 74.6286C158.106 74.5785 158.319 74.5075 158.532 74.4156C158.749 74.3176 158.957 74.2034 159.156 74.0731C159.36 73.9416 159.553 73.797 159.735 73.6393C159.916 73.4767 160.081 73.3022 160.231 73.1157ZM158.126 71.5911C158.197 71.5588 158.253 71.5091 158.294 71.4419C158.335 71.3697 158.345 71.2916 158.325 71.2076C158.308 71.1334 158.264 71.0705 158.195 71.019C158.125 70.9676 158.038 70.9281 157.932 70.9008C157.825 70.8685 157.707 70.8521 157.576 70.8515C157.446 70.8509 157.311 70.8669 157.173 70.8995C156.97 70.9472 156.769 71.0257 156.57 71.1351C156.372 71.2445 156.197 71.369 156.048 71.5086C155.897 71.6433 155.781 71.7828 155.7 71.9271C155.618 72.0664 155.59 72.193 155.617 72.3067C155.644 72.4205 155.726 72.461 155.865 72.4285C155.949 72.4087 156.083 72.3668 156.266 72.3028C156.449 72.2388 156.652 72.1677 156.873 72.0894C157.094 72.0062 157.316 71.92 157.54 71.8307C157.765 71.7414 157.96 71.6615 158.126 71.5911ZM164.863 67.8843C164.68 67.9274 164.531 68.0146 164.416 68.1461C164.3 68.2727 164.212 68.4341 164.154 68.6305C164.095 68.8219 164.06 69.0414 164.051 69.2889C164.04 69.5315 164.047 69.7935 164.071 70.0748C164.096 70.3561 164.135 70.6468 164.19 70.9471C164.245 71.2473 164.308 71.5482 164.379 71.8499C164.472 72.2455 164.579 72.6327 164.7 73.0114C164.824 73.3841 164.924 73.7336 165.001 74.06C165.051 74.2726 165.011 74.4569 164.881 74.6129C164.752 74.7737 164.541 74.8885 164.249 74.9571C164.195 74.9699 164.132 74.9795 164.06 74.9859C163.989 74.9923 163.917 74.9883 163.846 74.9737C163.78 74.958 163.716 74.9288 163.653 74.886C163.597 74.847 163.556 74.7836 163.53 74.6958C163.383 74.271 163.214 73.8411 163.023 73.4059C162.832 72.9707 162.619 72.5432 162.385 72.1235C162.154 71.6976 161.897 71.283 161.615 70.8799C161.337 70.4755 161.034 70.0874 160.707 69.7157C160.65 69.6508 160.599 69.5897 160.554 69.5324C160.514 69.4739 160.487 69.415 160.473 69.3557C160.456 69.2815 160.469 69.1948 160.514 69.0956C160.562 68.9903 160.627 68.8889 160.708 68.7915C160.795 68.6929 160.892 68.6073 161 68.5349C161.112 68.4564 161.225 68.4037 161.339 68.3769C161.527 68.3327 161.723 68.4248 161.928 68.6532C162.132 68.8766 162.363 69.2581 162.62 69.7977C162.668 69.8908 162.704 69.9554 162.729 69.9914C162.753 70.0275 162.777 70.0426 162.802 70.0368C162.856 70.024 162.871 69.9318 162.846 69.7602C162.795 69.2764 162.802 68.8495 162.866 68.4795C162.929 68.1045 163.042 67.7832 163.203 67.5156C163.368 67.2418 163.577 67.0205 163.83 66.8515C164.087 66.6813 164.384 66.5566 164.72 66.4775C164.913 66.4321 165.112 66.4035 165.318 66.3915C165.524 66.3796 165.715 66.3897 165.889 66.4217C166.064 66.4537 166.212 66.5075 166.334 66.5831C166.456 66.6587 166.532 66.7584 166.561 66.882C166.582 66.971 166.587 67.082 166.577 67.2149C166.57 67.3418 166.551 67.469 166.518 67.5968C166.484 67.7195 166.437 67.8298 166.377 67.9275C166.32 68.0191 166.252 68.0743 166.173 68.0929C166.084 68.1138 165.991 68.1095 165.896 68.0798C165.799 68.0452 165.694 68.0098 165.581 67.9738C165.473 67.9365 165.359 67.906 165.239 67.8821C165.122 67.8522 164.997 67.8529 164.863 67.8843ZM167.051 70.6263C167.031 70.5423 167.019 70.446 167.014 70.3375C167.009 70.229 166.993 70.1129 166.963 69.9893C166.944 69.9052 166.891 69.8496 166.807 69.8226C166.727 69.7944 166.636 69.7635 166.534 69.7301C166.433 69.6966 166.335 69.6466 166.241 69.58C166.152 69.5122 166.089 69.3992 166.051 69.2409C166.025 69.1272 166.028 69.0065 166.06 68.8788C166.098 68.7499 166.165 68.6245 166.261 68.5026C166.502 68.2164 166.758 67.95 167.028 67.7037C167.304 67.4561 167.584 67.2363 167.868 67.0443C168.156 66.8512 168.446 66.6864 168.738 66.5499C169.029 66.4135 169.316 66.3121 169.598 66.2458C170.072 66.1341 170.538 66.1184 170.996 66.1987C171.457 66.2729 171.877 66.4272 172.256 66.6617C172.638 66.89 172.967 67.1885 173.241 67.5571C173.52 67.9195 173.714 68.3332 173.823 68.798C173.93 69.253 173.935 69.7084 173.839 70.1643C173.747 70.614 173.576 71.03 173.326 71.4122C173.077 71.7945 172.756 72.1258 172.362 72.4062C171.975 72.6904 171.542 72.889 171.062 73.0019C170.592 73.1124 170.138 73.1357 169.701 73.0717C169.263 73.0077 168.865 72.8715 168.509 72.6632C168.15 72.45 167.845 72.1722 167.592 71.8298C167.338 71.4825 167.158 71.0813 167.051 70.6263ZM170.911 71.6282C171.119 71.5793 171.324 71.4867 171.527 71.3503C171.73 71.2138 171.904 71.045 172.05 70.8437C172.199 70.6362 172.306 70.4024 172.37 70.142C172.439 69.8805 172.439 69.6038 172.37 69.3121C172.3 69.0153 172.181 68.7512 172.012 68.5196C171.842 68.2881 171.639 68.101 171.402 67.9585C171.169 67.8098 170.908 67.712 170.621 67.6648C170.338 67.6165 170.046 67.6279 169.744 67.6989C169.195 67.828 168.808 68.0703 168.584 68.4258C168.359 68.7764 168.315 69.2459 168.454 69.8344C168.529 70.1558 168.647 70.444 168.806 70.6988C168.969 70.9475 169.16 71.1529 169.381 71.3149C169.601 71.472 169.84 71.5801 170.099 71.6391C170.364 71.697 170.634 71.6934 170.911 71.6282ZM176.366 68.2622C176.522 68.9249 176.744 69.4129 177.032 69.7262C177.32 70.0395 177.656 70.1507 178.042 70.06C178.284 70.003 178.49 69.8789 178.659 69.6878C178.833 69.4955 178.964 69.2533 179.052 68.9612C179.14 68.6692 179.182 68.3383 179.178 67.9685C179.179 67.5927 179.13 67.1971 179.032 66.7817C178.973 66.5295 178.912 66.3142 178.849 66.1359C178.785 65.9526 178.724 65.7922 178.665 65.6546C178.61 65.5109 178.56 65.3845 178.513 65.2754C178.467 65.1663 178.431 65.0598 178.407 64.956C178.37 64.7977 178.41 64.6683 178.527 64.5676C178.643 64.462 178.847 64.3749 179.139 64.3062C179.509 64.219 179.816 64.2356 180.058 64.356C180.306 64.4753 180.467 64.6956 180.543 65.0171C180.749 65.8924 180.847 66.6991 180.838 67.4371C180.834 68.1739 180.729 68.825 180.523 69.3902C180.32 69.9493 180.022 70.4134 179.629 70.7826C179.236 71.1517 178.757 71.4026 178.193 71.5353C177.793 71.6295 177.402 71.6327 177.021 71.5449C176.647 71.4608 176.301 71.2995 175.984 71.061C175.67 70.8163 175.396 70.5051 175.161 70.1272C174.925 69.7443 174.749 69.3057 174.632 68.8111C174.588 68.6232 174.546 68.4218 174.506 68.2068C174.466 67.9918 174.427 67.7608 174.39 67.5139C174.351 67.2619 174.313 66.9891 174.275 66.6953C174.243 66.4003 174.206 66.08 174.167 65.7344C174.148 65.5875 174.188 65.4581 174.287 65.3461C174.389 65.228 174.535 65.1468 174.723 65.1026C174.891 65.063 175.053 65.0431 175.21 65.0428C175.366 65.0425 175.503 65.0598 175.621 65.0947C175.744 65.1285 175.844 65.1779 175.922 65.2431C176.005 65.3071 176.057 65.3836 176.078 65.4726C176.099 65.5616 176.112 65.7072 176.118 65.9094C176.128 66.1055 176.139 66.3324 176.153 66.5901C176.17 66.8417 176.193 67.1156 176.221 67.4118C176.253 67.7018 176.301 67.9853 176.366 68.2622ZM182.895 62.7022C183.226 62.6243 183.578 62.5885 183.95 62.5949C184.321 62.5963 184.668 62.632 184.993 62.7018C185.316 62.7667 185.591 62.8611 185.819 62.985C186.046 63.1089 186.178 63.25 186.216 63.4082C186.234 63.4874 186.221 63.5845 186.175 63.6997C186.128 63.81 186.065 63.9212 185.987 64.0335C185.908 64.1409 185.816 64.2382 185.711 64.3255C185.61 64.4066 185.515 64.4577 185.426 64.4786C185.308 64.5065 185.163 64.4885 184.991 64.4245C184.824 64.3593 184.638 64.2884 184.432 64.2116C184.23 64.1287 184.013 64.0622 183.782 64.0121C183.551 63.9621 183.315 63.9656 183.072 64.0226C182.914 64.0599 182.792 64.1303 182.707 64.2338C182.626 64.3313 182.601 64.4492 182.634 64.5877C182.663 64.7113 182.752 64.8235 182.901 64.9241C183.049 65.0198 183.235 65.1118 183.459 65.1999C183.688 65.2869 183.944 65.3755 184.226 65.4656C184.508 65.5558 184.798 65.6547 185.094 65.7624C185.396 65.8688 185.694 65.9919 185.988 66.1315C186.281 66.2711 186.552 66.4345 186.8 66.6215C187.052 66.8074 187.27 67.0249 187.454 67.2739C187.637 67.518 187.766 67.8007 187.842 68.1222C187.907 68.3991 187.917 68.6629 187.871 68.9137C187.826 69.1645 187.731 69.393 187.586 69.5992C187.442 69.8055 187.254 69.9828 187.023 70.1311C186.791 70.2795 186.525 70.3891 186.223 70.4601C185.842 70.5497 185.477 70.573 185.128 70.5299C184.78 70.4918 184.466 70.3987 184.185 70.2507C183.905 70.1026 183.665 69.9033 183.465 69.6529C183.27 69.4012 183.133 69.1073 183.054 68.771C182.952 68.3358 182.954 68.0013 183.061 67.7674C183.173 67.5323 183.397 67.3753 183.733 67.2961C183.941 67.2473 184.116 67.2478 184.258 67.2979C184.4 67.3479 184.485 67.4298 184.511 67.5435C184.525 67.6029 184.53 67.667 184.525 67.736C184.519 67.8 184.512 67.8695 184.504 67.9446C184.499 68.0135 184.496 68.0874 184.493 68.1662C184.496 68.2439 184.506 68.3198 184.524 68.394C184.554 68.5226 184.613 68.6392 184.7 68.744C184.787 68.8487 184.891 68.9339 185.011 68.9997C185.136 69.0692 185.273 69.1154 185.419 69.1384C185.565 69.1614 185.713 69.1554 185.861 69.1205C186.257 69.0274 186.416 68.8177 186.339 68.4913C186.279 68.2341 186.12 68.0157 185.864 67.8359C185.607 67.6512 185.299 67.4861 184.941 67.3406C184.582 67.1902 184.198 67.0457 183.79 66.9069C183.387 66.767 183.003 66.6119 182.639 66.4418C182.276 66.2716 181.961 66.0743 181.694 65.8501C181.426 65.6208 181.254 65.3455 181.178 65.024C181.116 64.757 181.112 64.4994 181.169 64.2513C181.23 64.002 181.339 63.7755 181.494 63.5719C181.649 63.3633 181.844 63.1842 182.08 63.0347C182.322 62.884 182.593 62.7732 182.895 62.7022ZM186.043 59.7774C186.006 59.7128 185.975 59.655 185.947 59.6041C185.924 59.552 185.907 59.4988 185.894 59.4444C185.861 59.3059 185.876 59.1798 185.938 59.0661C186.005 58.9512 186.125 58.8734 186.298 58.8326C187.064 58.6523 187.528 58.7364 187.688 59.0849C187.886 59.5288 188.078 59.9769 188.263 60.4293C188.447 60.8816 188.624 61.3437 188.792 61.8156C188.965 62.2813 189.124 62.7604 189.272 63.2529C189.422 63.7393 189.559 64.2421 189.681 64.7614C189.705 64.8603 189.722 64.9579 189.734 65.0542C189.746 65.1455 189.745 65.2318 189.733 65.3129C189.719 65.3891 189.691 65.4559 189.647 65.5132C189.608 65.5694 189.544 65.6079 189.455 65.6288L188.811 65.6864C188.679 65.7019 188.578 65.6863 188.51 65.6397C188.445 65.5871 188.395 65.5051 188.358 65.3936C188.106 64.498 187.784 63.5742 187.393 62.6224C187.002 61.6705 186.552 60.7222 186.043 59.7774ZM189.719 68.5493C189.576 68.5831 189.435 68.5928 189.296 68.5786C189.163 68.5681 189.04 68.5344 188.927 68.4773C188.821 68.4241 188.728 68.352 188.649 68.2609C188.57 68.1699 188.516 68.0625 188.487 67.9389C188.439 67.7312 188.481 67.5438 188.613 67.3769C188.751 67.2087 188.959 67.0921 189.236 67.0269C189.364 66.9967 189.494 66.9923 189.624 67.0138C189.753 67.0304 189.872 67.0678 189.979 67.126C190.092 67.183 190.188 67.2595 190.268 67.3555C190.347 67.4465 190.4 67.5489 190.427 67.6627C190.477 67.8753 190.436 68.0596 190.306 68.2155C190.182 68.3752 189.986 68.4865 189.719 68.5493Z" fill="black"/>
</svg>
