<svg width="123" height="175" viewBox="0 0 123 175" fill="none" xmlns="http://www.w3.org/2000/svg">
<path fill-rule="evenodd" clip-rule="evenodd" d="M60.6036 38.4145C47.2298 53.6015 39.418 69.0272 39.1191 73.7894C40.3201 73.2199 42.8824 71.5683 47.5749 66.779C56.0361 58.1414 60.0358 47.9823 60.6036 38.4145ZM19.2459 175C18.4035 175 17.5721 174.612 17.0422 173.875C16.1646 172.662 16.4363 170.967 17.6536 170.091C68.554 133.42 127.568 30.4495 116.281 9.21477C115.588 7.91845 113.482 3.96169 102.809 7.85607C88.5305 13.063 76.0805 22.4302 66.0678 32.5567C66.8993 46.4474 60.9406 60.8967 51.4604 70.5703C44.2083 77.9713 39.7142 80.5205 36.4672 79.1645C35.4102 78.717 33.6413 77.456 33.7228 74.0226C33.8995 66.9742 43.8714 47.9254 60.3183 30.7044C59.3483 23.5909 56.4518 17.1961 52.1234 12.5342C43.3687 3.10199 31.4269 3.09928 20.1724 12.5261C-10.8575 38.504 16.6782 143.132 16.9607 144.187C17.3466 145.632 16.4852 147.118 15.0343 147.506C13.5996 147.894 12.097 147.034 11.7112 145.586C10.5211 141.147 -16.9847 36.5541 16.6809 8.36863C32.8479 -5.16137 47.651 -0.266267 56.1095 8.84865C60.8129 13.9146 63.7175 19.767 65.1223 25.9096C75.2437 16.293 87.392 7.70691 100.945 2.763C113.441 -1.80124 118.791 2.37248 121.082 6.67366C134.814 32.5133 72.0456 137.594 20.8327 174.487C20.3545 174.835 19.7947 175 19.2459 175Z" fill="#F7E32D"/>
</svg>
