<svg width="482" height="767" viewBox="0 0 482 767" fill="none" xmlns="http://www.w3.org/2000/svg">
<path fill-rule="evenodd" clip-rule="evenodd" d="M47.8919 137.635C47.7166 139.873 47.171 146.675 141.312 215.123C171.687 237.214 227.723 276.987 303.895 326.947C168.67 268.349 56.408 283.462 15.8365 319.182C1.9659 331.396 -2.9588 345.775 1.96765 359.671C9.97352 382.261 43.155 400.629 95.4004 411.382C126.543 417.794 164.29 421.463 207.426 422.377C162.078 426.751 123.245 430.757 92.2636 434.263C13.6024 443.175 12.5629 445.334 11.2493 448.069C10.6344 449.346 10.7266 451.014 11.4747 452.126C12.6808 453.937 15.1649 457.735 131.009 447.244C165.108 444.151 224.015 438.323 295.389 429.244C195.737 459.108 135.012 505.689 126.838 535.764C124.547 544.184 126.563 551.21 132.507 555.545C158.681 574.637 238.345 539.309 321.338 487.681C226.317 576.285 198.325 668.466 215.643 724.186C224.609 753.023 245.804 769.057 270.949 766.023C311.141 761.178 361.924 710.051 399.494 586.454C387.49 665.792 379.468 743.413 392.369 751.682C394.754 753.242 397.641 752.919 400.335 750.927C420.456 736.026 456.608 592.467 448.093 473.613C494.256 573.462 643.207 647.796 702.76 648.946C720.657 649.292 726.566 642.638 728.367 636.997C735.27 615.415 690.849 570.694 601.603 508.447C602.592 508.937 603.569 509.417 604.553 509.899C790.834 601.308 917.637 589.9 958.421 555.011C973.269 542.308 978.48 525.966 973.092 508.987C963.292 478.114 919.832 448.974 853.87 429.041C803.117 413.703 740.017 403.853 667.59 399.781C771.061 393.214 881.573 381.676 890.099 362.167C891.385 359.224 890.838 356.087 888.594 353.549C869.517 331.983 687.63 325.21 533.139 367.221C647.944 305.597 721.702 212.79 723.86 176.025C724.411 166.664 720.021 162.844 716.919 161.322C716.692 161.21 716.471 161.111 716.263 161.026C708.443 157.755 678.856 157.575 585.037 244.748C627.516 194.631 658.406 152.849 654.036 141.775C653.028 139.208 650.689 137.839 647.63 137.982C624.428 139.092 517.095 240.216 461.654 337.62C486.703 230.525 474.145 84.9045 456.866 67.8369C453.491 64.5153 450.205 65.6286 448.952 66.26C434.708 73.3798 430.02 152.335 429.308 239.947C419.722 180.934 401.531 129.996 375.442 89.8751C343.805 41.2384 300.494 9.30678 256.601 2.28902C214.113 -4.51129 178.514 12.7245 163.696 47.2664C149.44 80.4966 156.752 125.521 184.277 174.048C203.638 208.181 232.096 243.351 269.325 279.237C214.911 239.764 168.142 206.65 131.344 181.562C56.6784 130.659 52.8295 132.664 50.2836 133.985C48.9311 134.688 48.0186 136.088 47.8919 137.635Z" fill="#F573A0"/>
</svg>
