<svg width="334" height="297" viewBox="0 0 334 297" fill="none" xmlns="http://www.w3.org/2000/svg">
<path fill-rule="evenodd" clip-rule="evenodd" d="M145.257 296.785C145.024 296.853 144.77 296.87 144.515 296.827C143.863 296.715 143.365 296.239 143.193 295.645C143.125 295.411 143.107 295.157 143.152 294.901C155.402 223.211 160.164 176.749 146.074 166.628C139.739 162.078 129.181 164.237 111.832 173.635C111.019 174.075 110.012 173.773 109.573 172.962C109.514 172.854 109.47 172.742 109.437 172.629C109.223 171.892 109.543 171.08 110.244 170.699C126.49 161.901 133.683 155.064 132.879 149.191C130.897 134.722 81.2636 120.548 1.8178 102.368C1.20609 102.228 0.751371 101.767 0.588104 101.205C0.51182 100.942 0.498163 100.655 0.564177 100.369C0.767326 99.4722 1.6618 98.9068 2.55886 99.1156C74.7157 115.627 124.504 123.912 132.972 110.678C137.372 103.8 131.044 89.705 113.065 66.3188C112.934 66.1483 112.841 65.9598 112.785 65.7659C112.598 65.1269 112.807 64.4092 113.368 63.9789C114.096 63.4201 115.143 63.554 115.705 64.2823C134.696 88.9822 146.157 100.613 149.771 98.7805C157.439 94.9596 139.691 30.4152 132.113 2.85292C131.869 1.96456 132.396 0.998525 133.28 0.802827C134.16 0.559466 135.069 1.07396 135.322 1.94945L135.328 1.97028C147.804 47.3395 161.393 89.4716 176.239 90.5595C186.111 91.2738 198.221 74.1115 215.42 34.861C215.791 34.0182 216.773 33.6341 217.618 34.004C218.088 34.2117 218.415 34.6102 218.548 35.0685C218.653 35.4307 218.638 35.8314 218.475 36.2036C208.349 59.3112 195.756 90.7244 203.272 96.7133C212.944 104.422 257.749 73.0528 300.3 41.349C301.034 40.8004 302.08 40.9523 302.631 41.6923C302.754 41.8566 302.841 42.0364 302.894 42.2223C303.083 42.873 302.864 43.5988 302.29 44.0259C259.03 76.2587 215.405 110.648 219.831 121.337C223.103 129.237 253.879 125.7 276.745 122.352C277.579 122.228 278.361 122.748 278.588 123.537C278.609 123.61 278.626 123.685 278.636 123.762C278.772 124.671 278.173 125.524 277.229 125.652C255.004 128.909 225.316 134.325 224.135 143.747C222.468 157.077 275.105 181.023 332.235 204.913C332.719 205.117 333.059 205.521 333.195 205.99C333.297 206.343 333.283 206.731 333.132 207.096C332.779 207.946 331.804 208.349 330.953 207.993C260.119 178.371 211.064 160.768 201.95 171.196C197.787 175.952 201.289 187.521 212.973 207.607C213.043 207.729 213.096 207.854 213.134 207.984C213.342 208.701 213.045 209.494 212.371 209.888C211.573 210.349 210.556 210.081 210.091 209.284C197.86 188.258 189.002 179.034 182.215 180.26C168.471 182.786 157.947 228.111 146.436 295.464C146.326 296.115 145.851 296.612 145.257 296.785Z" fill="#F7E32D"/>
</svg>
