<svg width="776" height="637" viewBox="0 0 776 637" fill="none" xmlns="http://www.w3.org/2000/svg">
<path fill-rule="evenodd" clip-rule="evenodd" d="M608.021 636.87C606.703 637.044 605.35 636.43 604.635 635.213C537.642 520.817 451.125 438.467 420.168 442.568C419.874 442.607 419.585 442.652 419.3 442.707C413.644 443.796 410.297 448.296 409.069 456.465C408.789 458.322 407.065 459.605 405.193 459.328C403.656 459.099 402.514 457.873 402.324 456.407C402.283 456.1 402.282 455.781 402.331 455.455C403.254 449.315 403.439 441.631 399.085 439.9C382.874 433.475 313.35 490.299 241.203 593.936C240.125 595.48 237.996 595.862 236.455 594.788C235.641 594.223 235.145 593.361 235.024 592.447C234.916 591.633 235.099 590.778 235.604 590.051C279.374 527.172 310.046 438.242 280.665 397.277C269.364 381.522 250.21 376.991 225.305 384.161C223.452 384.705 221.605 383.638 221.084 381.835C221.038 381.666 221.002 381.502 220.98 381.333C220.762 379.69 221.775 378.092 223.417 377.617C235.59 374.112 242.284 371.683 245.958 370.09C224.127 368.782 138.041 378.125 4.60005 402.133C2.78688 402.407 0.978039 401.235 0.643816 399.387C0.632835 399.33 0.625681 399.276 0.618523 399.222C0.384909 397.433 1.5961 395.754 3.3958 395.43C131.865 372.321 200.543 326.867 201.991 293.912C202.778 275.958 183.113 260.617 146.62 250.716C145.257 250.344 144.311 249.195 144.136 247.875C144.078 247.44 144.104 246.986 144.227 246.537C144.718 244.721 146.598 243.654 148.41 244.142C191.99 255.972 220.692 254.701 227.177 240.673C235.491 222.673 206.8 177.599 124.143 121.17C123.312 120.604 122.811 119.733 122.689 118.808C122.582 118.004 122.756 117.16 123.252 116.439C124.318 114.886 126.438 114.488 127.988 115.55C180.917 151.681 221.318 178.176 246.132 193.642C242.677 191.019 238.741 188.061 234.256 184.722C233.482 184.151 233.027 183.312 232.911 182.434C232.799 181.587 233.007 180.697 233.556 179.958C234.682 178.445 236.818 178.139 238.324 179.258C264.223 198.53 286.264 202.404 302.047 190.469C337.434 163.728 328.27 77.2165 300.928 5.58493C300.833 5.32971 300.768 5.07382 300.733 4.81392C300.531 3.28484 301.395 1.76217 302.9 1.18837C304.641 0.52158 306.627 1.39875 307.297 3.1579C347.668 108.918 403.434 171.265 431.95 168.377C445.065 167.024 450.446 151.356 452.571 138.435C452.875 136.582 454.626 135.319 456.485 135.626C458 135.875 459.12 137.087 459.311 138.532C459.354 138.859 459.351 139.196 459.296 139.536C457.442 150.818 456.529 158.169 456.11 162.95C463.5 145.059 478.546 96.9588 498.394 17.3583C498.85 15.5325 500.69 14.4232 502.528 14.877C503.925 15.2243 504.901 16.3899 505.079 17.7333C505.134 18.1485 505.115 18.5769 505.01 19.003C488.404 85.5857 486.995 160.92 516.431 176.065C530.067 183.079 548.762 173.874 569.086 150.124C570.299 148.696 572.459 148.523 573.89 149.748C574.557 150.316 574.947 151.085 575.054 151.889C575.176 152.813 574.92 153.785 574.265 154.548C559.318 172.019 555.886 178.917 555.118 181.341L555.148 181.337C568.193 179.609 636.8 131.698 740.224 40.2356C741.627 38.9885 743.789 39.1211 745.031 40.5296C745.503 41.0544 745.773 41.6885 745.859 42.3399C746.002 43.4201 745.62 44.5561 744.74 45.3356C659.395 120.812 613.355 214.251 635.275 267.511C645.873 293.272 671.517 305.764 709.436 303.642C711.228 303.546 712.772 304.846 713.004 306.594C713.015 306.679 713.023 306.763 713.028 306.852C713.132 308.731 711.703 310.345 709.815 310.444C675.71 312.352 662.316 314.71 657.084 316.193C671.675 321.078 733.021 328.72 859.287 332.505C860.982 332.555 862.351 333.834 862.563 335.458C862.587 335.64 862.597 335.824 862.591 336.01C862.534 337.886 860.954 339.377 859.082 339.312C785.231 337.102 712.689 340.285 654.93 348.304C592.059 357.018 567.761 368.775 566.052 376.194C565.277 379.556 570.174 383.877 579.479 388.044C580.597 388.545 581.315 389.577 581.462 390.711C581.541 391.312 581.46 391.944 581.192 392.543C580.426 394.262 578.407 395.028 576.689 394.259C564.117 388.63 554.686 389.189 548.636 395.915C537.614 408.187 537.251 440.793 547.669 483.129C558.967 529.072 581.29 581.863 610.515 631.772C610.75 632.173 610.894 632.608 610.951 633.04C611.129 634.359 610.519 635.718 609.296 636.429C608.891 636.668 608.46 636.811 608.021 636.87Z" fill="#509BF5"/>
</svg>
