<svg width="694" height="494" viewBox="0 0 694 494" fill="none" xmlns="http://www.w3.org/2000/svg">
<path fill-rule="evenodd" clip-rule="evenodd" d="M480.321 197.235C515.521 177.191 542.362 161.638 562.505 149.752C539.75 162.407 511.455 178.639 480.321 197.235ZM669.345 311.375C634.185 303.809 555.004 290.767 453.839 279.416C570.379 299 638.283 308.354 669.345 311.375ZM256.736 484.183C258.338 487.735 260.168 487.639 260.867 487.597C271.772 486.982 301.949 449.429 345.901 312.585C346.411 311.008 348.098 310.14 349.673 310.645C350.948 311.053 351.758 312.233 351.758 313.503C351.758 313.807 351.71 314.116 351.614 314.422C307.608 451.446 309.048 477.166 310.155 481.514C315.061 477.842 328.747 453.395 342.412 410.984C357.802 363.226 365.093 317.046 362.417 284.289C362.411 284.204 362.408 284.123 362.408 284.039C362.408 282.493 363.596 281.181 365.165 281.052C366.803 280.908 368.265 282.148 368.4 283.799C374.821 362.427 444.381 463.676 456.59 467.573C457.175 464.057 456.125 440.649 385.173 311.182C384.921 310.723 384.801 310.225 384.804 309.732C384.807 308.675 385.371 307.651 386.364 307.105C387.817 306.306 389.644 306.841 390.436 308.294C421.639 365.234 460.521 407.78 502.874 431.329C536.895 450.248 572.86 456.395 601.57 448.195C628.086 440.619 643.806 422.217 642.597 400.169C640.371 359.46 581.733 306.372 423.848 279.46C422.383 279.211 421.348 277.941 421.351 276.503C421.351 276.335 421.366 276.167 421.396 275.999C421.456 275.629 421.582 275.29 421.759 274.987C416.469 274.44 411.143 273.9 405.757 273.368C404.206 273.212 403.051 271.906 403.051 270.381C403.051 270.282 403.057 270.183 403.066 270.083C403.228 268.432 404.746 267.24 406.348 267.39C485.948 275.284 542.884 261.7 576.629 248.922C621.803 231.81 645.31 209.036 652.247 193.425C655.05 187.126 656.892 178.257 649.772 171.774C633.862 157.287 566.73 155.422 416.046 240.304C414.609 241.115 412.773 240.607 411.959 239.16C411.938 239.124 411.92 239.088 411.899 239.049C405.604 243.031 399.27 247.066 392.924 251.146C391.525 252.044 389.671 251.636 388.777 250.243C388.456 249.741 388.3 249.18 388.3 248.627C388.3 247.636 388.789 246.67 389.68 246.096C484.616 185.066 517.736 120.301 513.683 100.731C512.98 97.3499 511.27 95.4793 508.45 95.0169C495.475 92.8971 453.467 118.824 387.337 232.095C386.508 233.53 384.672 234.014 383.232 233.173C382.277 232.615 381.746 231.609 381.746 230.576C381.746 230.062 381.878 229.543 382.158 229.069C440.432 129.246 432.219 49.5343 399.927 17.7133C386.928 4.9074 371.433 1.9559 358.477 9.79855C331.48 26.1444 313.702 90.486 352.452 218.031C352.539 218.326 352.581 218.62 352.581 218.908C352.581 220.196 351.749 221.385 350.453 221.778C348.86 222.274 347.192 221.364 346.708 219.779C302.18 73.2064 285.559 56.4852 282.661 54.6086C276.576 65.76 300.496 180.031 353.793 248.315C354.222 248.861 354.426 249.51 354.429 250.153C354.432 251.047 354.039 251.936 353.277 252.531C351.962 253.551 350.081 253.317 349.064 252.014C294.801 182.493 150.527 116.569 135.179 120.821C136.751 124.73 152.891 146.216 311.779 233.963C312.769 234.512 313.327 235.536 313.327 236.596C313.327 237.085 313.207 237.584 312.955 238.043C312.154 239.491 310.332 240.025 308.877 239.22C161.254 157.695 63.8424 181.607 25.2758 226.856C2.33921 253.771 0.08576 288.726 19.6736 313.834C52.3261 355.683 143.694 372.332 302.21 293.539C303.704 292.801 305.498 293.41 306.233 294.894C306.446 295.323 306.546 295.779 306.546 296.227C306.546 297.332 305.936 298.395 304.883 298.917C105.062 398.241 93.9954 421.358 93.4163 423.988C105.443 431.212 253.786 373.386 341.691 284.454C342.856 283.274 344.755 283.262 345.934 284.43C346.531 285.018 346.826 285.793 346.826 286.567C346.826 287.327 346.537 288.09 345.958 288.675C270.175 365.345 246.786 462.105 256.736 484.183ZM250.951 487.047C240.951 464.859 258.271 389.985 310.448 320.727C225.393 389.399 109.742 437.198 90.9733 429.975C88.5874 429.059 87.1528 427.219 87.0448 424.92C86.3455 410.116 156.185 369.538 225.465 333.012C180.521 348.625 142.577 355.179 111.396 355.182C63.549 355.185 31.6111 339.76 14.5888 317.95C-6.80616 290.535 -4.48929 252.538 20.357 223.394C53.9035 184.043 129.757 159.907 242.188 202.107C180.746 166.331 127.371 131.709 128.715 120.079C128.832 119.064 129.469 116.602 132.824 115.657C151.59 110.376 263.895 162.684 328.332 221.941C289.182 154.644 269.474 65.9965 277.319 51.8658C278.495 49.7403 280.404 48.6656 282.58 48.8787C293.183 50.0075 311.528 95.3926 328.278 144.179C315.133 63.1295 331.396 19.4616 355.072 5.13273C370.311 -4.08359 388.996 -0.727284 403.849 13.9048C421.267 31.0615 431.09 60.5057 430.802 94.6932C430.577 121.574 424.229 150.898 412.192 181.297C448.292 128.106 486.857 85.8971 509.152 89.5506C514.476 90.4212 518.077 94.1198 519.29 99.9678C523.398 119.781 500.506 163.542 449.028 209.144C489.672 184.278 523.605 164.692 543.626 153.347C614.236 113.33 617.054 114.858 618.57 115.687C619.53 116.206 620.202 117.317 620.211 118.409C620.226 120.637 620.241 122.246 572.767 150.528C555.612 160.747 534.349 173.152 509.614 187.385C534.688 176.844 557.548 169.03 577.586 164.2C614.329 155.35 641.312 156.617 653.569 167.775C661.192 174.716 662.584 184.848 657.485 196.307C643.029 228.822 578.16 269.722 476.641 275.471C538.122 282.715 584.309 289.713 609.818 293.853C691.314 307.08 693.102 311.286 693.772 312.871C694.201 313.879 694.009 315.311 693.331 316.17C691.911 317.965 690.134 320.196 626.511 311.709C596.668 307.731 558.754 302.057 514.506 294.96C546.741 305.035 573.82 316.996 595.47 330.754C628.254 351.585 647.032 376.265 648.347 400.249C649.715 425.244 632.327 445.982 602.964 454.367C553.145 468.594 482.373 445.367 421.393 367.466C447.29 418.051 467.611 463.976 460.846 472.25C460.183 473.058 458.274 474.823 454.85 473.754C438.671 468.714 386.154 387.847 367.955 317.557C362.367 391.047 326.219 480.29 311.922 487.633C309.854 488.695 307.762 488.536 306.18 487.194C300.103 482.037 305.862 450.806 316.339 411.179C294.344 463.487 274.795 493.201 260.891 493.985C260.719 493.994 260.542 494 260.35 494C257.787 494 253.622 492.973 250.951 487.047Z" fill="#FF4632"/>
</svg>
