<svg width="291" height="564" viewBox="0 0 291 564" fill="none" xmlns="http://www.w3.org/2000/svg">
<path fill-rule="evenodd" clip-rule="evenodd" d="M-143.552 555.417C-143.538 555.417 -142.301 555.959 -138.506 554.544C-111.123 544.259 -44.1506 472.976 -20.7858 398.464C-20.025 396.061 -17.4813 394.707 -15.0309 395.388C-12.5945 396.089 -11.1617 398.599 -11.8151 401.039C-32.3842 477.912 -36.4961 517.05 -35.3806 529.144C-29.8825 520.715 -17.5513 492.837 0.483434 423.08C1.04819 420.909 3.15317 419.453 5.34216 419.61C7.59183 419.773 9.40743 421.512 9.64547 423.739C18.7982 508.861 38.6205 538.432 47.8199 542.176C49.6541 542.918 51.073 542.705 52.5993 541.466C60.1884 535.268 70.1999 501.508 53.8128 418.07C53.3787 415.866 54.5969 413.667 56.7019 412.855C58.8022 412.048 61.2012 412.846 62.3774 414.767C101.21 478.028 121.616 501.336 129.345 507.618C127.044 495.89 111.604 459.281 68.6037 390.55C67.2735 388.425 67.8755 385.637 69.9712 384.245C72.0622 382.848 74.8859 383.359 76.3515 385.386C117.737 442.408 163.3 461.229 190.067 454.516C201.068 451.775 207.859 444.885 209.18 435.119C211.728 416.251 193.694 384.472 135.44 351.881C133.447 350.772 132.565 348.392 133.34 346.258C134.115 344.124 136.341 342.89 138.577 343.28C219.822 358.232 253.716 358.812 264.194 357.179C253.352 350.828 212.914 337.1 126.25 321.879C123.767 321.443 122.082 319.128 122.446 316.65C122.801 314.173 125.125 312.415 127.581 312.702C211.57 322.088 255.606 322.027 271.415 320.018C258.444 315.639 223.896 308.388 151.104 300.728C148.822 300.487 147.053 298.636 146.936 296.353C146.815 294.075 148.383 292.053 150.633 291.575C235.154 273.755 268.46 261.053 278.238 255.384C266.085 253.922 225.847 255.722 130.997 276.497C128.528 277.026 126.087 275.532 125.466 273.101C124.85 270.666 126.292 268.188 128.715 267.506C213.455 243.558 255.989 226.407 270.575 218.371C256.204 219.355 219.714 226.124 145.807 247.501C143.604 248.156 141.233 247.079 140.266 245.001C139.296 242.918 140 240.445 141.928 239.179C216.858 189.877 244.512 165.098 252.031 155.926C237.856 159.703 194.739 181.401 117.844 232.809C115.758 234.205 112.925 233.704 111.445 231.658C109.98 229.617 110.409 226.782 112.416 225.265C184.037 171.148 220.088 137.93 231.112 124.467C217.843 130.633 184.942 150.972 120.36 200.399C118.53 201.8 115.931 201.661 114.269 200.055C112.603 198.459 112.374 195.885 113.723 194.02C173.899 110.744 187.911 64.2955 182.641 53.3885C182.091 52.2426 181.447 51.8111 180.186 51.7462C168.448 51.2869 131.781 81.2335 78.7132 166.625C77.4903 168.587 75.0213 169.366 72.879 168.443C70.7506 167.525 69.6258 165.186 70.2372 162.959C94.5309 74.9195 99.9777 36.2184 100.118 22.9129C91.6371 36.8958 73.2617 83.9847 48.5386 175.987C47.8852 178.418 45.3975 179.874 42.9471 179.304C40.4921 178.724 38.9425 176.302 39.4606 173.843C59.3483 78.9974 47.1058 30.4564 34.0278 20.969C31.3581 19.0252 28.777 18.8813 25.8972 20.4958C11.8951 28.3873 -5.74283 75.0958 3.05983 171.449C3.28386 173.955 1.46825 176.181 -1.03813 176.478C-3.53517 176.794 -5.84084 175.036 -6.20957 172.549C-20.1417 78.3201 -32.9069 29.2595 -39.7073 14.1353C-41.0468 27.5754 -39.9873 66.7682 -26.0739 156.747C-25.7145 159.035 -27.1054 161.224 -29.327 161.897C-31.544 162.565 -33.9291 161.517 -34.9139 159.42C-71.5014 81.5629 -92.2478 47.2414 -101.345 35.8009C-97.9934 52.7529 -80.9295 100.213 -40.6454 184.551C-39.5579 186.819 -40.4867 189.533 -42.7411 190.67C-44.9954 191.816 -47.7491 190.962 -48.958 188.759C-93.0833 108.327 -131.738 79.7861 -147.813 79.7861C-148.14 79.7861 -148.452 79.7954 -148.765 79.8186C-152.111 80.0737 -154.221 81.6975 -155.393 84.9218C-161.003 100.366 -144.471 147.279 -75.9447 213.203C-74.1291 214.952 -74.0404 217.819 -75.744 219.67C-77.4523 221.521 -80.3367 221.693 -82.241 220.051C-153.04 159.345 -193.632 132.275 -207.48 126.615C-200.904 136.785 -176.027 164.936 -106.997 223.256C-105.242 224.746 -104.84 227.288 -106.054 229.237C-107.277 231.19 -109.755 231.946 -111.865 231.055C-183.789 200.269 -219.7 188.902 -234.005 186.128C-220.381 195.968 -179.784 218.441 -97.5359 253.045C-95.2116 254.024 -94.0914 256.664 -95.0062 259.002C-95.921 261.336 -98.5254 262.528 -100.92 261.693C-185.95 231.691 -231.956 221.777 -246.248 221.777H-246.43C-237.38 228.633 -205.464 245.525 -122.366 274.131C-120.196 274.878 -118.894 277.091 -119.3 279.341C-119.706 281.591 -121.648 283.261 -124.005 283.159C-198.332 281.405 -234.131 284.175 -247.821 286.866C-232.119 290.888 -187.831 296.571 -102.203 298.028C-99.6829 298.07 -97.6573 300.097 -97.62 302.602C-97.5826 305.108 -99.5569 307.186 -102.077 307.302C-191.21 311.278 -233.725 319.703 -245.524 324.616C-235.149 327.58 -200.881 331.38 -117.041 326.949C-114.889 326.82 -112.724 328.369 -112.238 330.591C-111.743 332.814 -112.948 335.059 -115.076 335.899C-199.905 369.33 -224.484 396.108 -225.627 405.6C-225.828 407.247 -225.338 408.318 -223.942 409.302C-214.145 416.191 -170.898 412.438 -91.8651 373.751C-89.8301 372.744 -87.3611 373.366 -86.0262 375.189C-84.6914 377.021 -84.878 379.536 -86.465 381.155C-134.861 430.424 -154.758 456.168 -160.704 466.639C-148.471 459.596 -116.341 434.052 -60.7151 376.585C-58.9368 374.753 -56.0057 374.683 -54.1481 376.432C-52.2858 378.181 -52.1878 381.095 -53.9334 382.96C-106.586 439.299 -151.103 509.251 -163.645 535.718C-154.412 526.078 -135.08 503.09 -95.7577 448.309C-94.2595 446.226 -91.347 445.748 -89.2467 447.228C-87.9725 448.133 -87.2911 449.557 -87.2911 451C-87.2911 451.937 -87.5665 452.883 -88.1545 453.7C-151.715 542.227 -143.65 555.31 -143.552 555.417V555.417ZM-142.047 564C-147.282 564 -149.829 561.12 -150.921 559.28C-154.009 554.077 -152.442 544.362 -146.255 530.22C-164.703 551.819 -168.547 551.262 -170.848 550.952C-172.966 550.659 -174.664 549.264 -175.392 547.223C-178.658 538.098 -150.753 490.513 -114.273 441.505C-136.975 461.889 -158.824 478.995 -166.658 477.061C-168.846 476.514 -170.512 474.91 -171.123 472.763C-174.025 462.594 -142.63 426.305 -109.994 392.065C-167.698 417.643 -213.057 427.093 -228.603 416.145C-232.797 413.196 -234.771 408.805 -234.16 403.774C-232.014 385.963 -197.432 361.011 -142.173 336.718C-189.832 338.485 -248.903 338.42 -255.804 327.806C-257.115 325.789 -257.231 323.41 -256.121 321.268C-251.744 312.838 -219.221 307.111 -184.261 303.346C-221.647 300.805 -257.035 296.414 -261.244 288.832C-262.293 286.945 -262.247 284.71 -261.127 282.874C-255.729 274.022 -203.549 272.297 -151.658 272.742C-198.529 255.794 -255.211 232.892 -257.572 220.525C-258.015 218.206 -257.231 215.99 -255.421 214.446C-248.175 208.288 -214.494 215.647 -179.171 225.779C-214.214 208.951 -246.561 191.205 -247.62 182.59C-247.877 180.457 -247.004 178.416 -245.278 177.132C-236.838 170.816 -185.241 189.61 -134.88 210.379C-173.904 176.409 -220.196 133.127 -217.905 120.848C-217.48 118.567 -215.964 116.814 -213.757 116.04C-203.059 112.33 -162.538 141.599 -126.837 169.935C-159.025 128.801 -169.275 97.2136 -163.462 81.2114C-161.036 74.5249 -155.82 70.551 -148.77 70.0131C-128.475 68.5571 -101.629 93.0635 -76.4905 126.7C-95.7734 82.6999 -115.248 33.0007 -109.126 24.2182C-107.881 22.4376 -105.874 21.4871 -103.677 21.6679C-92.5448 22.6046 -64.6399 74.4646 -39.1703 126.895C-46.6213 73.8432 -53.559 8.82347 -44.1345 1.34402C-42.3943 -0.0331679 -40.1315 -0.380941 -38.0459 0.435167C-27.7723 4.46007 -16.1409 55.7173 -7.5189 102.685C-5.01814 50.4821 7.49034 20.0311 21.9397 11.8978C28.0283 8.46178 34.5042 8.84665 40.1635 12.9504C53.6658 22.739 62.6424 54.5812 59.0872 106.956C73.0327 61.5042 90.4587 12.1992 101.185 9.35672C103.345 8.78173 105.589 9.3799 107.162 10.9611C115.784 19.5905 101.19 84.0353 87.622 135.946C127.448 76.3611 162.248 41.0969 181.261 41.9408C185.922 42.1819 189.607 44.6302 191.637 48.8267C199.965 66.0763 179.474 114.185 138.757 174.684C183.929 141.01 231.061 108.843 240.994 112.933C242.987 113.758 244.34 115.52 244.615 117.649C245.749 126.329 218.287 151.902 187.876 177.308C220.461 158.157 252.047 142.132 260.599 146.305C262.713 147.339 264.014 149.273 264.164 151.605C264.962 164.111 214.391 201.203 172.065 229.97C223.802 215.758 276.472 203.656 284.034 210.898C285.588 212.382 286.199 214.515 285.677 216.607C283.568 225.009 249.649 238.544 213.22 250.823C249.005 245.24 282.868 242.193 289.288 249.214C290.898 250.976 291.406 253.285 290.669 255.543C286.778 267.53 228.551 283.082 180.654 293.965C231.295 300.017 281.963 308.354 286.162 317.799C287.039 319.779 286.792 322.001 285.504 323.749C280.316 330.769 244.797 330.611 207.719 328.381C241.33 336.524 273.028 346.41 276.248 355.276C277.069 357.548 276.644 359.903 275.077 361.735C266.8 371.435 208.158 363.817 161.693 355.98C201.173 382.397 222.276 411.309 218.996 435.621C217.162 449.198 207.654 459.093 192.911 462.77C163.979 469.971 130.7 452.944 102.445 427.181C122.05 461.43 144.09 504.183 138.5 514.514C137.343 516.647 135.29 517.908 132.86 517.973H132.724C120.529 517.978 90.5754 474.993 67.7512 439.205C76.4246 495.484 73.4013 536.206 59.1479 547.84C54.9722 551.244 49.9193 551.999 44.9225 549.968C27.921 543.055 12.5152 503.835 4.04713 447.607C-8.24673 492.145 -23.2093 536.99 -34.3088 540.041C-36.6416 540.667 -38.9464 540.064 -40.6633 538.376C-48.5482 530.618 -41.2372 487.708 -33.0771 450.714C-47.6897 477.149 -64.2993 498.558 -75.2728 511.472C-100.976 541.729 -126.478 562.303 -140.241 563.889C-140.876 563.968 -141.482 564 -142.047 564V564Z" fill="#5DD3FF"/>
</svg>
