<svg width="311" height="296" viewBox="0 0 311 296" fill="none" xmlns="http://www.w3.org/2000/svg">
<path fill-rule="evenodd" clip-rule="evenodd" d="M352.296 37.3763C342.718 61.5231 339.317 88.464 337.098 114.109C336.068 126.06 335.491 138.502 340.133 148.777C350.674 142.95 356.048 129.686 358.728 119.171C365.507 92.6145 363.143 63.0441 352.296 37.3763M280.583 83.9128C264.626 107.996 253.482 135.607 248.341 164.881C246.718 174.096 245.446 185.642 249.229 195.453C258.77 189.987 264.483 178.644 268.038 170.27C276.905 149.397 281.876 126.174 282.404 103.116C282.544 97.0659 282.395 90.2459 280.583 83.9128M208.83 114.759C189.444 145.226 179.515 182.422 181.815 219.605C203.287 185.654 208.448 144.443 208.83 114.759M120.015 182.869C108.762 206.148 101.659 230.854 101.647 254.265C113.841 232.679 118.437 204.86 120.015 182.869M99.935 267.574C99.3367 267.78 98.6705 267.808 98.0317 267.629C96.7438 267.272 95.8105 266.148 95.6878 264.814C92.3972 228.484 106.617 193.327 119.125 170.234C119.646 169.271 120.177 168.305 120.712 167.344C120.841 160.493 120.708 154.901 120.556 151.213C120.17 141.728 119.152 130.782 114.508 121.489C109.8 112.057 101.46 105.663 93.2559 105.202C87.8541 104.9 82.1023 106.879 75.1575 111.441C35.3469 137.584 -0.515351 207.932 7.96457 291.809C8.1416 293.578 6.85159 295.149 5.09086 295.333C3.32699 295.507 1.75196 294.216 1.57084 292.445C-5.04223 227.027 16.8981 141.996 71.6295 106.053C79.774 100.703 86.7596 98.3817 93.605 98.7726C104.071 99.3624 114.532 107.152 120.251 118.614C125.439 128.998 126.565 140.789 126.976 150.959C127.04 152.498 127.099 154.358 127.141 156.493C141.708 133.205 160.267 111.658 179.498 95.9266C189.629 87.6448 198.383 85.4987 205.499 89.5372C208.722 91.3649 211.131 94.1813 212.753 98.0383C221.326 87.0019 231.219 77.0785 242.275 68.6421C248.209 64.1139 255.373 59.5648 263.547 60.098C270.386 60.5389 277.028 64.7302 281.633 71.2061C295.215 52.8459 311.644 36.7769 330.364 23.8644C334.813 20.7941 340.691 17.5628 346.671 19.7913C348.655 20.5328 350.284 21.7439 351.66 23.2158C354.59 17.7145 358.467 12.0339 363.844 7.67337C372.171 0.918537 383.102 -1.03972 391.703 2.68556C399.951 6.25603 405.162 14.0975 408.784 20.53C428.758 55.9761 430.252 102.079 412.593 137.982C411.81 139.576 409.886 140.231 408.293 139.441C406.704 138.652 406.05 136.72 406.829 135.127C423.579 101.073 422.151 57.3327 403.19 23.6876C400.064 18.1368 395.649 11.4016 389.164 8.59393C382.732 5.81228 374.384 7.42026 367.891 12.6825C362.333 17.1902 358.522 23.5872 355.741 29.4122C355.981 29.8948 356.212 30.3776 356.433 30.8533C369.324 58.7002 372.429 91.4803 364.953 120.78C361.686 133.575 354.685 150.077 339.885 156.013C338.485 156.563 336.692 156.011 335.894 154.61C328.896 142.263 329.49 127.553 330.696 113.546C333.089 85.8884 336.853 56.707 348.101 30.6912C348.25 30.3538 348.396 30.0175 348.547 29.676C347.416 27.9087 346.074 26.4385 344.434 25.8274C341.246 24.6349 337.377 26.8549 334.013 29.1703C315.084 42.2261 298.568 58.6249 285.08 77.3957C288.702 85.8926 289.013 95.2358 288.828 103.278C288.278 127.143 283.131 151.186 273.949 172.802C269.617 182.996 262.31 197.198 248.905 202.784C247.366 203.415 245.576 202.774 244.812 201.282C238.602 189.203 240.053 174.879 242.015 163.749C247.562 132.17 259.889 102.461 277.611 76.831C274.515 71.6415 269.278 66.9227 263.146 66.5245C257.072 66.1341 251.157 69.9676 246.175 73.7697C234.236 82.8777 223.707 93.7863 214.802 105.997C215.143 108.509 215.294 111.278 215.26 114.318C214.902 147.152 208.837 194.008 182.005 230.771C181.22 231.845 179.865 232.318 178.59 231.98C177.311 231.636 176.369 230.547 176.218 229.229C171.116 184.841 183.179 139.682 208.012 104.445C207.012 99.8294 205.119 96.7162 202.345 95.1393C197.756 92.5413 191.445 94.484 183.566 100.921C162.999 117.746 142.461 142.137 127.089 169.364C126.423 195.685 121.903 238.365 101.483 266.428C101.087 266.973 100.542 267.365 99.935 267.574" fill="#F573A0"/>
</svg>
