<svg width="206" height="178" viewBox="0 0 206 178" fill="none" xmlns="http://www.w3.org/2000/svg">
<path d="M-87.2228 114.577C-90.6385 95.79 -82.4075 80.0485 -70.1327 65.9686C-59.565 53.8469 -38.3977 39.1898 -21.0953 42.2658C-5.36537 45.0622 -3.87516 77.6303 -12.0779 87.0951C-19.6973 95.8867 -19.4474 76.6148 -18.8624 72.839C-16.1194 55.1337 -2.95792 35.7276 11.6249 25.8628C27.0913 15.4002 43.0185 22.548 46.578 40.72C50.5299 60.8954 48.6929 83.7146 35.5854 100.492C32.6161 104.293 28.4372 108.103 24.0775 110.283C20.9586 111.842 22.7101 97.7762 22.8752 96.0266C25.8016 65.0064 47.1306 31.0714 73.716 15.0419C96.8241 1.10909 135.214 -3.90497 148.947 25.9486C160.394 50.8334 151.136 81.8782 134.605 102.038C128.889 109.009 122.426 116.099 113.736 119.214C106.972 121.639 106.925 118.567 106.35 112C104.022 85.3891 124.381 48.963 145.512 33.7637C167.377 18.0356 189.845 27.166 197.211 52.7432C206.602 85.3491 198.069 120.983 185.617 151.419C182.329 159.457 178.033 165.943 173.165 172.975C171.239 175.757 173.476 171.049 174.024 170.227" stroke="white" stroke-width="8" stroke-linecap="round"/>
</svg>
